if (_typeface_js && _typeface_js.loadFace) _typeface_js.loadFace({"glyphs":{"S":{"x_min":46.03125,"x_max":1004.25,"ha":1100,"o":"m 46 445 b 212 94 46 302 100 186 b 585 -29 314 12 438 -29 b 876 72 699 -29 796 4 b 1004 351 962 144 1004 237 b 925 558 1004 423 977 493 b 741 681 873 623 810 668 b 695 686 725 683 704 684 l 454 572 b 412 569 440 566 427 565 b 341 647 364 576 341 602 b 444 740 341 698 380 740 b 467 738 453 740 459 740 b 570 652 502 733 536 704 l 640 683 b 444 826 609 768 525 826 b 311 772 393 826 349 808 b 254 643 273 734 254 693 b 257 611 254 630 255 620 b 330 491 265 569 289 529 b 436 406 364 465 402 434 b 568 447 474 412 522 425 b 687 506 583 454 623 473 b 738 531 715 522 730 529 l 736 530 b 756 533 742 531 751 533 b 861 483 793 533 828 518 b 915 372 895 448 911 412 b 861 200 922 304 903 245 b 692 113 820 152 759 125 b 369 188 574 115 455 140 b 178 443 269 245 203 333 b 169 522 172 468 169 495 b 250 755 169 609 198 690 b 466 855 307 822 380 856 b 529 841 478 854 502 848 l 745 718 l 776 713 b 921 780 821 734 876 761 b 997 905 972 813 998 855 b 944 973 996 951 978 973 b 889 920 907 973 889 956 b 900 891 889 911 892 901 l 907 884 b 868 851 915 873 898 851 b 838 856 857 851 847 854 l 840 856 b 606 977 761 908 680 950 b 521 983 597 981 568 983 l 516 979 b 46 445 206 912 48 731 "},"/":{"x_min":-39.46875,"x_max":417.859375,"ha":360,"o":"m 47 -147 l 417 963 l 322 982 l -39 -122 l 47 -147 "},"y":{"x_min":19.171875,"x_max":532.6875,"ha":617,"o":"m 199 530 b 166 620 186 569 174 603 b 179 669 167 631 172 649 l 99 708 l 99 676 b 19 526 62 637 35 585 b 43 499 25 516 36 505 b 61 481 47 495 55 485 b 77 447 72 472 77 458 l 77 143 b 64 106 77 123 73 111 b 36 101 62 105 55 104 b 40 48 36 72 36 54 l 53 29 b 84 11 65 22 77 16 b 114 -24 88 2 99 -8 b 189 -23 136 -37 159 -38 b 324 98 249 34 294 75 l 286 166 b 234 126 256 144 237 129 l 234 127 b 219 118 226 120 222 118 b 221 119 221 118 221 119 b 215 276 216 168 215 224 b 221 438 215 331 216 381 b 283 498 235 456 260 478 b 395 255 350 431 395 342 b 171 -227 395 131 320 -27 l 237 -265 b 402 -58 319 -165 378 -90 b 520 166 464 29 502 104 b 532 265 528 195 532 229 b 399 617 532 367 487 483 l 399 663 l 338 663 l 199 530 "},"Á":{"x_min":-10.890625,"x_max":289.921875,"ha":344,"o":"m -10 301 l 289 301 l 289 375 l -10 373 l -10 301 "},"g":{"x_min":25.078125,"x_max":544.984375,"ha":617,"o":"m 101 473 b 33 238 60 405 34 323 b 76 120 37 200 53 161 b 139 22 95 88 120 52 l 131 2 l 182 -29 b 366 102 240 13 305 59 b 369 91 366 98 367 95 l 420 -33 b 425 -52 423 -40 425 -47 b 371 -133 425 -83 406 -108 b 268 -172 336 -159 302 -172 b 163 -34 204 -172 163 -116 l 25 -34 b 112 -202 38 -111 68 -166 b 267 -254 152 -234 205 -254 b 461 -168 342 -254 406 -226 b 544 26 517 -112 544 -48 b 540 73 544 40 543 55 b 505 172 527 115 515 148 b 485 287 491 204 485 243 b 536 554 485 347 502 437 b 331 654 442 581 374 613 b 256 654 310 661 286 661 l 256 645 b 101 473 189 587 132 523 m 377 448 b 346 262 356 384 346 323 b 350 191 346 238 347 215 b 280 137 325 172 305 156 b 249 140 268 136 257 136 l 249 138 b 208 190 240 145 229 161 b 177 258 191 218 181 240 b 167 330 170 283 167 306 b 248 518 167 401 195 465 b 377 448 291 495 333 472 m 240 522 l 248 518 b 256 525 250 519 253 522 l 240 522 "},"–":{"x_min":-8.171875,"x_max":492.71875,"ha":638,"o":"m -8 529 l 492 529 l 492 637 l -8 637 l -8 529 "},"ƒ":{"x_min":-27.21875,"x_max":860.21875,"ha":833,"o":"m 858 1072 b 813 1073 843 1072 820 1072 l 797 1073 b 777 1074 792 1074 781 1074 l 759 1074 b 698 1073 732 1074 709 1074 l 669 1070 b 653 1069 662 1070 657 1069 b 637 1069 646 1069 642 1070 b 468 945 556 1056 500 1013 b 449 884 458 920 451 899 b 419 748 435 824 424 778 l 255 748 l 232 644 l 401 644 l 304 97 b 270 -8 299 63 285 20 b 148 -53 240 -36 197 -53 b 42 -39 123 -53 88 -48 l -27 -153 b 157 -158 69 -157 130 -158 b 304 -115 215 -154 264 -139 b 381 -21 340 -87 366 -55 b 412 85 393 3 404 40 b 511 644 443 270 479 458 l 680 644 l 699 748 l 529 748 b 555 880 536 787 541 820 b 573 923 559 894 567 912 b 692 967 604 951 645 967 b 807 956 709 967 747 963 l 860 1051 l 841 1055 l 858 1072 "},"e":{"x_min":40.828125,"x_max":450.53125,"ha":488,"o":"m 450 415 b 423 480 436 454 427 473 l 423 479 l 311 659 l 261 659 l 70 509 l 53 477 b 40 276 44 401 40 333 b 43 201 40 250 40 222 b 193 -4 54 98 106 25 b 243 -34 197 -23 213 -34 l 450 141 b 379 183 427 168 402 183 b 356 166 371 177 364 172 b 280 127 332 148 307 127 b 191 208 236 127 202 162 l 450 415 m 291 391 b 185 301 257 361 219 327 b 183 380 182 338 183 350 b 189 476 183 416 185 450 b 220 516 189 484 200 498 b 291 391 245 475 268 431 m 212 530 b 220 516 215 525 217 520 b 232 526 223 519 228 522 l 212 530 "},"J":{"x_min":2.71875,"x_max":733.640625,"ha":794,"o":"m 664 789 b 722 872 699 805 722 833 b 672 939 722 911 705 933 b 602 884 634 944 602 918 b 608 861 602 875 602 869 b 553 854 597 850 581 848 l 556 852 b 274 973 280 984 276 976 b 110 908 197 951 145 929 b 2 729 38 864 2 804 b 63 587 2 675 24 626 b 245 516 107 547 168 520 l 253 590 b 133 634 202 598 161 615 b 88 733 102 662 84 695 b 212 836 95 791 151 836 b 270 823 225 836 247 830 l 473 718 l 506 718 l 664 789 m 549 -179 b 733 43 619 -148 680 -74 b 645 300 717 105 687 191 b 552 544 598 419 567 500 l 553 543 b 552 568 552 551 552 561 b 567 633 552 593 556 615 b 605 662 577 652 590 662 b 634 625 602 661 613 648 b 710 679 686 625 710 643 b 627 759 710 729 669 759 b 492 686 585 759 540 734 b 408 565 454 647 423 604 b 398 514 401 547 398 529 b 412 441 398 495 404 469 b 492 237 426 404 453 334 b 571 25 528 152 553 80 l 571 26 b 573 -36 575 5 577 -15 l 574 -34 b 458 -108 556 -83 517 -108 b 374 -80 419 -108 392 -98 l 375 -81 b 313 22 349 -42 329 -9 b 265 16 296 22 279 20 b 171 -5 204 19 172 -1 l 171 20 b 9 -122 81 20 27 -26 b 53 -134 29 -130 44 -134 b 99 -97 68 -134 84 -122 l 98 -98 b 140 -74 108 -81 121 -74 b 209 -116 164 -74 189 -88 b 276 -223 223 -147 243 -187 b 317 -211 294 -222 308 -216 b 547 -180 397 -205 473 -195 l 549 -179 "},"»":{"x_min":25.859375,"x_max":398.8125,"ha":433,"o":"m 170 -11 l 398 265 l 398 313 l 171 633 l 171 479 b 296 290 212 418 257 352 l 170 125 l 170 -11 m 25 1 l 253 272 l 253 316 l 27 643 l 27 486 b 152 295 68 423 111 358 l 25 130 l 25 1 "},"‐":{"x_min":21.78125,"x_max":359.328125,"ha":410,"o":"m 21 277 l 355 488 l 355 600 l 21 393 l 21 277 m 93 125 l 359 291 l 359 406 l 25 195 l 25 95 l 93 125 "},"ò":{"x_min":20.90625,"x_max":645.21875,"ha":624,"o":"m 269 929 l 281 943 b 117 794 200 938 145 888 l 77 612 b 35 572 73 593 59 579 b 23 549 27 563 25 558 b 38 499 17 533 21 515 b 84 497 50 499 69 498 b 84 415 83 466 84 447 b 126 -250 84 220 98 -2 l 197 -250 b 240 381 226 -23 240 187 b 239 498 240 422 240 459 l 326 498 l 326 623 l 230 623 b 226 641 227 631 228 631 b 219 668 223 649 220 658 b 197 754 204 716 197 744 b 200 780 197 761 198 770 l 200 777 b 265 818 206 804 228 818 b 289 813 272 818 281 816 l 289 815 b 349 772 329 799 349 786 l 349 134 b 317 97 345 123 334 111 b 325 44 313 81 315 62 b 401 12 362 27 386 16 b 450 -38 405 -12 423 -30 l 645 112 l 588 168 b 511 124 556 138 530 124 b 488 141 499 124 492 130 l 481 808 b 407 908 472 851 449 883 b 284 945 373 929 332 941 l 269 929 "},"^":{"x_min":-17.6875,"x_max":383.828125,"ha":383,"o":"m 296 709 l 383 709 l 232 956 l 134 956 l -17 709 l 68 709 b 182 816 104 743 144 781 l 296 709 "},"«":{"x_min":12.25,"x_max":387.921875,"ha":433,"o":"m 255 329 l 387 493 l 387 632 l 156 351 l 156 310 l 385 -12 l 385 126 l 255 329 m 112 333 l 240 497 l 240 638 b 122 492 204 592 149 524 b 14 356 51 404 16 360 b 12 342 12 350 12 346 l 12 328 b 19 303 12 318 14 310 l 235 -7 l 238 140 l 112 333 "},"D":{"x_min":2.84375,"x_max":1025.03125,"ha":1128,"o":"m 827 18 b 1025 358 959 94 1025 208 b 1011 479 1025 398 1019 438 b 705 895 967 661 863 802 b 363 988 603 955 483 988 b 115 901 273 988 185 956 b 2 670 40 838 2 761 b 8 612 2 652 4 629 b 57 502 15 572 32 534 b 181 427 88 465 129 440 l 208 493 b 115 554 160 519 130 538 b 85 627 98 572 89 597 b 83 658 84 638 83 650 b 153 793 83 716 106 761 b 317 838 197 823 251 838 b 513 798 382 838 449 825 b 315 720 417 779 347 744 b 260 629 287 698 269 668 b 269 573 260 612 262 591 l 415 336 b 416 323 417 333 417 327 b 339 263 394 302 366 277 b 45 125 231 262 132 216 l 96 75 b 220 122 138 105 181 122 b 281 97 235 122 254 113 b 496 -29 351 55 427 12 b 605 -56 526 -45 567 -56 b 631 -55 615 -56 626 -56 b 827 18 698 -43 766 -18 m 883 430 b 914 283 901 381 914 326 b 784 86 914 193 867 125 b 686 63 751 72 718 63 b 619 77 662 63 638 70 b 400 208 537 118 462 161 l 532 273 b 577 359 562 291 577 320 b 558 423 577 380 570 404 b 435 622 517 488 477 556 b 430 630 435 616 431 626 b 419 655 426 636 419 648 b 434 676 419 659 428 670 b 528 715 456 693 488 705 b 579 722 544 718 562 720 b 628 729 597 725 613 726 b 883 430 741 663 831 551 m 626 731 l 628 729 b 634 730 630 729 633 730 l 626 731 "},"ÿ":{"x_min":19.15625,"x_max":528.0625,"ha":617,"o":"m 299 926 l 242 722 l 314 725 b 391 802 342 748 367 775 b 439 894 423 841 439 873 b 438 916 439 895 439 904 b 356 973 427 938 398 959 l 356 963 b 299 926 334 961 315 947 m 215 975 b 197 968 208 972 202 970 l 191 968 l 183 961 b 115 854 147 938 121 902 b 104 727 111 818 107 765 l 174 727 b 261 856 201 768 234 816 b 274 902 268 868 274 886 b 219 968 274 929 251 968 l 210 968 l 215 975 m 201 538 l 194 565 b 166 625 175 595 166 615 b 181 675 166 636 171 652 l 99 715 l 99 683 b 19 532 62 645 35 591 b 77 444 42 501 61 473 l 77 146 b 36 102 77 122 64 108 l 36 79 b 46 34 36 61 40 47 b 62 23 49 33 51 32 l 84 14 b 89 5 85 12 87 8 b 151 -33 108 -20 128 -33 b 206 -2 171 -33 190 -23 b 323 100 230 26 269 59 l 278 177 b 221 121 254 144 232 123 b 215 279 216 133 215 186 b 220 444 215 336 216 389 b 283 505 235 462 259 486 b 397 232 355 433 397 336 b 383 161 397 214 393 190 b 360 87 375 136 367 112 b 284 -59 352 57 326 9 b 171 -228 245 -124 206 -180 l 236 -265 b 528 312 431 -24 528 166 b 488 486 528 376 514 436 b 398 625 483 497 453 543 l 398 669 l 337 669 l 201 538 "},"í":{"x_min":20.203125,"x_max":629.75,"ha":672,"o":"m 228 605 b 216 653 225 620 221 630 b 209 689 214 664 212 677 b 200 778 198 727 195 756 l 200 777 b 243 807 206 796 219 807 b 361 759 276 807 315 791 l 432 906 b 382 939 416 928 398 939 b 361 934 372 939 368 939 b 291 944 337 941 315 944 b 115 794 205 944 148 894 b 77 612 104 737 88 669 b 53 582 76 603 67 594 b 23 553 35 569 25 560 b 36 495 16 532 21 512 l 84 495 b 84 413 82 464 84 445 b 126 -250 84 219 97 -3 l 197 -250 b 240 380 225 -24 240 187 b 239 495 240 419 240 456 l 359 495 l 359 117 b 327 88 350 109 334 94 l 325 37 b 420 0 372 24 405 13 l 418 -18 l 465 -43 l 629 107 l 563 157 b 518 120 544 131 529 120 b 499 130 511 120 503 124 l 499 495 l 620 495 l 620 619 l 496 619 b 496 673 495 642 496 650 b 501 802 496 713 499 764 l 414 802 l 414 781 b 303 605 388 700 353 641 l 228 605 "},"ˆ":{"x_min":-17.6875,"x_max":383.828125,"ha":383,"o":"m 296 709 l 383 709 l 232 956 l 134 956 l -17 709 l 68 709 b 182 816 104 743 144 781 l 296 709 "},"w":{"x_min":28.578125,"x_max":797.609375,"ha":871,"o":"m 100 676 b 28 526 70 636 47 586 b 85 402 66 490 85 447 l 85 134 b 55 106 81 123 66 115 l 55 106 b 42 98 54 105 44 100 l 42 41 b 117 0 78 34 117 13 l 117 -29 l 190 -29 b 270 45 198 4 227 30 l 270 79 b 258 120 270 87 265 100 b 227 131 250 119 231 126 l 227 433 b 259 468 238 447 249 459 b 307 506 285 494 300 506 l 308 506 b 344 438 328 490 337 468 l 344 126 b 334 109 341 122 338 116 b 317 69 326 94 317 83 b 326 38 317 61 319 51 b 476 -20 390 22 441 2 b 545 -23 502 -34 525 -34 b 709 136 619 40 673 91 b 797 347 767 209 797 280 b 759 473 797 390 784 433 b 680 600 735 515 706 558 l 680 661 l 615 661 b 468 530 566 616 517 575 b 402 616 454 561 431 594 b 392 661 397 623 393 637 l 333 661 b 209 533 295 620 249 573 b 175 587 200 552 191 568 b 164 616 167 598 164 608 b 187 675 164 626 172 647 l 100 704 l 100 676 m 485 137 l 485 426 b 553 498 511 456 532 477 b 664 263 627 401 664 325 b 573 95 664 216 626 151 b 485 137 543 109 515 122 m 575 94 b 573 95 574 94 573 94 b 571 94 571 95 571 94 l 575 94 m 571 95 l 571 94 b 571 95 570 94 573 95 "},"$":{"x_min":14.96875,"x_max":509.0625,"ha":561,"o":"m 461 531 b 507 680 495 586 510 636 b 368 813 503 755 454 802 b 224 711 311 819 259 786 l 337 648 b 367 729 337 695 349 723 b 435 672 405 727 431 709 b 426 631 436 656 434 644 b 389 608 417 618 405 609 b 283 656 347 608 311 625 b 245 668 269 665 257 668 b 200 648 228 668 212 658 b 115 566 166 615 138 587 b 46 500 80 533 54 508 b 27 438 32 477 27 459 b 43 394 27 422 32 406 b 125 263 70 356 96 313 b 14 133 122 227 85 183 l 29 88 b 167 8 72 65 125 33 b 245 -27 191 -15 219 -27 b 280 0 259 -20 270 -13 b 317 18 292 6 303 11 b 363 40 329 23 349 33 b 435 88 390 55 415 72 b 509 243 484 136 509 187 b 389 437 509 320 468 384 b 461 531 413 469 435 498 m 230 370 b 163 479 205 412 187 438 l 163 477 l 157 486 b 155 495 156 490 155 491 b 187 525 163 504 175 513 b 319 473 236 504 280 487 l 230 370 m 353 258 b 386 181 375 231 386 205 b 381 158 386 172 383 163 b 347 113 375 143 362 127 l 347 115 b 302 90 328 98 314 90 b 283 100 295 90 288 94 b 174 168 246 122 210 145 b 228 236 198 198 212 215 b 287 308 264 280 284 305 b 353 258 310 298 333 281 m 292 315 l 280 311 b 287 308 281 309 284 309 b 288 311 287 309 288 311 l 292 315 "},"\\":{"x_min":14.96875,"x_max":752.703125,"ha":844,"o":"m 619 -18 l 752 -18 l 159 879 l 14 879 l 619 -18 "},"Ì":{"x_min":-20.34375,"x_max":1006.796875,"ha":1092,"o":"m 419 138 b 502 2 419 46 444 2 b 516 5 506 2 511 3 b 633 189 559 21 595 82 b 707 392 659 266 682 328 b 686 202 693 321 686 257 b 828 -6 686 63 731 -6 b 942 66 872 -6 911 18 b 995 180 956 86 972 127 b 1006 223 1002 193 1006 213 b 960 270 1006 255 993 270 b 922 239 944 270 927 257 b 892 173 906 209 893 185 b 874 146 885 163 880 156 b 853 106 859 123 848 106 b 838 91 846 98 840 93 l 838 93 b 820 231 825 138 820 182 b 857 509 820 307 832 399 b 880 609 859 521 866 555 b 896 677 884 625 889 650 l 896 675 b 919 774 904 707 912 742 b 945 870 930 816 938 846 b 955 909 951 891 953 905 l 955 907 b 964 945 961 921 964 931 b 923 989 964 971 952 989 b 878 963 907 989 891 980 l 880 964 b 876 959 878 963 877 960 b 866 946 873 956 867 949 b 691 607 812 863 742 731 b 570 280 663 545 624 434 b 593 410 576 321 584 366 b 601 457 595 425 598 441 b 715 900 643 671 686 838 b 731 945 725 916 731 932 b 708 984 731 961 720 973 b 642 964 691 992 666 986 b 610 928 627 950 616 938 b 576 874 597 910 583 892 l 578 875 b 477 661 557 843 521 771 b 355 363 419 513 375 410 b 151 84 273 191 200 84 b 123 95 140 84 132 86 b 117 107 119 99 117 103 b 121 125 117 113 118 120 l 119 125 b 147 198 134 150 147 178 b 68 277 147 250 121 277 b 5 252 43 277 23 270 b -20 177 -12 232 -20 209 b 34 36 -20 120 -2 73 b 151 -14 73 3 113 -14 b 435 311 246 -14 341 93 b 440 327 436 317 439 323 b 419 138 424 252 419 188 "},"µ":{"x_min":88.171875,"x_max":748.359375,"ha":833,"o":"m 597 -19 b 748 158 699 -19 748 39 b 742 214 748 172 745 192 l 668 211 b 665 168 665 192 663 176 l 665 169 b 658 111 666 153 663 132 l 659 111 b 632 78 653 89 643 78 b 614 100 624 78 614 89 l 614 635 l 447 635 l 447 367 b 446 354 447 364 447 360 b 444 347 446 353 444 348 b 410 192 425 254 413 193 b 314 78 386 117 353 78 b 258 122 285 78 258 97 l 248 635 l 88 635 l 88 -207 b 168 -291 88 -248 126 -291 b 247 -214 221 -291 247 -264 b 229 -131 247 -192 242 -163 b 216 -92 225 -120 221 -106 b 202 -55 212 -85 207 -73 b 184 17 195 -28 190 -7 b 213 -6 201 -2 195 5 b 282 -17 255 -14 276 -17 l 293 -19 b 467 107 371 -19 427 19 b 470 92 467 101 469 96 b 597 -19 480 30 534 -19 "},"Ç":{"x_min":36.75,"x_max":847.96875,"ha":871,"o":"m 496 802 l 504 811 b 536 830 511 817 526 827 b 649 785 536 830 581 813 b 729 776 665 778 691 776 l 847 945 l 779 989 b 740 930 770 973 751 947 b 736 930 736 929 740 930 b 571 988 735 930 679 949 l 484 901 b 323 987 457 947 405 976 b 151 895 257 983 200 954 l 151 895 b 70 743 114 858 92 797 b 59 716 66 733 63 725 b 36 494 44 680 36 605 b 57 341 36 446 43 394 b 138 169 77 269 104 212 b 563 -34 243 32 385 -34 b 669 -25 607 -34 641 -31 l 847 139 l 808 194 b 672 141 759 164 713 146 b 540 135 651 137 609 135 b 490 149 522 139 506 145 l 613 325 b 460 738 615 359 563 496 b 496 802 460 758 472 778 m 353 -307 b 476 -240 398 -290 441 -269 b 548 -131 524 -203 548 -167 b 472 -41 548 -71 524 -41 l 469 -41 l 491 18 l 402 18 l 330 -141 l 341 -153 b 368 -170 351 -163 359 -169 l 385 -170 b 416 -156 397 -165 409 -160 l 416 -158 b 315 -248 416 -181 382 -213 l 353 -307 m 343 898 b 420 834 381 898 412 870 l 300 698 l 451 319 b 455 277 454 312 455 297 b 411 169 455 245 442 209 b 236 326 334 198 276 249 b 181 577 200 397 181 481 b 217 805 181 662 196 740 b 343 898 243 866 285 898 "},"’":{"x_min":10,"x_max":206,"ha":417,"o":"m 98 941 b 10 852 37 941 10 913 b 98 761 10 791 37 761 b 101 763 99 761 99 761 b 93 740 99 758 95 749 l 91 740 b 34 634 71 701 45 653 l 83 590 b 154 663 106 610 132 637 b 200 742 177 691 193 720 l 199 741 b 206 788 204 754 206 770 b 197 856 206 808 203 833 b 98 941 184 906 150 941 "},"-":{"x_min":21.78125,"x_max":359.328125,"ha":410,"o":"m 21 277 l 355 488 l 355 600 l 21 393 l 21 277 m 93 125 l 359 291 l 359 406 l 25 195 l 25 95 l 93 125 "},"Q":{"x_min":-16.625,"x_max":1094.265625,"ha":1078,"o":"m 323 979 b 310 957 318 970 321 974 b 229 884 299 938 270 913 b 156 835 205 868 180 852 l 157 836 b 133 821 148 831 141 825 b 63 739 103 800 81 773 b 39 641 44 706 37 671 b 101 495 40 596 62 546 l 201 377 l 201 378 b 214 352 210 368 214 359 b 195 335 214 345 208 339 b 145 327 180 329 164 327 b 67 342 129 327 101 331 l 67 260 b 161 249 101 253 133 249 l 165 249 l -16 118 l 32 63 b 96 92 70 78 90 88 l 94 92 b 124 104 105 96 116 102 b 380 -14 208 67 296 24 b 461 -30 404 -25 434 -30 b 564 -8 489 -30 526 -25 l 563 -8 b 632 18 585 0 611 9 l 665 31 b 892 209 775 100 851 159 b 988 486 954 281 986 374 b 915 757 989 602 967 691 b 719 882 872 813 807 854 l 719 881 b 462 936 668 899 579 917 b 390 1003 434 941 412 964 l 323 1003 l 323 979 m 296 275 l 295 275 b 366 379 341 299 366 334 b 353 439 366 396 361 416 b 289 520 330 471 308 496 b 262 554 281 529 269 545 b 180 710 206 625 180 677 b 200 759 180 728 187 745 b 303 842 229 788 265 818 b 385 786 325 818 351 800 b 598 749 500 768 571 756 b 783 663 679 728 741 700 b 861 473 835 617 861 554 b 627 107 861 304 782 181 l 627 109 b 566 98 604 102 582 98 b 461 124 534 98 500 107 l 193 249 b 296 275 235 252 269 261 m 939 -51 l 1094 77 l 1028 127 b 966 89 1000 98 979 85 b 963 88 964 89 963 89 b 858 128 926 106 892 118 l 661 -8 l 718 -60 b 796 -24 741 -48 770 -35 b 929 -54 835 -40 881 -48 l 939 -51 "},"M":{"x_min":-18.015625,"x_max":1257.171875,"ha":1306,"o":"m 1096 -33 l 1257 102 b 1194 152 1238 133 1217 148 b 1160 136 1183 150 1170 143 b 1134 114 1144 123 1133 115 l 1133 115 b 1088 169 1111 133 1093 152 b 1083 301 1088 183 1087 233 b 1081 362 1083 322 1081 341 b 1084 437 1081 387 1083 416 b 1093 532 1088 484 1092 521 b 1244 614 1108 582 1159 614 b 1227 694 1244 652 1239 679 b 1174 900 1224 773 1206 845 b 974 997 1130 968 1060 1004 b 795 871 906 990 844 945 b 733 951 776 907 754 933 l 733 952 b 605 997 699 983 657 997 b 446 891 534 997 477 958 b 244 980 391 954 326 980 b 59 897 173 980 112 952 b -18 708 7 841 -18 777 b 32 518 -18 634 -1 571 l 30 518 b 231 405 71 450 139 414 l 222 480 b 101 565 169 497 130 525 b 65 682 77 601 65 640 b 100 783 65 723 77 758 b 209 827 126 814 163 827 b 394 566 305 827 368 741 b 410 391 405 497 410 439 b 330 123 410 280 386 193 b 202 177 285 148 247 164 b 127 108 184 169 158 146 b 58 15 104 80 84 52 l 129 -9 l 156 22 b 171 27 160 25 165 27 b 221 1 180 27 195 21 b 286 -30 251 -20 273 -30 b 314 -17 296 -30 307 -26 l 333 1 b 495 221 406 76 461 151 b 555 477 534 300 555 386 b 549 568 555 507 553 537 b 497 802 537 661 521 746 b 559 871 510 850 530 871 b 654 775 593 871 627 836 b 699 621 673 730 690 675 l 699 622 b 714 443 709 559 714 498 b 642 123 714 318 692 215 b 503 175 598 148 551 168 b 379 19 459 132 417 82 l 440 -15 b 484 23 459 8 472 23 b 536 -1 495 23 512 15 b 597 -30 566 -20 586 -30 b 624 -20 607 -30 617 -26 l 672 27 l 672 26 b 865 552 800 175 865 352 b 836 769 865 622 856 694 b 947 851 859 821 897 851 b 990 846 960 851 973 850 b 1079 668 1050 832 1079 773 b 1079 652 1079 666 1080 665 b 933 494 994 604 946 550 l 933 96 b 935 89 933 94 935 90 b 956 46 944 65 951 51 b 993 16 962 40 973 30 l 1066 -33 l 1096 -33 "},"C":{"x_min":36.75,"x_max":849.328125,"ha":871,"o":"m 310 971 l 322 983 b 89 793 217 978 138 912 b 36 496 54 711 36 607 b 132 182 36 379 69 272 b 398 -6 194 96 295 25 b 567 -30 451 -22 513 -30 b 672 -19 602 -30 639 -26 l 849 143 l 809 197 b 607 139 743 158 676 139 b 490 151 575 139 536 141 l 613 326 b 460 736 613 368 563 502 b 468 771 460 747 462 759 b 537 830 498 808 524 827 l 692 775 l 729 775 l 847 943 l 779 989 b 739 928 770 972 749 946 b 736 926 736 926 736 926 l 571 987 l 484 898 b 325 986 454 941 398 975 l 310 971 m 343 896 b 420 833 381 897 412 868 l 300 698 b 451 321 348 579 404 439 b 451 251 458 304 458 279 b 409 172 446 225 432 201 b 236 330 333 201 276 257 b 182 565 200 398 182 477 b 231 798 182 654 200 732 l 231 797 b 343 896 264 862 300 894 "},"!":{"x_min":46.28125,"x_max":276.671875,"ha":360,"o":"m 194 266 b 249 829 216 427 236 613 b 217 902 250 859 240 883 l 217 901 b 159 927 198 919 178 927 b 65 830 102 927 63 886 b 126 290 69 672 91 490 b 168 266 137 268 151 262 l 194 266 m 259 36 b 258 106 283 59 281 83 b 216 130 236 118 223 125 b 197 175 206 138 201 154 b 119 168 166 190 138 188 b 46 101 107 136 83 113 b 59 33 46 69 50 47 b 140 -38 95 19 121 -4 b 197 -22 166 -38 186 -33 b 253 31 216 9 236 27 l 259 36 "},"ç":{"x_min":39,"x_max":421.375,"ha":410,"o":"m 134 -163 b 151 -173 138 -167 145 -170 l 162 -174 l 168 -174 b 202 -159 184 -167 195 -163 b 100 -248 199 -189 165 -219 l 138 -308 b 263 -241 185 -291 229 -266 b 332 -127 308 -205 332 -166 b 290 -55 332 -103 319 -78 b 281 -51 286 -53 281 -51 b 271 -49 279 -51 273 -49 l 275 -51 b 256 -46 270 -49 263 -46 l 249 -46 l 274 11 l 260 11 l 413 151 l 346 193 b 260 125 322 172 286 147 b 247 123 255 123 249 123 b 194 164 229 123 198 147 b 175 355 181 204 175 267 b 185 517 175 417 177 472 b 202 530 189 519 198 528 l 271 476 l 305 476 l 421 573 l 361 622 b 339 605 349 614 341 608 l 271 662 l 230 662 l 49 496 b 39 439 41 457 39 439 l 39 196 b 67 76 39 153 48 111 b 153 -3 86 40 119 12 l 153 -14 b 168 -30 157 -19 161 -24 l 111 -156 l 134 -163 "},"È":{"x_min":-0.40625,"x_max":653.15625,"ha":694,"o":"m 480 334 b 521 359 502 334 513 338 l 533 394 b 498 435 537 415 527 435 l 254 435 l 254 469 l 254 488 l 526 488 b 567 513 548 488 559 492 l 581 551 b 544 588 586 572 574 588 l 258 588 b 409 849 269 729 315 849 b 555 677 502 849 529 760 b 600 640 570 642 572 631 b 617 649 605 642 621 651 b 642 692 643 660 646 669 l 642 691 b 630 876 638 727 630 852 b 590 923 630 920 627 923 b 551 898 566 923 559 922 l 551 899 b 548 892 549 897 549 895 b 410 951 518 920 477 951 b 101 588 233 951 133 765 l 52 588 b 12 554 39 588 24 583 b 9 544 10 548 10 548 l 3 531 b 42 488 -5 495 12 488 l 91 488 b 91 480 89 477 91 485 l 91 435 l 48 435 b 13 410 33 435 22 431 l 3 384 b 36 334 -8 341 6 334 l 99 334 b 410 -20 127 149 216 -20 b 553 42 480 -20 530 20 b 560 24 560 31 556 34 b 600 0 568 4 575 0 b 639 47 631 0 639 5 b 653 229 639 73 649 191 b 623 273 653 245 653 263 b 615 273 621 273 616 273 b 605 276 615 273 615 273 b 563 238 591 277 578 280 b 421 85 542 163 507 85 b 263 334 326 85 278 190 l 480 334 "},"{":{"x_min":-36.5,"x_max":415.390625,"ha":460,"o":"m 415 931 l 363 931 b 205 920 303 931 250 929 b 109 823 152 902 120 869 l 109 501 b 88 436 109 472 102 450 b 37 415 79 426 61 419 b 2 412 26 413 11 413 b -32 409 -7 411 -20 409 l -36 384 b 91 334 35 365 79 347 b 117 250 109 318 117 290 l 118 -37 b 167 -112 124 -66 141 -88 b 318 -158 203 -141 252 -158 l 336 -158 b 351 -156 343 -156 347 -156 l 404 -148 l 404 -79 l 375 -79 b 359 -81 365 -80 355 -81 l 339 -81 b 329 -80 336 -81 333 -81 b 317 -79 324 -80 321 -80 b 294 -59 307 -73 299 -66 b 277 -26 286 -52 280 -38 l 277 256 b 254 340 277 288 269 316 b 212 387 241 358 227 373 b 276 504 245 420 265 458 l 276 819 b 291 838 279 825 284 833 l 290 837 b 409 863 318 854 356 862 l 409 920 l 403 920 l 415 931 "},"X":{"x_min":-21.78125,"x_max":796.25,"ha":794,"o":"m 688 770 l 796 884 l 740 930 b 709 919 725 919 715 916 b 672 944 696 927 683 935 b 622 979 654 956 635 970 l 578 977 b 432 840 507 926 461 884 b 338 945 409 888 375 923 b 171 979 300 967 240 979 l 16 787 l 77 747 b 187 830 127 795 164 823 b 217 836 200 834 209 836 b 317 604 283 836 317 758 l 317 562 l 167 562 l 95 323 l 171 320 b 273 423 198 376 235 411 l 314 423 b 304 256 313 340 308 283 b 249 119 296 183 276 137 l 147 177 l 100 177 l -21 36 l 28 -13 b 78 23 53 4 70 18 b 138 -5 91 20 110 9 b 202 -25 164 -19 186 -25 b 291 25 231 -25 261 -8 b 345 101 315 54 332 75 b 415 23 363 68 386 40 b 532 -27 419 20 458 2 l 574 -27 l 781 163 l 724 219 b 562 125 660 156 607 125 b 465 245 511 125 479 169 l 465 423 l 588 420 l 688 641 l 607 638 b 543 562 589 605 566 577 l 465 562 l 465 686 b 491 779 469 712 479 747 b 539 844 509 822 525 844 b 544 842 540 844 543 844 b 559 833 544 842 553 837 b 673 767 620 795 665 770 l 688 770 "},"¼":{"x_min":25,"x_max":894.046875,"ha":933,"o":"m 681 783 l 577 800 l 301 130 l 401 107 l 681 783 m 894 125 l 894 246 l 791 246 l 791 566 l 684 566 b 655 527 676 555 664 539 b 544 379 619 479 581 429 b 430 205 472 279 433 222 l 430 125 l 650 125 l 650 65 b 562 73 649 68 590 73 l 562 -16 l 876 -16 l 876 75 b 791 64 823 75 794 75 l 791 125 l 894 125 m 408 348 l 408 437 b 324 439 365 437 340 436 b 323 439 323 439 323 439 l 323 440 l 323 929 l 226 929 l 25 766 l 97 705 b 177 765 120 722 148 746 l 177 441 b 90 452 121 439 108 443 l 90 348 l 408 348 m 650 350 l 650 244 l 568 244 l 650 350 "},"#":{"x_min":-1.515625,"x_max":940.375,"ha":996,"o":"m 647 481 l 763 576 l 702 626 b 680 610 691 616 684 613 l 610 664 l 571 664 l 391 501 b 382 434 385 467 382 444 l 380 200 b 410 87 390 147 400 110 b 495 7 427 50 455 22 l 495 -3 b 541 -35 504 -17 519 -30 l 757 158 l 689 201 b 604 135 664 182 631 155 b 594 133 600 133 597 133 b 533 177 568 133 548 150 b 518 361 522 236 518 298 b 529 520 518 411 521 466 b 542 534 534 526 537 528 l 613 481 l 647 481 m 168 -16 b 217 -37 176 -23 194 -31 l 394 121 l 349 183 b 262 114 325 162 289 134 b 221 139 238 122 221 130 b 297 266 250 168 277 214 b 336 438 323 326 336 386 b 189 630 336 545 287 610 l 189 631 b 167 656 184 644 176 652 l 140 669 l -1 519 b 10 501 9 503 9 502 b 14 491 13 497 14 491 b 43 477 21 483 32 477 b 86 495 57 477 73 484 b 221 355 179 477 221 431 b 175 225 221 311 206 268 b 54 122 142 178 101 143 b 43 86 47 100 43 87 l 43 67 l 155 6 b 168 -16 153 -2 157 -10 m 787 151 b 786 147 786 147 787 148 b 766 122 783 141 775 132 l 767 122 l 755 115 b 711 87 738 104 721 93 b 729 33 711 60 718 46 b 741 28 732 32 738 29 b 760 19 748 25 755 22 l 759 19 b 790 -28 782 7 785 3 l 866 -28 b 868 4 866 -16 866 -2 b 887 18 875 11 881 17 l 940 47 l 940 92 b 910 110 924 107 918 108 b 861 172 887 115 868 139 l 787 172 l 787 151 "},")":{"x_min":-20.765625,"x_max":295.359375,"ha":360,"o":"m 17 -178 b 234 83 126 -75 197 10 b 295 409 276 165 295 273 b 212 705 295 508 268 606 b -19 971 159 800 81 890 l -19 914 b -20 902 -21 909 -20 907 l -20 890 b -13 864 -20 880 -19 872 b 36 802 5 840 23 818 b 171 412 123 688 171 556 b 10 -71 171 197 118 35 b -13 -98 1 -80 -6 -89 b -19 -122 -16 -108 -19 -114 b -20 -132 -20 -123 -20 -129 l -20 -146 b -16 -162 -20 -148 -20 -153 l 17 -178 "},"Å":{"x_min":9.546875,"x_max":895.25,"ha":922,"o":"m 454 1010 b 549 1052 490 1010 519 1023 b 594 1146 581 1080 594 1111 l 594 1154 b 454 1296 594 1241 541 1296 b 309 1153 371 1296 309 1236 l 309 1146 b 449 1010 309 1073 377 1010 l 454 1010 m 650 -20 l 719 -34 l 895 158 b 840 212 883 180 863 198 b 786 176 802 189 783 176 b 783 184 786 176 785 179 l 785 180 l 785 778 b 808 864 785 814 791 842 b 853 906 814 874 831 888 b 884 953 874 921 885 938 l 884 987 b 683 887 791 990 725 956 l 664 931 l 602 893 b 621 787 608 864 616 819 l 621 253 b 615 239 620 250 616 243 b 437 134 558 193 499 159 l 439 136 b 408 130 428 134 419 132 b 280 229 358 161 319 190 l 374 280 b 517 430 439 332 485 383 b 578 633 556 493 578 561 b 509 871 578 727 553 806 b 287 984 454 948 381 984 l 281 984 b 84 884 204 984 136 951 b 13 671 39 824 13 753 b 83 466 13 590 39 522 b 302 375 134 403 211 372 l 310 447 b 103 644 183 471 103 543 b 106 675 103 653 104 667 b 168 786 111 724 133 762 b 284 817 201 810 239 819 b 426 635 360 812 407 751 b 430 592 428 621 430 607 b 370 403 430 521 405 453 b 211 286 333 358 276 316 b 9 211 205 283 130 255 l 32 133 b 93 150 59 144 80 150 b 122 141 103 150 111 147 l 121 143 b 257 32 167 105 211 70 l 239 7 l 288 -36 b 621 144 396 20 513 86 b 668 20 627 104 642 65 b 650 -20 665 12 658 -1 m 498 1149 b 449 1103 498 1120 481 1104 l 443 1103 l 438 1104 b 402 1151 423 1104 407 1126 b 449 1197 402 1173 419 1189 b 498 1149 481 1194 498 1178 "},"ø":{"x_min":29.640625,"x_max":520.046875,"ha":561,"o":"m 356 45 b 509 337 458 155 509 251 b 442 518 509 391 487 449 l 520 659 l 447 696 b 390 600 431 666 408 632 b 389 601 389 601 389 600 b 394 622 394 609 394 614 b 366 677 394 634 383 652 l 51 543 b 60 327 58 459 60 388 b 55 155 60 267 59 212 b 29 98 39 137 29 119 b 39 53 29 88 32 76 b 75 44 51 52 62 48 l 31 -42 l 103 -74 b 160 14 120 -47 142 -14 b 232 -33 195 3 219 -12 l 251 -33 b 356 45 272 -33 306 -7 m 247 533 b 300 440 263 505 285 466 b 198 259 265 379 232 319 l 198 515 l 247 533 m 352 351 b 379 255 370 315 379 281 b 303 102 379 198 355 149 l 302 101 b 229 134 276 113 257 121 l 352 351 "},"}":{"x_min":12.015625,"x_max":461.1875,"ha":460,"o":"m 160 330 b 139 279 148 312 142 295 l 139 -40 b 107 -73 133 -61 123 -72 b 100 -76 104 -75 100 -76 b 100 -77 99 -77 100 -77 l 90 -80 l 78 -80 b 69 -81 74 -81 70 -81 b 12 -70 65 -81 43 -77 l 21 -148 b 103 -154 58 -152 84 -154 l 134 -154 b 163 -151 142 -154 152 -152 b 285 -94 227 -151 266 -131 b 304 -48 295 -70 303 -52 b 306 37 304 -30 304 1 b 307 120 307 75 307 102 b 306 268 307 163 307 225 b 322 326 308 291 314 309 l 321 325 b 376 362 334 343 352 355 b 459 369 379 363 408 366 l 461 395 b 327 440 395 413 348 429 b 314 476 321 447 316 461 b 308 523 311 493 308 509 l 308 780 b 254 902 308 838 289 880 b 89 934 210 925 156 934 l 56 934 b 12 933 41 933 22 933 l 12 859 l 48 859 b 76 858 56 859 66 859 b 95 855 81 858 88 855 b 104 854 99 851 101 854 l 105 854 b 145 786 130 840 145 816 l 145 502 b 160 451 146 483 152 466 b 228 388 178 426 201 404 b 160 330 199 373 175 352 "},"‰":{"x_min":99.359375,"x_max":1625.171875,"ha":1764,"o":"m 1396 -50 b 1562 26 1463 -50 1520 -23 b 1625 201 1604 76 1625 134 b 1566 356 1625 263 1604 315 b 1385 425 1524 402 1464 425 b 1216 351 1320 425 1264 401 b 1150 188 1173 302 1150 250 l 1150 183 b 1385 -50 1154 33 1233 -44 l 1396 -50 m 416 -47 l 937 966 l 833 966 l 307 -47 l 416 -47 m 345 459 b 511 536 412 459 468 484 b 573 711 553 584 573 643 b 515 863 573 772 552 823 b 334 933 472 909 412 933 b 166 859 269 933 213 909 b 99 697 121 812 99 758 l 99 691 b 334 459 103 543 181 465 l 345 459 m 1389 338 b 1459 295 1418 338 1442 325 b 1487 187 1478 265 1487 229 b 1459 77 1487 143 1478 106 b 1385 30 1441 45 1416 30 b 1310 76 1354 30 1327 45 b 1288 166 1297 101 1288 131 l 1288 183 b 1310 297 1291 236 1299 272 l 1310 295 b 1389 338 1324 325 1350 337 m 338 848 b 408 804 367 848 390 833 b 435 694 426 775 435 738 b 408 584 435 652 426 615 b 334 540 389 554 364 540 b 258 584 303 540 276 554 b 238 676 246 611 238 641 l 238 691 b 258 804 240 745 249 781 l 258 802 b 338 848 273 831 298 847 m 916 -50 b 1082 26 982 -50 1039 -23 b 1143 201 1124 76 1143 134 b 1086 356 1143 263 1124 315 b 905 425 1043 402 984 425 b 736 351 839 425 784 401 b 669 188 692 302 669 250 l 669 183 b 905 -50 673 33 752 -44 l 916 -50 m 909 338 b 978 295 937 338 962 325 b 1005 187 997 265 1005 229 b 978 77 1005 143 997 106 b 905 30 960 45 936 30 b 830 76 873 30 846 45 b 808 166 816 101 808 131 l 808 183 b 830 297 811 236 819 272 l 830 295 b 909 338 843 325 868 337 "},"Ä":{"x_min":9.390625,"x_max":895.25,"ha":922,"o":"m 478 1213 l 417 1010 l 493 1013 b 593 1121 523 1038 560 1078 b 619 1171 606 1142 617 1158 b 620 1182 620 1173 620 1179 l 620 1190 b 619 1201 620 1194 620 1197 b 606 1227 617 1209 613 1219 b 536 1265 585 1242 562 1255 l 536 1253 b 478 1213 517 1252 496 1238 m 323 1229 l 325 1229 b 302 1180 311 1216 302 1200 l 281 1015 l 351 1015 l 440 1143 b 462 1219 448 1158 453 1169 b 453 1189 462 1219 454 1207 l 453 1197 b 449 1216 453 1205 451 1209 b 395 1258 436 1241 417 1258 l 380 1258 b 368 1256 376 1258 374 1258 b 323 1229 346 1247 331 1238 m 650 -20 l 719 -34 l 895 158 b 840 212 883 180 863 198 b 786 176 802 189 783 176 b 783 184 786 176 785 179 l 785 180 l 785 776 b 808 863 785 813 791 840 b 853 906 816 872 831 889 b 884 952 873 920 884 935 l 884 987 b 683 887 791 990 725 956 l 664 930 l 602 893 b 621 786 608 864 616 818 l 621 252 b 615 239 620 250 616 243 b 436 134 557 193 499 159 l 439 136 b 408 130 428 134 419 132 b 280 229 357 161 319 190 l 374 280 b 517 430 439 332 485 383 b 578 633 556 493 578 561 b 508 871 578 728 553 807 b 287 983 454 947 380 983 l 281 983 b 84 884 202 983 135 951 b 13 671 37 824 13 754 b 82 466 13 590 39 522 b 302 376 134 402 208 370 l 310 447 b 103 644 183 471 103 541 b 106 675 103 652 104 666 b 168 786 111 723 133 762 b 284 816 201 809 239 819 b 425 634 360 812 406 751 b 429 590 428 621 429 605 b 208 284 429 437 344 347 b 69 232 204 280 156 264 b 9 211 55 226 25 218 l 32 133 b 93 150 59 144 80 150 b 122 141 103 150 111 147 l 121 143 b 257 32 167 105 210 70 l 239 7 l 288 -36 b 621 144 395 20 513 86 b 668 20 627 104 642 65 b 650 -20 665 12 658 -1 "},"a":{"x_min":29.9375,"x_max":601.609375,"ha":617,"o":"m 472 -36 l 601 112 l 539 158 b 509 122 524 134 514 122 b 487 158 495 124 487 138 l 487 460 b 496 483 487 472 488 478 b 525 522 515 495 525 508 b 515 552 525 530 521 540 b 336 649 450 578 389 612 b 269 659 318 655 298 659 b 246 640 262 653 251 645 b 80 465 179 580 111 522 b 29 316 59 426 40 376 b 57 140 29 241 39 181 b 141 10 69 116 95 73 l 127 -3 l 182 -53 b 349 88 236 -7 295 44 b 412 6 359 53 379 28 b 415 0 412 5 413 1 b 419 -11 416 -3 417 -7 b 460 -40 427 -25 441 -34 l 472 -36 m 349 467 l 349 188 b 255 119 317 163 288 142 b 164 317 204 172 172 237 b 246 527 164 409 191 477 l 349 467 "},"—":{"x_min":-4.078125,"x_max":958.21875,"ha":1106,"o":"m -4 529 l 958 529 l 958 637 l -4 637 l -4 529 "},"=":{"x_min":136.109375,"x_max":654.703125,"ha":844,"o":"m 136 444 l 654 444 l 654 562 l 136 562 l 136 444 m 136 241 l 654 241 l 654 358 l 136 358 l 136 241 "},"N":{"x_min":-9.453125,"x_max":978.359375,"ha":999,"o":"m 820 -23 l 978 114 l 915 166 b 854 116 884 134 862 118 b 805 189 825 109 809 133 b 795 357 798 244 795 301 b 805 529 795 412 798 471 l 805 526 b 850 593 812 557 828 579 b 957 622 868 605 906 615 l 957 691 b 936 697 948 694 941 696 l 936 801 b 859 933 936 855 910 900 l 861 933 b 702 979 817 964 763 979 b 657 976 685 979 670 977 b 497 848 583 966 531 925 b 262 979 448 932 364 980 b 93 921 197 977 138 957 b -4 682 31 871 -2 789 b 229 404 -4 546 80 441 l 254 473 b 78 682 137 525 78 594 b 122 790 78 727 93 765 b 217 827 146 816 179 827 b 312 796 253 827 284 818 b 379 693 344 772 365 737 b 419 397 406 602 419 504 b 370 129 419 286 401 194 b 269 48 342 78 307 48 b 182 101 221 48 182 72 b 205 148 182 115 190 130 b 151 198 191 172 172 189 b 77 176 108 183 84 176 b 31 193 68 176 51 182 l -9 133 b 15 22 12 104 21 65 b 68 -20 27 -6 46 -20 b 108 -9 81 -13 95 -10 b 253 -28 172 -23 223 -28 b 510 159 363 -28 450 36 b 570 472 548 243 570 352 b 542 746 570 555 561 648 b 668 854 563 816 604 854 b 791 721 741 854 782 809 b 793 655 793 708 793 689 b 672 561 753 632 710 600 b 646 496 657 522 647 500 b 633 286 638 425 633 355 b 662 46 633 189 644 111 b 759 -24 702 36 733 12 b 819 -23 781 -34 802 -35 l 820 -23 "},"ú":{"x_min":21.9375,"x_max":570.328125,"ha":567,"o":"m 172 783 b 21 559 138 681 88 606 l 21 497 l 85 497 l 85 115 b 58 88 79 104 66 95 b 49 62 51 81 49 72 b 66 30 49 52 55 40 b 145 0 111 19 134 11 b 147 -5 145 -1 145 -4 l 151 -16 b 47 -119 91 -27 47 -63 b 109 -215 47 -158 68 -191 b 231 -244 143 -234 183 -244 b 348 -206 277 -244 317 -231 b 328 -169 334 -184 328 -172 l 319 -156 b 549 -29 445 -122 522 -81 b 570 51 563 -5 570 22 b 431 298 570 122 524 202 b 534 491 496 358 534 425 b 500 586 534 523 521 558 b 436 638 483 608 460 626 b 390 687 435 663 420 676 b 227 611 338 663 279 634 b 226 645 227 629 226 627 l 264 808 l 172 808 l 172 783 m 232 -8 b 247 5 236 -4 243 1 l 359 101 l 289 158 b 239 115 270 129 253 116 b 226 127 236 116 230 122 l 226 506 b 309 547 266 529 294 541 b 368 508 332 545 352 533 b 392 427 383 486 392 458 b 255 273 392 370 347 319 l 264 227 b 280 213 269 225 270 223 b 343 165 306 193 330 175 b 408 104 371 144 396 119 b 426 22 420 83 428 51 b 333 -59 423 -8 393 -36 b 226 -13 304 -34 269 -18 b 232 -8 227 -12 230 -9 m 163 -137 b 174 -136 164 -136 168 -136 b 224 -155 186 -136 202 -141 b 163 -137 192 -154 166 -145 "},"2":{"x_min":2.71875,"x_max":638.359375,"ha":717,"o":"m 566 -4 l 638 247 l 570 259 b 519 170 555 226 537 195 b 485 136 502 148 491 136 l 484 137 l 216 137 b 366 281 274 193 322 240 b 515 426 435 348 485 395 b 605 618 560 472 592 543 b 609 666 608 633 609 651 b 524 854 609 743 581 805 b 333 920 469 898 406 920 b 136 844 255 920 190 894 b 27 591 76 788 38 704 l 102 588 b 285 772 129 700 197 772 b 453 611 383 772 454 709 b 368 413 451 540 423 473 b 53 84 194 230 88 120 l 2 -4 l 566 -4 "},"ü":{"x_min":-1.4375,"x_max":585,"ha":617,"o":"m 372 923 l 384 935 b 315 894 346 933 325 920 l 259 694 l 332 697 b 408 774 357 720 385 748 b 457 865 440 813 457 842 b 390 940 457 899 435 926 l 372 923 m 185 920 l 193 931 b 131 823 161 917 140 881 b 123 700 130 787 126 734 l 191 700 l 285 834 b 287 841 285 834 285 838 b 285 840 287 840 285 840 b 287 842 285 841 285 841 l 287 841 l 287 842 b 293 870 291 854 293 860 b 232 940 293 898 265 940 l 220 940 b 197 937 210 940 205 938 l 185 920 m 442 -39 l 585 113 l 533 179 b 499 126 515 149 504 131 l 499 491 b 506 515 499 498 500 506 b 533 529 515 520 525 526 b 544 558 541 541 544 551 b 537 587 544 568 542 579 b 495 612 516 597 503 605 b 482 629 495 611 488 620 b 467 651 478 634 473 644 b 431 665 454 661 442 665 b 401 658 424 665 413 662 l 382 640 l 382 641 b 361 618 374 634 367 626 b 331 591 349 608 340 599 b 318 580 329 588 326 586 b 314 565 314 573 314 568 b 323 533 314 555 318 544 b 358 511 347 518 358 511 l 358 201 b 257 122 306 149 270 122 b 219 145 242 122 228 130 l 219 586 b 193 601 212 590 198 598 l 176 609 b 175 616 176 612 175 613 b 121 679 171 638 168 656 l -1 536 b 62 486 13 512 33 495 b 78 501 67 493 73 497 b 84 481 80 497 84 486 l 84 129 b 57 94 84 122 74 109 b 48 62 51 86 48 74 l 48 36 b 156 -19 114 23 151 4 b 190 -34 167 -29 179 -34 l 202 -34 b 360 97 258 16 314 61 l 360 17 b 394 -20 390 12 394 5 l 442 -39 "},"Z":{"x_min":4.03125,"x_max":669.671875,"ha":744,"o":"m 111 546 b 49 518 69 547 49 537 b 127 431 49 503 80 461 b 25 294 91 406 53 357 b 137 286 66 281 104 278 b 219 361 147 336 174 361 b 430 275 288 361 357 332 b 532 86 502 218 536 151 b 480 -27 526 44 509 7 l 480 -25 b 375 -81 449 -63 415 -81 b 255 31 332 -81 292 -44 b 246 32 254 31 249 32 b 232 33 243 33 235 33 b 186 8 212 33 197 25 b 69 -35 119 -19 87 -32 b 4 -137 25 -49 4 -84 b 59 -269 4 -188 23 -230 b 119 -223 88 -262 106 -248 b 85 -148 98 -192 85 -167 b 125 -106 85 -124 98 -112 b 179 -139 137 -103 155 -116 l 178 -139 b 238 -205 194 -160 219 -184 b 272 -198 250 -205 261 -203 b 375 -171 306 -182 341 -173 b 568 -78 447 -164 511 -132 b 669 114 626 -24 657 39 b 465 453 669 283 602 397 b 628 625 543 486 600 550 b 642 710 637 653 642 683 b 588 864 642 762 623 817 b 322 981 530 940 439 981 l 315 981 b 112 914 238 981 170 960 b 9 697 50 864 17 790 l 87 689 b 288 867 106 801 183 871 b 421 806 340 864 383 843 b 480 674 460 767 480 722 b 409 540 480 621 455 575 b 258 490 366 507 315 490 b 125 546 201 490 156 510 l 111 546 "},"u":{"x_min":-1.203125,"x_max":585.453125,"ha":617,"o":"m 447 -33 l 585 113 l 532 174 b 499 125 514 145 505 127 l 499 484 b 533 523 502 506 505 507 b 535 580 544 541 544 559 b 458 656 507 594 482 619 b 439 659 450 656 443 656 b 404 659 427 663 412 662 b 360 614 397 657 381 639 b 315 578 349 605 333 589 l 315 562 b 322 527 315 546 317 535 b 358 500 340 513 354 506 l 358 198 b 322 166 345 187 337 178 b 257 120 288 135 268 120 b 219 142 242 120 228 128 l 219 571 b 189 609 213 578 204 592 b 166 637 178 619 171 628 b 149 656 162 646 158 650 l 121 669 l -1 528 b 62 478 13 505 34 488 b 79 494 70 489 76 494 b 84 464 83 494 84 482 l 84 410 l 83 138 b 57 92 83 116 81 113 b 49 62 51 84 49 73 l 49 35 b 159 -29 114 23 151 0 b 204 -35 177 -33 194 -35 b 360 96 269 23 315 63 l 360 20 b 396 0 374 13 388 7 l 405 -15 b 398 -17 403 -18 400 -18 b 418 -31 403 -21 408 -26 l 420 -31 l 434 -36 l 447 -33 m 396 -12 b 398 -17 396 -14 397 -15 b 396 -12 397 -15 396 -14 m 394 -8 b 396 -12 394 -10 394 -11 b 394 -8 394 -11 394 -10 "},"˜":{"x_min":-27.21875,"x_max":405.609375,"ha":383,"o":"m 285 855 l 137 906 l 145 913 l 114 915 l 87 925 l 87 912 b 61 898 77 909 69 904 b -27 781 25 869 -2 827 b 23 752 -12 760 5 752 b 50 766 40 752 46 755 l 78 794 l 84 794 b 209 749 125 780 168 763 b 210 748 209 748 209 749 b 221 741 213 744 216 741 b 250 733 243 733 243 733 l 262 733 b 308 758 283 733 298 742 b 405 877 340 788 372 824 l 326 901 b 296 856 313 879 302 862 b 285 855 292 855 289 855 "},"Ó":{"x_min":20.234375,"x_max":679.5,"ha":726,"o":"m 604 486 b 679 559 653 486 679 513 b 588 656 679 623 645 656 b 469 602 554 656 506 634 b 460 595 465 600 463 597 b 310 637 414 626 372 637 b 141 581 245 637 188 619 b 62 418 93 543 62 486 b 134 258 62 352 86 297 b 46 123 65 230 46 183 b 101 13 46 69 48 38 b 20 -104 42 -15 20 -52 b 285 -251 20 -202 108 -251 b 611 -34 501 -251 611 -179 b 401 136 611 86 550 136 l 242 133 l 230 133 b 165 159 188 133 165 141 b 198 187 165 173 176 181 b 278 193 213 191 238 193 b 464 243 350 193 415 211 b 557 418 521 281 557 344 b 524 538 557 466 551 501 b 529 540 527 540 529 540 l 531 541 l 532 538 b 535 534 533 537 533 536 b 604 486 548 504 573 486 m 522 540 l 522 541 l 522 540 m 310 545 b 410 412 380 545 410 504 b 309 277 410 320 381 277 b 208 412 238 277 208 323 b 310 545 208 502 241 545 m 381 -8 b 487 -70 455 -8 487 -26 b 293 -158 487 -127 422 -158 b 155 -90 202 -158 155 -134 b 236 -8 155 -48 191 -20 l 381 -8 "},"k":{"x_min":22.828125,"x_max":374.03125,"ha":336,"o":"m 374 873 b 330 943 345 891 333 913 b 142 863 241 943 177 917 b 96 903 133 875 118 886 l 51 853 b 84 800 67 834 77 818 l 84 696 l 22 696 l 22 613 l 84 613 l 84 158 b 37 96 84 139 69 120 b 52 42 37 74 43 56 b 146 -22 96 31 126 10 b 203 -22 164 -31 183 -32 b 314 108 235 21 271 65 l 258 158 b 221 127 241 138 228 127 b 220 129 221 127 221 127 l 220 613 l 337 613 l 329 707 l 340 713 b 340 841 338 799 337 821 l 340 839 b 341 868 341 846 341 857 b 374 873 352 870 361 871 m 297 859 b 248 828 284 832 267 823 b 297 859 259 841 277 852 m 284 711 b 314 713 293 714 318 703 b 284 711 305 734 295 732 m 297 859 b 300 860 299 859 299 860 b 297 859 299 860 299 859 "},"Ù":{"x_min":22.59375,"x_max":1317.203125,"ha":1374,"o":"m 1317 555 b 1226 655 1317 622 1284 655 b 1108 598 1191 655 1145 630 b 1099 590 1104 596 1102 593 b 950 633 1053 621 1007 633 b 779 578 882 633 825 616 b 701 413 731 539 701 482 b 771 252 701 347 720 292 b 684 120 705 224 684 179 b 739 9 684 65 686 34 b 658 -108 680 -20 658 -58 b 923 -255 658 -207 747 -255 b 1249 -39 1140 -255 1249 -183 b 1040 133 1249 81 1189 133 b 999 131 1028 131 1013 131 b 957 130 986 131 969 130 b 916 129 945 130 930 129 l 868 129 b 803 156 826 129 803 137 b 835 184 803 169 814 179 b 915 190 850 188 875 190 b 1106 240 991 190 1055 205 l 1104 238 b 1196 413 1163 276 1196 336 b 1164 532 1196 463 1193 493 b 1170 536 1167 533 1167 534 b 1174 529 1171 533 1172 530 b 1242 482 1189 497 1209 482 b 1317 555 1291 482 1317 509 m 1048 409 b 949 274 1048 318 1018 274 b 848 409 876 274 848 320 b 950 541 848 498 879 541 b 1048 409 1018 541 1048 501 m 1124 -73 b 931 -162 1124 -132 1059 -162 b 794 -94 841 -162 794 -139 b 874 -12 794 -52 829 -25 l 1020 -12 b 1124 -73 1093 -12 1124 -30 m 718 0 l 718 92 b 598 149 666 97 621 119 b 425 401 542 233 484 318 l 473 448 b 666 544 534 514 599 544 l 667 635 l 326 635 l 326 544 l 386 544 b 418 541 402 544 414 543 b 422 544 420 540 421 543 b 414 530 421 540 418 535 b 326 441 387 501 357 472 b 288 401 316 429 298 413 l 270 383 l 270 990 l 22 973 l 22 883 l 63 883 b 68 885 66 883 67 885 l 78 885 b 121 853 112 885 121 878 l 121 124 b 104 95 121 104 117 97 l 29 94 l 29 0 l 362 0 l 362 94 l 332 94 b 315 95 326 94 319 95 l 290 95 b 270 124 274 97 270 104 l 270 251 b 312 292 283 263 300 279 l 317 299 b 380 206 343 263 358 240 b 441 116 402 176 420 147 b 451 101 443 106 444 104 b 452 97 451 98 451 98 l 452 95 l 430 95 l 375 94 l 375 0 l 718 0 "},"Ÿ":{"x_min":-16.3125,"x_max":907.796875,"ha":999,"o":"m 472 1219 l 413 1012 l 487 1015 b 563 1095 510 1033 537 1062 b 613 1186 594 1134 613 1166 b 612 1212 613 1188 613 1200 b 529 1271 601 1232 574 1252 l 529 1258 b 472 1219 510 1257 491 1243 m 386 1268 b 370 1262 381 1266 375 1264 l 363 1262 l 352 1252 b 285 1145 317 1232 294 1195 b 274 1017 281 1108 277 1055 l 345 1017 b 434 1148 372 1059 405 1106 b 446 1195 442 1161 446 1176 b 390 1262 446 1222 423 1262 l 383 1262 l 386 1268 m 680 972 b 503 802 624 922 568 870 b 416 920 484 847 453 888 b 261 983 367 962 315 983 b 66 895 187 983 122 954 b -16 695 10 837 -16 771 b 10 549 -16 638 -4 584 b 245 409 55 468 134 416 l 258 484 b 72 674 141 499 72 574 b 219 830 72 766 130 830 b 276 812 235 830 253 823 b 406 507 363 760 406 659 b 402 436 406 481 405 457 l 402 438 b 308 283 394 374 362 322 b 122 217 264 250 201 228 l 130 140 b 216 143 153 140 191 143 b 367 33 291 97 338 64 l 348 7 l 401 -39 l 638 103 l 587 168 b 521 135 551 146 529 135 b 494 142 509 135 499 136 b 389 229 460 171 423 201 b 500 382 439 265 472 317 b 543 584 529 448 543 518 b 532 709 543 628 540 671 b 609 805 549 739 585 778 b 695 650 662 709 696 646 b 740 513 717 589 732 545 b 753 384 749 484 753 441 b 734 228 753 335 747 283 l 734 229 b 713 153 726 204 719 178 b 691 75 706 128 698 100 b 675 37 690 68 684 54 b 563 -94 647 -9 612 -53 b 419 -164 509 -141 460 -164 b 351 -126 377 -164 352 -149 b 357 -83 352 -116 355 -101 b 285 -32 343 -49 317 -32 b 201 -121 235 -32 201 -71 b 277 -231 201 -171 228 -207 b 398 -259 311 -248 358 -259 b 715 -60 499 -259 605 -192 b 743 -27 726 -46 736 -37 b 760 -5 751 -18 756 -10 b 847 145 804 65 832 114 b 891 293 866 179 880 228 b 907 446 902 350 907 402 b 887 610 907 517 900 571 b 745 924 853 716 807 820 l 753 958 l 680 1017 l 680 972 "},"€":{"x_min":39.46875,"x_max":858.859375,"ha":871,"o":"m 321 972 b 91 784 217 966 140 901 b 39 490 57 702 39 599 b 133 180 39 374 72 267 b 397 -7 194 94 294 23 b 563 -30 450 -21 510 -30 b 666 -18 598 -30 634 -26 l 842 141 l 803 194 b 602 137 737 156 671 137 b 485 151 570 137 532 141 b 593 301 522 203 556 249 l 764 301 l 798 417 l 585 417 b 551 505 575 442 564 469 l 824 505 l 858 622 l 503 622 b 473 690 494 645 484 665 b 457 727 469 702 462 716 b 465 760 457 738 460 751 b 533 822 495 798 521 819 l 688 766 l 724 766 l 841 931 l 773 978 b 733 917 763 962 744 934 b 732 915 729 916 732 915 l 567 976 l 481 888 b 323 972 454 937 402 965 l 321 972 m 303 505 l 374 505 b 411 417 385 473 398 448 l 279 417 l 246 309 b 236 327 243 314 239 320 b 182 558 201 394 182 473 b 231 788 182 647 200 723 l 231 788 b 341 886 262 852 299 886 b 417 823 381 886 411 858 l 300 690 b 333 608 311 666 322 633 l 303 505 m 454 301 b 454 287 457 294 454 298 b 451 252 454 276 453 264 b 450 248 451 251 450 249 b 408 169 445 223 430 198 b 250 301 341 194 288 239 l 454 301 m 246 309 l 245 301 l 250 301 l 246 309 "},"¢":{"x_min":51.71875,"x_max":609.78125,"ha":717,"o":"m 400 581 b 447 531 426 576 447 554 l 447 501 b 502 394 447 447 465 412 b 510 393 504 394 507 394 l 518 393 b 604 463 575 393 604 415 b 532 605 604 520 578 569 b 400 659 495 633 453 651 l 400 756 l 325 756 l 325 658 b 170 584 268 647 216 620 b 66 430 117 543 83 491 b 51 297 57 390 51 344 b 57 248 51 281 53 265 b 325 -20 93 84 185 -11 l 325 -156 l 400 -156 l 400 -22 b 609 236 525 -2 600 94 l 532 233 b 400 52 524 136 472 63 l 400 581 m 325 56 b 245 151 289 65 264 95 b 216 313 225 200 216 255 b 232 423 216 341 220 379 b 270 525 245 469 255 504 b 323 572 283 544 299 561 l 325 56 "},"ß":{"x_min":14,"x_max":512.421875,"ha":588,"o":"m 234 587 b 192 772 219 651 207 709 b 246 808 195 794 214 808 b 402 761 263 808 316 791 l 479 905 b 445 930 464 920 453 929 b 441 931 444 930 442 931 l 445 931 b 430 936 437 936 433 936 l 422 936 b 407 930 417 934 412 934 b 283 944 374 938 333 943 b 114 798 205 937 150 890 b 61 594 103 726 86 656 b 26 569 48 588 37 579 b 14 534 18 562 14 550 b 31 500 15 522 19 511 b 79 497 46 500 63 497 b 116 -249 82 238 97 -11 l 189 -249 b 203 -137 193 -216 199 -173 b 278 -143 229 -141 253 -144 b 445 -56 347 -138 403 -109 b 506 122 487 -5 506 54 b 421 308 506 213 477 276 b 511 461 475 370 502 419 b 512 484 512 468 512 476 b 474 604 512 526 498 565 b 369 668 444 647 408 668 l 368 665 l 355 666 b 234 587 316 641 275 613 m 314 525 b 372 477 336 525 355 508 b 385 431 378 463 385 444 b 332 330 385 397 368 363 b 235 270 305 302 274 283 b 239 493 237 350 238 413 b 305 526 268 516 290 526 l 309 526 l 314 525 m 368 58 b 249 -73 368 -13 318 -73 b 212 -68 237 -73 223 -70 b 233 183 219 18 226 98 b 268 193 253 191 254 188 b 278 194 269 193 274 193 b 368 58 331 188 368 122 m 276 195 l 278 194 b 283 197 280 195 282 195 l 276 195 "},"é":{"x_min":19.5,"x_max":578.921875,"ha":583,"o":"m 438 -33 l 578 116 l 524 166 b 482 133 513 158 495 144 b 478 150 479 137 478 144 l 478 487 b 513 515 478 493 490 502 b 521 547 519 527 521 538 b 510 579 521 561 517 570 b 459 606 490 588 471 598 b 231 611 381 608 308 609 b 196 756 208 684 196 734 b 230 795 196 770 205 783 b 293 815 252 808 272 815 b 333 797 308 815 323 808 b 327 755 328 786 327 770 b 411 651 327 686 354 651 b 505 769 475 651 505 690 b 457 891 505 827 489 869 b 321 940 410 923 363 940 b 192 901 274 940 231 927 b 114 790 151 873 124 836 l 76 612 b 34 572 72 593 60 579 b 19 534 26 559 19 547 b 35 500 19 525 24 511 b 84 497 49 500 68 498 b 84 415 83 466 84 447 b 127 -250 84 220 98 -2 l 197 -250 b 238 452 226 -30 238 202 l 238 495 b 339 494 271 493 293 493 b 339 495 339 494 338 495 l 339 494 l 339 493 l 338 48 b 396 -25 365 31 384 9 l 418 -33 l 438 -33 "},"s":{"x_min":20.15625,"x_max":431.46875,"ha":286,"o":"m 367 774 l 431 906 b 379 938 412 928 396 938 b 359 932 372 938 366 935 b 296 944 340 938 319 942 b 111 784 209 949 148 895 l 74 612 b 32 571 70 592 58 578 b 20 525 23 560 19 545 b 31 506 21 513 25 507 l 31 499 b 83 496 44 499 65 498 b 83 414 81 466 83 446 b 125 -250 83 220 96 -3 l 196 -250 b 238 434 224 -25 238 202 b 235 598 238 488 236 542 b 220 648 231 614 224 637 b 213 669 217 653 215 664 b 196 757 202 707 196 738 b 238 807 196 789 209 807 b 347 769 273 807 308 795 l 367 774 "},"B":{"x_min":21.859375,"x_max":1061.96875,"ha":1150,"o":"m 845 29 b 1061 316 989 101 1061 197 b 1055 381 1061 337 1059 360 b 970 521 1042 434 1014 480 b 857 595 935 553 901 576 l 1029 699 b 985 761 1018 729 1003 750 l 944 761 b 894 824 932 772 913 794 b 856 900 871 862 857 887 b 863 925 853 907 857 917 l 870 940 b 818 989 860 962 842 977 b 555 844 733 940 641 892 b 301 983 499 931 403 983 b 254 979 287 983 268 981 b 22 690 115 948 26 836 b 90 496 19 623 43 558 b 277 396 143 430 207 396 b 321 400 290 396 305 398 l 329 473 b 159 544 254 475 199 503 b 109 674 128 580 109 626 b 148 780 109 718 122 752 b 264 827 175 812 215 827 b 418 738 331 827 382 798 b 465 548 449 687 465 623 b 226 272 465 410 385 319 l 227 272 b 166 259 199 265 178 260 b 32 118 96 245 32 183 b 75 30 32 87 47 59 l 126 58 b 114 116 118 90 114 108 b 122 134 114 125 117 130 b 162 148 132 144 145 148 b 200 144 171 148 186 147 l 505 -28 b 680 -23 590 -28 646 -26 b 845 29 736 -16 789 1 m 589 765 b 682 814 618 782 642 794 b 708 815 691 818 702 819 l 706 818 b 807 665 740 765 773 718 b 629 557 751 621 690 585 b 589 765 630 621 616 688 m 627 535 b 629 557 627 542 629 551 l 608 549 l 627 535 m 799 435 b 891 334 842 412 875 377 b 908 259 902 308 908 283 b 815 107 908 195 878 144 l 816 107 b 686 73 765 84 723 73 b 573 101 650 73 614 82 l 574 101 b 355 231 506 143 433 187 b 507 298 430 258 480 280 b 620 461 561 333 597 388 b 637 466 627 463 631 464 b 663 470 630 463 656 468 b 799 435 712 468 757 456 "},"…":{"x_min":62.609375,"x_max":965.03125,"ha":1079,"o":"m 138 159 b 136 150 137 156 136 152 b 62 100 127 129 103 113 l 73 33 b 119 12 91 27 107 19 b 153 -40 134 -6 145 -23 l 171 -40 l 182 -41 b 197 -37 185 -41 189 -41 l 216 -20 b 224 2 217 -13 220 -5 b 285 45 250 18 273 36 l 285 101 b 246 119 259 112 251 116 l 247 119 b 212 181 232 129 220 151 l 138 181 l 138 159 m 477 159 b 475 150 476 156 475 152 b 401 100 466 129 442 113 l 413 33 b 458 12 430 27 447 19 b 492 -40 473 -6 484 -23 l 510 -40 l 521 -41 b 536 -37 524 -41 528 -41 l 555 -20 b 563 2 556 -13 559 -5 b 624 45 589 18 612 36 l 624 101 b 586 119 598 112 590 116 l 588 119 b 552 181 571 129 559 151 l 477 181 l 477 159 m 816 159 b 813 150 815 156 813 152 b 740 100 805 129 781 113 l 752 33 b 797 12 769 27 786 19 b 831 -40 812 -6 824 -23 l 849 -40 l 861 -41 b 875 -37 862 -41 867 -41 l 895 -20 b 902 2 896 -13 898 -5 b 965 45 929 18 951 36 l 965 101 b 925 119 937 112 931 116 l 926 119 b 891 181 910 129 898 151 l 816 181 l 816 159 "},"?":{"x_min":-13.484375,"x_max":411.171875,"ha":433,"o":"m -13 788 l -13 781 b 25 704 -13 752 0 725 b 60 695 40 697 50 695 b 121 719 81 695 102 705 b 152 801 128 754 138 780 b 204 834 167 823 185 834 b 303 737 258 834 303 790 b 257 619 303 700 290 661 l 258 620 b 167 515 228 587 197 550 b 137 443 159 504 149 479 l 138 443 b 119 368 125 404 119 379 b 149 236 119 325 129 281 l 216 229 b 208 306 211 275 208 298 b 266 412 208 333 227 369 b 345 491 292 438 319 466 b 393 579 363 509 378 540 b 411 675 405 615 411 648 b 393 756 411 694 405 720 b 163 922 358 866 280 922 l 137 922 l 134 919 b -13 788 66 909 16 866 m 284 98 b 227 129 256 111 235 122 b 205 184 219 137 209 156 l 152 184 l 134 163 b 109 126 122 147 114 133 b 54 105 98 120 77 111 l 54 31 b 137 -38 91 30 128 -2 l 209 -38 b 221 9 209 -16 215 1 b 275 38 245 22 261 33 l 284 61 l 285 76 l 285 84 l 284 87 l 284 98 "},"H":{"x_min":-44.859375,"x_max":851.765625,"ha":949,"o":"m 668 35 b 851 393 789 119 851 236 b 586 784 851 567 763 696 b 495 743 542 784 511 770 b 329 646 433 716 379 684 b 285 746 315 679 299 716 b 329 839 288 789 300 823 l 470 784 b 616 933 522 821 570 871 l 559 989 b 507 938 531 956 515 938 b 416 973 482 938 452 949 b 371 987 401 981 386 987 b 311 959 345 987 326 976 b 215 838 277 922 240 878 b 137 700 198 813 171 764 l 147 647 b 269 368 182 550 224 454 b 284 309 278 345 284 326 b 232 258 284 274 259 258 b 89 376 189 258 141 297 l -44 274 b 15 220 -35 233 -13 214 l 118 167 b 185 157 137 162 160 157 b 336 212 232 157 282 176 b 429 348 398 255 429 301 b 417 401 429 368 425 384 l 417 398 b 360 560 397 452 379 505 b 495 614 402 596 446 614 b 631 540 545 614 590 587 b 693 387 666 496 689 440 b 695 348 695 373 695 361 b 640 146 695 263 677 197 b 501 60 602 94 556 64 b 390 148 454 84 418 113 b 128 -60 216 123 128 52 b 179 -180 128 -108 144 -147 b 303 -232 213 -215 254 -232 b 459 -98 376 -232 428 -187 l 387 -86 b 303 -151 363 -129 334 -151 b 210 -57 255 -151 210 -105 b 269 19 210 -15 232 17 b 353 -46 301 14 329 -8 b 459 -25 390 -37 432 -30 b 531 -12 504 -18 523 -14 b 665 34 583 5 631 23 l 668 35 "},"c":{"x_min":39.46875,"x_max":421.9375,"ha":410,"o":"m 306 479 l 421 573 l 362 622 b 340 606 349 613 343 609 l 270 662 l 231 662 l 50 498 b 39 431 44 469 40 442 l 39 197 b 68 83 49 144 58 105 b 153 4 85 45 114 19 l 153 -9 b 200 -39 164 -20 178 -32 l 415 156 l 347 198 b 261 130 322 177 287 152 l 253 130 b 193 173 228 130 206 145 b 174 367 179 238 174 304 b 186 517 174 417 178 472 b 202 531 190 520 198 529 l 272 479 l 306 479 "},"¶":{"x_min":55.8125,"x_max":733.640625,"ha":833,"o":"m 239 -122 l 733 -122 l 733 -41 l 650 -41 l 650 831 l 729 831 l 729 916 l 375 916 l 328 913 l 322 913 b 317 915 321 915 318 915 l 303 915 b 152 877 246 915 196 902 b 61 711 99 833 68 777 b 55 655 57 694 55 673 l 55 645 b 58 627 55 641 55 636 l 57 630 b 250 413 69 518 138 436 b 280 411 257 413 270 411 b 338 408 302 408 321 408 l 338 -41 l 239 -41 l 239 -122 m 539 831 l 539 -41 l 450 -41 l 450 831 l 539 831 "},"•":{"x_min":35.390625,"x_max":382.46875,"ha":428,"o":"m 35 529 b 208 354 35 431 111 354 b 382 529 304 354 382 431 b 208 705 382 625 304 705 b 35 529 111 705 35 625 "},"¥":{"x_min":-11.984375,"x_max":1109.578125,"ha":999,"o":"m 676 958 b 503 788 622 908 567 856 b 416 905 483 834 453 873 b 262 966 367 945 317 966 b 71 880 190 966 125 937 b -11 684 16 823 -11 758 b 16 539 -11 624 -2 576 b 246 402 58 456 136 409 l 261 476 b 76 663 144 491 76 566 b 222 817 76 753 133 817 b 277 798 237 817 256 810 b 407 499 365 749 407 648 b 403 430 407 473 405 449 l 403 431 b 310 278 394 370 360 317 b 125 213 265 248 204 224 l 133 138 l 219 138 b 367 33 290 96 337 61 l 350 7 l 401 -41 l 635 99 l 586 164 b 520 132 551 143 529 132 b 494 139 507 132 499 133 b 389 224 457 168 426 193 b 501 375 437 260 469 307 b 542 574 529 441 542 508 b 531 699 542 617 537 662 b 607 791 550 728 578 763 b 693 640 660 696 694 635 b 737 503 713 578 728 535 b 744 471 740 492 743 484 l 589 471 l 567 350 l 750 350 b 746 306 748 332 748 323 l 563 306 l 535 193 l 723 193 b 688 74 710 150 701 118 b 672 36 686 65 680 51 b 562 -92 646 -9 610 -53 b 419 -162 507 -139 460 -162 b 352 -123 374 -162 352 -149 l 358 -84 b 287 -33 341 -51 318 -33 b 204 -121 237 -33 204 -71 b 279 -228 204 -169 230 -205 b 400 -256 313 -245 359 -256 b 712 -59 499 -256 604 -191 b 735 -32 720 -49 728 -41 b 754 -9 744 -20 750 -14 b 844 142 803 68 830 117 b 865 193 849 157 859 174 l 1053 193 l 1083 306 l 891 306 b 898 350 894 321 897 334 l 1087 350 l 1109 471 l 902 471 b 882 599 899 520 893 565 b 743 909 848 703 803 805 l 750 941 l 676 999 l 676 958 "},"(":{"x_min":38.109375,"x_max":357.96875,"ha":360,"o":"m 112 692 b 38 382 62 594 38 490 b 114 71 38 268 65 160 b 355 -212 153 -2 234 -98 l 355 -114 b 212 128 281 -13 234 69 l 212 126 b 164 393 194 175 179 272 b 212 644 166 474 182 565 b 355 869 243 729 291 805 l 357 930 l 332 930 l 319 942 b 112 692 228 871 159 787 "},"U":{"x_min":-12.265625,"x_max":811.203125,"ha":821,"o":"m 574 1 l 567 -19 l 628 -44 l 811 125 l 748 181 b 690 140 720 158 699 144 b 685 158 687 143 685 150 l 685 769 b 745 819 692 793 714 810 l 745 887 b 632 982 692 903 656 935 l 573 982 b 530 921 558 950 541 929 b 462 890 518 908 495 899 l 462 815 b 524 782 495 815 517 803 l 524 201 b 381 117 458 161 415 135 l 382 117 b 353 111 377 114 364 111 b 257 186 302 135 270 162 l 257 885 b 125 983 225 946 183 979 l -12 840 l 31 781 l 68 800 b 85 811 74 804 80 808 b 99 769 93 801 99 786 l 97 194 b 62 132 97 175 85 156 l 62 119 b 73 76 62 104 66 90 b 200 11 112 57 160 31 b 265 -24 208 -12 230 -24 b 315 -16 277 -24 293 -23 b 521 104 405 35 472 75 b 574 1 526 54 544 21 "},"▬":{"x_min":10.890625,"x_max":710.5,"ha":765,"o":"m 10 113 l 710 113 l 710 794 l 10 794 l 10 113 "},"Ñ":{"x_min":-9.453125,"x_max":978.9375,"ha":999,"o":"m 363 1202 b 260 1059 344 1185 306 1134 b 318 1031 284 1040 305 1031 b 375 1078 332 1031 352 1049 l 378 1078 b 555 1009 479 1031 538 1009 b 633 1070 573 1009 600 1028 l 633 1069 b 706 1172 659 1098 682 1131 l 626 1199 b 593 1147 614 1174 603 1159 b 584 1145 589 1145 585 1145 l 384 1229 l 384 1213 b 363 1202 375 1210 369 1206 m 88 918 b 2 771 43 876 15 826 b -4 686 -1 746 -4 719 b 230 408 -4 548 79 445 l 254 475 b 79 686 137 529 79 598 b 117 790 79 724 91 760 l 117 789 b 208 833 141 819 173 833 b 343 772 265 833 310 813 b 403 593 367 741 388 674 b 418 391 414 528 418 459 b 415 287 418 351 416 316 b 378 151 411 243 399 197 b 302 54 356 98 329 65 b 267 50 295 51 281 50 b 183 106 212 50 183 69 b 205 150 183 118 192 131 b 148 201 190 175 173 191 b 80 175 118 190 95 181 l 80 176 b 31 195 72 176 54 183 l -9 134 b 17 70 8 111 17 88 b 15 25 17 54 16 38 b 51 -19 24 2 36 -11 l 68 -19 b 113 -8 83 -12 98 -8 b 175 -19 124 -8 145 -12 b 249 -29 207 -25 230 -29 b 396 12 305 -29 354 -15 b 527 204 450 48 494 113 b 567 427 555 279 567 355 b 543 750 567 550 561 659 b 668 857 563 820 604 857 b 795 669 753 857 795 794 l 795 661 b 672 566 739 630 698 598 b 635 300 649 531 635 444 b 664 47 635 193 645 108 b 763 -27 704 36 735 12 b 774 -29 766 -27 772 -29 b 784 -30 778 -30 781 -30 b 823 -20 800 -30 812 -26 l 978 116 l 917 169 b 875 127 901 152 885 138 b 841 116 864 122 853 116 b 819 138 836 116 827 126 b 806 188 810 158 806 175 l 806 537 b 812 556 806 538 807 544 b 958 627 829 590 876 616 l 958 698 b 936 701 944 700 940 700 l 936 806 b 912 872 936 821 928 843 b 704 984 871 947 804 984 b 498 852 606 984 537 941 b 268 984 448 939 370 983 l 232 996 l 232 981 b 88 918 178 976 129 954 "},"F":{"x_min":-26.3125,"x_max":799.890625,"ha":765,"o":"m 74 919 b -26 703 6 865 -26 791 b 141 496 -26 598 24 546 l 162 568 b 62 708 96 605 62 651 b 112 815 62 748 78 783 b 245 859 145 844 190 859 b 407 825 293 859 352 846 b 292 707 341 766 309 728 b 233 522 254 655 233 594 b 235 511 233 518 233 515 b 288 373 236 471 254 423 b 376 259 296 362 324 323 b 411 214 391 241 402 225 b 425 196 416 207 421 201 b 529 -20 495 107 529 34 b 360 -166 529 -115 462 -166 b 236 -133 315 -166 273 -155 b 177 -44 196 -110 177 -80 b 196 5 177 -30 183 -15 l 196 4 b 214 32 202 12 209 23 b 229 59 220 41 224 50 b 282 164 247 90 267 129 b 288 209 285 175 288 191 b 196 341 288 276 258 322 b 156 348 183 346 171 348 b 30 237 104 348 63 312 l 107 205 b 157 262 122 243 138 262 b 198 225 176 262 198 244 b 196 222 198 223 198 223 b 141 147 173 193 156 168 b 90 69 112 105 96 78 b 73 -31 78 44 73 11 b 180 -201 82 -105 117 -162 b 369 -249 233 -233 297 -249 b 553 -195 439 -249 500 -230 b 659 -33 612 -155 647 -101 l 659 -34 b 667 40 665 -12 667 14 b 628 205 667 91 655 146 b 475 409 578 273 526 341 b 499 416 481 412 492 415 b 534 384 499 416 524 391 b 602 383 557 373 579 373 b 662 446 620 409 640 429 b 671 490 667 458 671 473 b 661 521 671 496 669 504 b 576 564 633 523 605 539 l 576 562 b 518 565 561 575 542 575 b 425 473 497 529 463 498 b 380 546 402 504 387 526 l 382 544 b 373 594 376 562 373 579 b 490 783 373 664 414 726 l 616 718 l 654 715 l 799 851 l 744 914 b 699 876 725 894 708 880 l 531 950 b 414 980 500 964 460 973 b 299 996 376 986 337 991 l 296 993 b 74 919 207 990 134 965 "},":":{"x_min":55.8125,"x_max":279.03125,"ha":383,"o":"m 132 620 b 129 611 130 616 129 613 b 55 561 121 590 96 575 l 68 494 b 112 473 84 488 102 480 b 147 420 127 454 138 437 l 175 419 b 190 423 178 419 182 419 l 209 438 b 219 468 210 445 216 461 b 279 502 239 487 261 497 l 279 562 b 239 579 253 573 245 577 l 240 579 b 212 622 227 588 221 602 l 212 620 b 202 643 209 626 208 631 l 132 643 l 132 620 m 132 159 b 129 150 130 156 129 152 b 55 100 121 129 96 113 l 68 33 b 112 12 84 27 102 19 b 147 -40 127 -6 138 -23 l 175 -41 b 190 -37 178 -41 182 -41 l 209 -20 b 217 2 210 -13 213 -5 b 279 45 243 18 266 36 l 279 101 b 239 119 253 112 245 116 l 240 119 b 205 181 225 129 213 151 l 132 181 l 132 159 "},"Û":{"x_min":-10.640625,"x_max":596.5625,"ha":617,"o":"m 222 542 b 186 622 218 572 205 598 l 193 640 l 140 681 l -1 526 b 54 466 4 506 24 486 b 77 494 64 476 73 487 b 84 462 81 486 84 473 b 86 295 84 427 84 356 l 86 130 b 39 91 86 130 71 117 b 56 31 39 63 45 42 b 126 -29 86 23 110 2 b 182 -25 155 -29 174 -26 b 200 0 186 -19 195 -7 b 212 16 211 16 208 11 b 257 38 220 23 234 30 b 256 97 271 66 271 83 b 224 130 241 105 230 117 l 224 431 b 276 480 244 449 259 463 b 324 516 302 504 318 516 b 363 481 333 516 348 502 l 363 45 b 414 -8 393 30 411 13 b 464 -39 423 -23 442 -33 l 596 117 l 539 169 b 505 124 531 158 514 138 b 504 141 504 127 504 133 l 504 311 b 502 480 502 386 502 442 b 517 517 502 492 508 506 l 520 519 b 536 586 531 529 536 552 b 460 616 501 594 474 605 b 414 661 450 622 435 636 b 351 670 403 666 382 670 b 352 665 351 669 352 666 b 222 542 312 624 264 583 m -10 712 l 542 712 l 542 822 l -10 822 l -10 712 "},"*":{"x_min":-28.578125,"x_max":481.828125,"ha":511,"o":"m 450 544 l 481 597 b 341 705 439 631 386 669 l 481 811 l 445 865 b 287 801 396 845 338 822 l 265 972 l 200 972 b 172 801 193 919 181 856 l 2 869 l -10 805 b 115 705 29 773 73 737 l -28 597 l 9 548 b 172 612 62 569 119 591 l 200 443 l 265 443 b 289 611 270 495 281 555 l 450 544 "},"†":{"x_min":-20.875,"x_max":492.5,"ha":556,"o":"m 94 868 b -20 726 70 805 33 758 b 93 586 29 693 67 647 b 188 673 111 626 150 652 b 113 572 171 630 153 587 b 179 390 138 552 164 469 b 186 253 184 359 186 312 b 183 103 186 210 186 160 l 183 104 b 181 44 181 85 181 62 b 235 -237 181 -69 199 -163 b 286 35 269 -164 286 -74 b 285 104 286 55 286 80 l 285 103 b 282 253 282 160 282 210 b 289 390 282 314 284 361 l 297 430 b 363 569 310 493 321 547 b 278 675 315 587 297 627 b 375 586 315 655 355 626 b 492 725 401 645 439 691 b 374 868 438 757 398 804 b 278 773 353 822 315 791 b 359 880 295 813 315 858 b 235 1018 305 911 265 956 b 111 880 206 955 165 909 b 188 775 154 858 172 815 l 188 773 b 94 868 150 791 112 822 "},"°":{"x_min":191.921875,"x_max":476.390625,"ha":617,"o":"m 296 965 b 191 838 227 941 191 899 l 191 831 b 194 820 191 829 191 824 l 193 823 b 268 720 202 774 228 738 b 330 706 287 713 311 706 l 338 706 b 393 717 356 706 374 710 b 473 819 439 741 465 776 b 476 833 476 823 476 827 b 468 872 476 849 473 860 l 469 870 b 426 937 461 898 446 920 b 340 979 415 947 386 960 l 340 967 l 338 967 b 296 965 319 967 304 966 m 378 823 b 378 816 377 820 377 815 l 377 815 b 343 792 371 806 351 792 l 325 792 l 321 794 b 314 795 319 794 317 795 b 287 833 295 805 287 819 b 288 835 287 834 287 834 b 292 856 288 844 289 849 l 292 855 b 329 876 299 863 314 872 b 333 874 330 876 329 876 l 347 874 b 379 830 363 869 379 854 l 379 824 l 378 823 "},"V":{"x_min":20.140625,"x_max":1044.90625,"ha":1128,"o":"m 892 596 b 1044 636 930 612 980 625 l 1044 704 l 1029 707 b 1005 829 1028 744 1021 785 l 1006 829 b 774 980 974 930 895 980 b 551 871 680 980 605 946 b 306 979 487 935 395 979 b 104 897 225 979 159 953 b 20 660 46 837 17 760 b 101 450 21 578 48 510 b 323 360 156 393 231 364 l 332 429 b 107 657 190 458 103 537 b 293 824 111 757 190 824 b 446 737 359 824 410 796 b 495 539 480 685 495 621 b 469 382 495 480 487 428 b 398 279 450 333 425 300 b 278 262 351 279 311 274 b 234 243 261 255 247 249 b 131 201 197 229 155 212 l 150 128 b 281 157 209 147 251 157 b 332 146 300 157 318 153 l 330 147 l 571 -25 b 783 -5 661 -25 734 -19 b 964 114 851 15 917 55 l 964 112 b 1038 289 1014 171 1038 228 b 1000 383 1038 326 1025 358 b 929 453 978 405 952 430 b 862 530 903 476 877 507 b 854 555 857 539 854 547 b 892 596 854 572 868 586 m 820 332 b 891 242 858 292 881 262 b 900 205 898 230 900 218 b 844 112 900 171 881 139 b 729 71 808 83 770 71 b 668 93 702 71 683 78 b 477 236 602 143 541 186 b 636 575 586 335 636 447 b 600 786 636 639 625 710 b 767 882 632 849 687 883 b 809 857 778 882 791 874 b 844 797 825 840 838 818 b 870 687 858 747 868 711 b 757 640 828 679 790 662 b 693 529 715 610 693 572 b 736 424 693 499 707 464 b 820 332 771 385 795 355 "},"å":{"x_min":29.9375,"x_max":601.609375,"ha":617,"o":"m 472 -36 l 601 112 l 539 158 b 509 121 524 134 514 121 b 487 158 495 124 487 138 l 487 460 b 496 482 487 471 488 478 b 525 521 515 495 525 507 b 515 552 525 530 521 539 b 336 649 450 578 389 612 b 269 659 318 655 298 659 b 246 639 262 653 251 645 b 80 464 179 580 111 521 b 29 316 59 426 40 376 b 57 140 29 241 39 181 b 141 10 69 116 95 73 l 127 -3 l 182 -53 b 349 88 236 -7 295 44 b 412 6 359 53 379 28 b 415 0 412 5 413 1 b 419 -11 416 -3 417 -7 b 460 -40 427 -25 441 -34 l 472 -36 m 349 467 l 349 188 b 255 119 317 163 288 142 b 164 317 204 171 172 237 b 246 527 164 409 191 477 l 349 467 m 298 689 b 392 731 332 689 362 703 b 436 824 421 759 436 789 l 436 832 b 298 973 436 920 383 973 b 153 831 215 973 153 914 l 153 824 b 291 689 153 753 220 689 l 298 689 m 341 827 b 291 782 341 798 323 784 l 285 782 l 280 784 b 246 830 266 784 250 806 b 291 875 246 853 262 867 b 341 827 323 873 341 857 "},"0":{"x_min":41.921875,"x_max":639.71875,"ha":717,"o":"m 340 -18 b 582 150 449 -19 530 36 b 639 437 622 233 639 329 b 582 745 639 556 622 661 b 340 918 530 859 449 916 b 96 736 231 919 151 859 b 42 433 57 647 39 544 b 102 150 43 323 63 229 b 340 -18 156 38 235 -18 m 475 543 b 476 433 476 491 476 455 b 462 208 477 334 472 259 b 340 65 441 115 398 65 b 221 205 280 65 240 112 b 206 433 209 258 205 333 b 219 679 208 562 212 644 b 340 833 236 783 279 833 b 475 543 426 833 468 736 "},"”":{"x_min":13.421875,"x_max":385,"ha":450,"o":"m 277 941 b 189 852 217 941 189 913 b 277 761 189 791 217 761 b 280 763 278 761 278 761 b 272 740 278 758 274 749 l 270 740 b 213 634 250 701 224 653 l 262 590 b 333 663 285 610 311 637 b 379 742 357 691 372 720 l 378 741 b 385 788 383 754 385 770 b 376 856 385 808 382 833 b 277 941 363 906 329 941 m 104 763 b 103 762 104 762 104 762 l 104 763 m 100 941 b 13 852 42 941 13 913 b 100 761 13 791 42 761 b 103 762 101 761 103 761 b 93 738 101 755 97 748 l 93 740 b 36 634 74 701 48 653 l 85 590 b 156 662 108 610 131 634 b 202 744 182 691 197 720 b 208 788 208 755 208 770 b 199 856 208 808 205 833 b 100 941 187 906 153 941 "},"¾":{"x_min":-9.6875,"x_max":879.296875,"ha":878,"o":"m 677 780 l 568 796 l 272 155 l 374 129 l 677 780 m 204 353 b 362 403 264 353 317 371 b 431 539 409 439 431 483 b 338 679 431 601 401 650 b 389 737 367 699 381 719 b 398 789 396 753 398 769 b 360 871 398 818 383 847 b 287 915 341 890 311 907 b 224 924 268 919 243 922 b 213 925 219 925 214 925 b -9 780 114 925 39 876 l 70 733 b 125 793 89 765 107 785 b 182 808 144 803 163 808 b 258 764 224 808 258 789 b 208 719 258 751 238 733 b 81 685 183 708 141 696 l 81 594 b 150 600 81 594 137 599 b 171 601 161 601 168 601 b 287 511 242 601 287 564 b 268 465 287 493 280 475 b 204 444 253 450 232 444 b 142 455 164 444 142 449 l 142 464 b 144 468 142 465 142 467 b 146 479 146 474 146 476 b 85 558 146 525 126 551 b 66 561 77 560 77 561 b -8 485 14 561 -8 537 b 73 382 -8 442 21 407 b 204 353 114 362 159 353 m 879 118 l 879 236 l 777 236 l 777 543 l 672 543 b 637 499 661 532 647 511 b 616 474 630 490 623 480 b 575 418 603 454 589 436 b 533 365 560 400 547 382 b 419 197 462 271 421 212 l 419 118 l 637 118 b 638 74 638 87 638 79 b 549 72 624 72 594 72 l 549 -17 l 861 -17 l 861 74 l 778 74 l 778 118 l 879 118 m 638 333 l 638 235 l 560 235 l 638 333 "},"@":{"x_min":-19.0625,"x_max":754.0625,"ha":844,"o":"m 318 901 l 329 915 b 70 726 225 894 138 830 b -19 420 10 631 -19 528 b 4 270 -19 369 -10 320 b 77 110 28 200 53 148 b 217 -3 111 60 159 23 b 370 -36 269 -25 319 -36 b 558 7 442 -36 506 -21 b 643 75 578 18 609 45 b 718 155 675 103 705 135 b 735 216 728 170 735 191 b 705 298 735 232 725 260 b 556 123 661 223 613 163 b 387 66 500 85 445 66 b 136 295 261 66 175 142 b 119 413 125 339 119 380 b 170 652 119 510 136 589 b 273 777 196 705 231 746 b 417 827 318 812 367 827 b 532 789 454 827 492 815 b 615 702 570 766 597 737 b 646 559 635 659 646 613 b 615 380 646 499 635 438 b 515 270 590 312 556 274 b 502 320 507 280 502 296 b 582 715 502 445 529 577 l 446 715 b 445 701 446 712 445 706 b 366 727 421 719 397 727 b 329 719 353 727 341 724 b 204 569 277 695 235 639 b 167 377 181 507 167 438 b 190 249 167 327 174 284 b 300 173 213 198 250 173 b 402 235 341 173 375 192 b 513 174 426 192 462 174 b 661 259 567 174 617 203 b 736 402 695 299 720 349 b 754 562 748 444 754 496 b 724 715 754 613 744 666 l 724 713 b 635 844 703 770 672 815 b 526 899 608 863 570 885 b 406 923 481 915 442 923 b 389 921 405 923 396 923 b 330 916 377 920 357 919 l 318 901 m 411 578 b 383 396 411 531 398 462 b 313 268 364 313 341 268 b 295 327 302 268 295 289 b 319 492 295 380 303 435 b 390 626 338 556 362 602 b 411 578 408 621 411 612 m 393 628 l 385 627 b 390 626 386 626 387 627 b 393 628 390 627 392 627 "},"ö":{"x_min":32,"x_max":510.890625,"ha":561,"o":"m 353 925 l 363 938 b 294 895 327 935 304 922 l 238 700 l 309 700 b 389 780 339 724 366 752 b 436 872 419 817 436 849 b 369 942 436 904 414 928 l 353 925 m 164 922 l 172 933 b 110 824 140 919 120 883 b 102 702 109 789 105 737 l 170 702 l 264 836 b 268 851 264 835 267 846 b 272 872 272 860 272 865 b 211 942 272 904 246 942 l 199 942 b 176 939 189 942 185 940 l 164 922 m 267 -29 l 283 -20 b 431 143 363 63 415 120 b 510 351 480 209 510 284 b 392 612 510 411 472 495 l 402 616 b 359 679 395 644 382 663 l 51 551 b 64 305 60 451 64 369 l 64 202 b 37 112 60 161 52 130 b 32 80 33 100 32 88 l 32 54 b 222 -16 124 33 189 9 b 219 -20 221 -18 221 -19 b 267 -29 242 -29 255 -30 m 366 331 b 381 263 376 295 381 273 b 368 200 381 243 376 219 b 312 109 348 156 329 123 l 308 109 b 200 156 300 109 266 125 l 200 523 b 244 541 219 530 226 534 b 361 329 321 411 361 343 l 366 331 "},"i":{"x_min":3.046875,"x_max":324.28125,"ha":333,"o":"m 160 712 b 283 872 215 759 257 813 b 238 952 283 909 268 937 b 214 958 231 956 222 958 b 145 923 186 958 166 945 b 103 715 124 865 107 795 l 160 712 m 188 -31 l 324 111 l 272 163 b 229 130 261 156 241 141 b 224 147 224 134 224 140 l 224 480 b 233 495 227 484 230 491 b 261 512 238 498 245 504 b 254 575 273 538 271 558 b 194 612 230 583 209 597 b 199 631 197 618 199 623 b 156 683 194 647 181 663 l 3 511 l 56 451 b 83 481 65 466 75 476 l 83 45 b 139 -22 110 29 128 6 b 178 -36 150 -31 163 -36 l 188 -31 "},"þ":{"x_min":-13.609375,"x_max":809.859375,"ha":883,"o":"m 657 753 b 406 592 581 705 487 644 b 404 623 405 601 404 612 b 402 695 404 646 402 673 b 401 760 402 727 402 753 b 343 899 387 819 366 870 l 343 898 b 182 965 306 944 253 965 b 44 881 130 965 83 934 b -10 734 13 838 -8 780 b -13 699 -12 724 -13 710 b 35 560 -13 646 4 598 b 190 491 70 520 119 498 l 193 567 b 100 616 155 570 123 588 b 65 709 78 648 65 680 l 65 723 b 149 821 65 776 103 821 b 231 774 182 821 209 803 b 264 671 254 742 264 708 l 264 234 b 254 240 259 237 250 245 b 245 246 254 241 253 242 l 225 253 l 217 253 b 205 259 216 253 205 259 l 99 55 l 161 28 b 204 74 175 45 194 65 b 220 76 208 76 213 76 b 261 66 234 76 250 71 b 298 -243 261 -53 274 -154 l 366 -241 b 408 8 387 -159 402 -80 b 435 -1 423 3 426 2 b 514 -22 465 -11 492 -18 b 529 -26 518 -26 524 -25 b 552 -29 533 -28 539 -29 l 722 167 b 809 415 781 265 809 348 b 756 541 809 460 789 506 b 711 587 740 556 726 571 b 669 631 699 602 684 616 b 666 658 666 646 666 653 b 699 696 666 666 677 680 l 657 753 m 563 512 b 573 501 564 508 568 506 b 619 440 589 484 605 465 b 651 342 641 403 647 366 b 653 335 651 341 653 337 b 656 330 653 334 654 333 l 656 287 b 646 216 656 258 654 234 b 571 112 627 174 601 137 l 563 112 b 490 141 537 120 514 130 b 419 167 466 151 439 159 l 419 485 b 473 531 435 505 455 517 l 475 531 b 521 565 488 541 504 552 b 563 512 532 544 547 528 "},"]":{"x_min":-23.140625,"x_max":272.21875,"ha":360,"o":"m -23 -162 l 272 -162 l 272 925 l -23 925 l -23 837 l 155 837 l 155 -77 l -23 -77 l -23 -162 "},"m":{"x_min":-0.859375,"x_max":870.109375,"ha":922,"o":"m 376 661 l 354 661 b 229 540 314 622 269 579 l 229 561 b 195 604 218 577 207 588 l 195 605 b 193 612 193 608 193 611 b 196 618 193 613 193 615 b 154 682 192 634 178 655 l 0 516 l 53 461 b 84 487 61 468 72 477 b 90 476 87 483 90 479 l 90 136 b 48 101 86 122 71 108 l 48 42 b 123 -18 90 26 113 6 b 158 -32 132 -26 144 -32 b 197 -20 170 -32 182 -29 b 264 41 203 1 225 20 b 271 102 269 61 271 83 b 231 142 244 115 231 127 b 230 422 230 220 230 313 b 317 506 255 450 282 477 b 363 461 342 502 363 480 l 363 142 b 363 140 363 141 363 141 b 327 95 363 124 350 111 l 327 40 b 381 22 355 31 374 24 b 404 -29 391 15 399 -7 l 476 -29 b 544 40 476 0 498 22 l 544 95 b 509 133 520 111 509 123 l 509 425 b 599 511 546 458 582 494 b 640 479 612 509 625 501 l 640 86 b 690 2 640 49 655 20 b 697 -16 693 -1 694 -7 l 700 -18 b 704 -20 701 -19 702 -19 b 740 -39 716 -29 725 -34 l 870 116 l 815 162 b 781 131 796 142 787 131 b 783 138 783 131 783 136 b 781 281 781 190 781 237 b 788 500 781 372 784 441 b 804 516 793 508 799 513 b 814 580 811 529 814 550 b 694 648 761 591 721 613 b 642 662 685 658 668 662 l 499 527 b 479 577 495 545 487 565 b 425 622 470 591 450 608 b 410 644 421 625 415 630 b 380 663 403 656 391 663 l 376 661 "},"8":{"x_min":38.984375,"x_max":652.84375,"ha":717,"o":"m 343 -18 b 518 22 410 -18 467 -4 b 639 158 572 52 614 98 b 652 234 648 184 652 209 b 586 401 652 291 629 347 b 467 505 554 438 514 473 b 567 572 512 529 545 550 b 616 711 602 608 617 654 b 523 866 614 775 583 826 l 524 866 b 352 919 473 901 416 919 b 161 859 286 919 215 894 b 68 684 104 815 67 751 b 205 469 71 602 117 530 b 38 234 89 398 38 323 b 41 200 38 222 40 211 b 151 30 53 125 89 69 b 343 -18 203 -1 267 -18 m 353 836 b 452 793 391 836 425 822 b 494 691 480 765 494 730 b 381 548 494 634 447 579 b 218 694 297 586 241 634 b 215 711 217 697 215 704 b 258 794 215 738 229 766 b 353 836 285 823 318 836 m 504 180 b 460 87 504 143 489 112 b 352 51 430 62 394 51 l 346 51 b 166 213 249 51 190 106 b 200 354 166 272 177 322 b 281 419 215 375 243 398 b 504 180 429 347 504 268 m 274 423 b 281 419 275 422 278 420 b 286 423 282 420 284 422 l 274 423 "},"ž":{"x_min":0,"x_max":0,"ha":0},"R":{"x_min":-4.46875,"x_max":994.921875,"ha":1022,"o":"m 869 -29 l 994 127 l 948 184 b 890 141 918 156 899 141 b 871 169 883 141 876 151 b 830 390 864 192 850 267 b 774 590 816 480 798 550 b 971 732 831 643 895 688 b 935 795 964 763 955 782 b 898 789 921 795 909 792 b 835 849 887 798 857 827 b 779 923 805 884 785 910 b 798 949 778 924 785 933 l 756 1000 l 488 827 b 251 987 427 934 349 987 b 221 986 243 987 228 987 b 55 888 153 974 90 941 b 0 711 22 841 0 777 b 235 404 0 560 84 444 l 274 469 b 88 689 156 510 94 583 l 88 703 b 213 833 88 782 131 833 b 357 716 274 833 323 794 b 406 497 383 657 400 582 b 410 379 409 454 410 416 b 331 85 410 227 383 130 b 244 48 304 60 274 48 b 190 84 218 48 195 64 b 199 138 193 103 195 123 b 198 137 199 137 198 137 l 198 138 b 202 153 198 141 201 151 b 164 202 198 171 184 187 b 89 176 138 185 114 176 b 32 192 73 176 54 181 l -4 138 b 25 77 11 114 22 94 b 26 55 25 71 26 64 b 24 8 26 41 25 24 b 73 -21 36 -10 54 -21 b 130 -14 92 -17 112 -14 b 163 -17 137 -14 148 -14 b 247 -32 193 -26 213 -32 l 259 -32 b 558 451 454 -32 555 126 l 635 498 b 651 466 645 496 650 483 b 691 211 664 357 676 268 b 820 -29 717 115 763 31 l 869 -29 m 762 688 b 559 551 699 634 628 586 b 521 749 555 617 541 685 b 645 817 559 774 601 796 b 654 806 647 813 651 810 b 658 802 656 805 657 803 b 662 798 660 801 661 799 b 666 794 664 796 665 795 b 670 789 668 792 669 791 b 675 785 672 788 673 787 b 679 781 676 784 677 782 b 681 777 680 780 680 778 b 762 688 707 746 733 717 m 639 823 l 645 817 l 654 821 l 639 823 "},"á":{"x_min":5.53125,"x_max":590.484375,"ha":597,"o":"m 590 888 l 571 951 b 454 926 525 951 485 943 l 456 926 b 385 865 426 911 401 891 b 340 905 377 874 358 890 l 299 858 b 311 831 304 847 309 836 b 326 799 317 823 322 815 l 326 643 l 303 618 l 234 672 l 196 672 l 13 506 l 5 452 l 5 206 b 118 8 5 102 42 37 l 118 -1 b 163 -32 128 -18 140 -25 b 205 0 174 -22 193 -9 b 243 27 219 9 231 18 l 242 27 b 311 54 270 47 292 54 b 389 -15 340 54 366 31 b 424 -23 404 -22 416 -25 b 446 -16 430 -23 435 -22 b 557 115 470 20 507 63 l 502 166 b 476 134 489 151 480 140 l 476 136 b 470 133 473 133 472 133 b 472 616 470 295 472 455 l 580 616 l 580 701 l 519 701 b 580 713 534 716 555 718 l 580 887 b 590 888 583 888 586 888 m 326 536 l 326 163 b 251 129 326 144 292 129 b 179 148 223 129 200 134 l 181 148 b 148 208 160 162 148 181 l 147 495 b 151 526 147 498 148 509 b 167 540 155 529 163 537 l 236 487 l 269 487 l 326 536 "},"×":{"x_min":126.578125,"x_max":666.953125,"ha":844,"o":"m 400 321 l 586 132 l 664 211 l 480 398 l 666 594 l 585 678 b 398 480 525 614 460 544 l 210 673 l 132 594 b 322 403 193 532 259 465 l 126 207 l 205 125 l 400 321 "},"o":{"x_min":32.3125,"x_max":512.796875,"ha":561,"o":"m 284 -22 b 512 335 436 100 512 221 b 508 381 512 352 511 367 b 393 603 499 431 462 505 l 402 609 b 360 669 395 637 383 655 l 51 542 b 60 335 54 500 59 425 b 62 228 62 294 62 259 b 59 157 62 196 62 173 b 39 110 58 141 52 124 b 32 75 35 96 32 85 l 32 52 b 235 -31 134 27 202 0 b 284 -22 259 -31 275 -28 m 243 532 l 365 328 b 378 262 373 316 378 295 b 316 107 378 191 358 138 b 305 105 307 105 309 103 b 201 153 269 121 237 135 l 201 514 l 243 532 "},"5":{"x_min":16.328125,"x_max":617.953125,"ha":717,"o":"m 183 740 b 289 732 220 734 254 732 b 571 844 416 732 510 769 l 571 843 b 617 916 578 851 594 879 l 566 916 b 445 898 539 916 498 911 b 325 883 390 889 351 883 b 159 919 265 883 210 894 b 111 935 148 919 133 925 l 111 891 b 62 440 111 741 96 591 l 108 402 b 279 486 174 458 230 486 b 321 479 291 486 306 483 l 319 479 b 427 386 364 468 402 434 b 461 239 447 341 461 289 b 302 57 461 130 408 69 b 224 65 272 52 247 57 l 225 65 b 178 109 204 76 186 89 b 187 173 176 126 178 151 l 187 182 b 103 266 187 239 160 266 b 16 176 44 266 16 237 b 126 20 16 108 53 57 b 306 -17 179 -5 240 -17 b 524 69 393 -17 465 12 b 616 282 579 123 611 197 b 537 507 622 368 594 447 b 319 598 480 568 406 598 b 164 563 259 598 212 587 l 183 740 "},"7":{"x_min":46.28125,"x_max":668.3125,"ha":717,"o":"m 423 15 b 363 186 381 68 363 123 b 427 447 363 259 383 345 b 668 850 479 573 560 708 l 668 909 l 208 909 l 196 923 l 133 923 l 46 637 l 122 634 b 196 754 142 683 168 723 l 193 752 b 224 761 200 756 210 759 l 515 761 b 322 468 419 623 355 525 b 202 101 245 329 202 202 b 231 -37 202 55 212 8 l 423 15 "},"K":{"x_min":-17.34375,"x_max":902.203125,"ha":894,"o":"m 789 622 b 902 670 834 628 872 643 b 536 981 853 862 721 968 b 102 730 363 987 209 905 b 82 659 88 707 82 682 b 98 595 82 639 87 618 b 258 326 156 510 209 422 b 319 127 298 248 319 181 b 246 49 319 76 295 49 b 177 102 205 49 177 72 b 198 155 177 116 183 133 l 150 204 b 76 174 116 184 91 174 b 56 177 80 174 68 176 b 13 181 47 179 28 180 b -17 131 1 169 -10 152 b 11 44 3 102 11 74 b 9 13 11 34 11 23 b 53 -24 18 -5 33 -18 b 148 -17 79 -14 110 -11 l 145 -17 b 261 -30 186 -26 230 -32 b 402 38 318 -26 367 -3 b 457 188 439 80 457 131 b 451 240 457 206 455 223 b 423 365 443 280 432 323 b 474 393 443 375 454 382 b 487 385 484 392 487 390 b 610 78 537 280 578 177 b 740 -30 651 6 693 -30 b 762 -25 745 -30 752 -28 b 884 72 786 2 827 34 l 847 134 b 785 113 815 120 793 113 b 755 142 772 113 763 123 l 624 465 b 610 481 619 471 616 475 l 752 577 b 736 642 752 609 747 631 b 591 813 680 693 628 753 b 563 821 583 819 572 821 b 511 795 541 821 523 810 b 333 693 430 764 368 728 b 298 604 310 671 298 642 b 309 567 300 592 305 579 b 269 631 281 613 296 585 b 243 706 251 667 243 692 b 342 848 243 762 277 810 b 522 898 398 878 462 898 b 695 840 583 898 640 878 b 785 698 753 798 785 752 b 775 639 785 684 782 666 l 789 622 m 575 565 b 555 549 564 557 555 549 b 420 462 511 521 463 490 b 379 592 405 510 393 546 b 389 624 379 609 382 618 b 468 668 408 645 436 660 b 575 565 508 656 544 621 m 446 673 b 468 668 453 673 461 671 b 503 674 480 671 491 673 l 446 730 l 446 673 "},",":{"x_min":10.890625,"x_max":266.78125,"ha":360,"o":"m 265 125 b 225 177 259 151 247 169 l 234 184 b 205 183 224 184 215 184 b 189 184 200 184 193 184 b 186 180 187 183 187 181 b 98 122 140 172 112 152 l 10 -250 l 88 -250 b 264 88 201 -31 262 87 b 266 101 266 94 266 98 l 266 116 b 264 127 266 119 266 122 l 265 125 "},"d":{"x_min":25.71875,"x_max":534.796875,"ha":588,"o":"m 225 898 l 227 926 b 225 929 227 926 227 927 b 217 938 221 931 220 933 b 180 944 205 943 193 944 b 67 886 138 944 97 923 b 25 770 42 852 25 813 b 44 706 25 750 31 726 b 165 609 99 662 138 630 l 76 538 l 76 169 b 51 147 76 158 62 152 l 37 140 b 37 76 25 119 27 97 b 126 48 74 63 107 54 b 155 38 144 43 155 38 b 223 -29 198 20 223 -1 l 281 -29 l 383 68 b 534 400 484 184 534 294 b 416 637 534 490 495 569 l 183 786 b 144 830 159 798 145 813 b 165 859 149 844 156 854 l 164 859 b 221 866 171 861 191 863 l 227 873 l 225 898 m 232 880 b 227 873 232 870 231 865 l 232 880 m 366 463 b 410 322 395 425 410 376 b 318 113 410 248 372 165 l 315 112 b 214 168 281 130 248 150 l 214 520 b 227 551 214 537 219 545 l 223 550 b 240 556 228 552 235 554 b 366 463 296 529 337 495 m 235 559 b 240 556 236 558 239 556 b 247 559 243 558 246 558 l 235 559 "},"¨":{"x_min":44.921875,"x_max":379.75,"ha":383,"o":"m 239 915 l 182 729 l 253 731 b 352 827 289 761 322 792 b 378 876 366 844 375 863 b 379 887 379 879 379 884 l 379 899 b 378 906 378 902 378 904 l 366 926 b 296 961 345 940 321 952 l 296 949 b 239 915 277 948 259 936 m 87 929 l 88 929 b 63 884 74 916 65 901 l 44 734 l 114 734 l 204 852 b 227 924 208 859 215 877 b 215 892 227 924 216 909 l 215 897 b 209 916 215 904 212 909 b 171 951 202 929 189 942 b 159 954 167 952 160 954 l 142 954 b 132 952 138 954 136 954 l 132 954 b 87 929 110 947 95 938 "},"E":{"x_min":44.703125,"x_max":854.5625,"ha":894,"o":"m 606 -26 l 854 144 l 816 210 b 545 137 714 162 625 137 b 495 140 530 137 510 139 b 191 486 331 165 227 280 b 182 598 184 522 182 559 b 218 803 182 681 195 751 b 345 896 247 866 289 896 b 433 855 375 896 408 880 l 361 762 l 340 717 b 503 436 393 624 450 527 l 503 437 b 531 319 522 386 531 348 b 481 251 531 279 515 257 b 461 248 473 250 465 248 b 350 366 416 248 379 287 l 272 364 b 485 167 307 232 379 167 b 589 219 522 167 557 183 b 664 479 639 278 664 366 b 621 555 650 504 635 530 b 624 558 621 555 623 558 b 691 511 644 545 665 530 b 732 501 702 505 717 501 b 752 511 738 501 745 504 l 825 583 l 825 630 b 711 709 785 652 747 677 b 688 713 699 713 693 713 l 685 713 l 672 713 l 669 716 b 576 627 642 690 605 655 b 485 776 542 676 519 719 b 536 833 496 792 517 815 l 738 784 l 836 959 l 779 992 b 733 955 766 982 747 966 b 552 990 654 970 593 983 b 489 914 533 968 510 938 b 348 980 443 959 397 980 b 104 829 239 980 154 923 b 44 538 65 754 44 655 b 48 452 44 509 46 477 b 164 132 61 332 103 218 b 463 -26 243 25 342 -26 l 606 -26 "},"Y":{"x_min":-16.9375,"x_max":905.078125,"ha":999,"o":"m 534 706 b 609 799 575 759 595 785 b 711 602 662 705 695 638 b 753 377 737 531 753 453 b 751 318 753 360 752 335 b 644 14 743 222 703 115 b 414 -164 576 -102 496 -164 b 353 -119 374 -164 353 -148 b 355 -88 353 -109 354 -99 b 285 -32 340 -51 316 -32 b 200 -123 234 -32 200 -73 b 279 -234 200 -173 228 -209 b 403 -259 316 -253 358 -260 b 716 -66 511 -255 616 -189 b 884 263 802 40 860 150 b 905 438 898 322 905 381 b 858 688 905 517 888 606 b 744 920 835 755 796 831 b 745 922 744 920 744 920 l 745 923 b 756 951 747 927 754 944 l 721 979 l 691 993 b 503 798 612 915 545 845 b 415 916 483 844 452 883 b 260 977 369 956 317 977 b 66 890 187 977 123 948 b -16 692 10 831 -16 766 b 42 503 -16 621 6 553 b 243 409 87 448 155 413 l 258 481 b 115 548 192 488 146 512 l 115 546 b 71 674 86 581 71 623 b 112 783 71 719 85 755 b 211 826 140 812 174 826 b 321 773 252 826 290 809 b 398 594 357 734 384 666 b 406 502 403 562 406 528 b 361 334 406 429 392 374 b 121 215 316 272 237 232 l 130 139 b 217 140 154 139 192 140 b 366 33 296 89 342 57 l 347 7 l 400 -41 l 638 100 l 587 168 b 511 133 549 144 524 133 b 493 140 504 133 498 135 b 387 227 456 171 423 197 b 498 375 436 264 474 313 b 539 591 526 441 539 513 b 530 701 539 627 535 666 l 534 706 "},"\"":{"x_min":-4.078125,"x_max":475.03125,"ha":561,"o":"m 340 952 b 308 902 323 933 313 916 l 213 537 l 292 537 b 454 838 344 636 402 740 b 475 884 464 851 472 868 l 475 894 b 457 941 475 906 468 925 b 394 972 436 968 415 972 l 371 972 l 367 966 b 340 952 353 963 345 959 m 88 906 l -4 533 l 70 533 l 250 884 l 250 898 b 247 913 250 904 250 908 b 217 956 238 933 225 948 l 145 975 l 145 962 b 88 906 125 954 104 933 "},"‹":{"x_min":12.25,"x_max":236.828125,"ha":283,"o":"m 12 308 l 236 -12 l 236 136 b 111 332 196 198 151 266 l 235 493 l 235 632 l 12 355 l 12 308 "},"ê":{"x_min":42,"x_max":450.328125,"ha":488,"o":"m 357 691 l 443 691 l 292 959 l 195 959 l 43 691 l 127 691 b 244 806 164 727 206 769 l 357 691 m 195 -14 l 210 -29 l 238 -39 l 450 142 b 379 186 428 170 404 186 b 363 173 375 183 367 176 b 278 129 337 152 310 129 b 220 156 255 129 238 138 b 191 211 208 169 197 190 l 448 419 b 387 545 444 444 424 487 b 350 604 375 565 363 584 b 312 667 340 622 323 648 l 261 667 l 70 516 l 52 484 b 42 277 46 416 42 347 b 67 106 42 202 50 145 b 193 -2 91 52 134 16 l 195 -14 m 292 397 b 190 308 257 363 225 336 b 189 481 190 374 189 415 b 220 522 198 495 210 509 b 292 397 244 480 269 437 m 212 537 b 220 522 214 531 217 526 b 232 533 224 526 228 529 l 212 537 "},"„":{"x_min":13.578125,"x_max":426,"ha":450,"o":"m 318 214 b 230 125 258 214 230 186 b 318 35 230 64 258 35 b 321 36 318 35 319 35 b 317 26 319 33 318 30 l 311 11 l 311 14 b 299 -9 307 7 303 -1 l 299 -8 b 254 -93 280 -47 262 -80 l 302 -135 b 374 -61 330 -112 355 -87 b 420 16 398 -34 413 -6 l 419 15 b 426 61 424 26 426 44 b 417 129 426 82 423 105 b 318 214 405 182 371 214 m 100 214 b 13 125 42 214 13 186 b 100 35 13 64 42 35 b 104 37 102 35 103 35 b 96 18 103 33 99 26 b 93 14 95 16 93 14 b 36 -93 70 -31 47 -76 l 84 -135 b 157 -61 114 -111 138 -86 b 202 18 181 -34 195 -6 b 208 61 208 29 208 44 b 200 129 208 82 205 105 b 100 214 187 179 153 214 "},"´":{"x_min":70.78125,"x_max":337.5625,"ha":383,"o":"m 303 968 b 272 962 292 965 283 963 l 270 962 l 266 959 b 176 891 224 945 196 923 l 70 709 l 155 709 l 319 852 b 337 890 337 877 337 881 l 337 904 b 330 924 337 911 334 918 l 330 922 b 294 959 325 941 313 955 l 303 968 "},"Í":{"x_min":-27.484375,"x_max":511.8125,"ha":601,"o":"m 375 479 b 370 491 372 483 371 487 l 375 479 m 326 597 l 326 595 b 303 706 313 633 304 669 l 303 712 b 321 736 303 723 310 733 b 357 708 337 734 349 723 b 375 611 368 679 374 648 l 375 581 b 370 494 375 555 374 522 l 370 491 b 326 597 353 525 340 565 m 311 326 b 211 205 280 273 244 230 b 148 177 187 188 164 177 l 145 177 b 187 330 145 198 158 244 l 187 329 b 228 473 214 395 228 444 l 228 480 b 311 326 248 434 276 381 m 466 455 b 458 423 462 443 461 431 b 438 362 453 404 445 379 b 511 102 487 263 511 176 b 483 -18 511 56 502 15 b 205 -170 431 -104 328 -155 b 172 -173 195 -172 183 -173 b 51 -127 129 -173 86 -156 b 11 -59 28 -108 11 -80 b 55 18 11 -34 32 -4 b 99 41 73 30 89 41 b 129 -4 116 41 129 27 l 129 -11 b 153 -69 129 -33 139 -54 b 197 -81 164 -75 182 -81 b 257 -73 212 -81 235 -77 l 255 -73 b 385 52 339 -50 385 -8 l 385 61 b 355 222 380 120 372 173 b 195 86 307 162 249 112 b 90 61 153 70 116 61 b 31 75 66 61 47 66 b -1 147 10 90 -1 118 b 29 279 -1 177 9 220 b 82 420 55 334 71 383 b 32 347 77 408 55 375 l 5 384 l 6 383 b -4 401 9 380 0 395 b -27 427 -9 409 -20 420 b 171 537 65 501 131 537 b 191 533 176 537 184 534 l 191 534 b 207 526 197 531 202 530 b 178 656 188 577 178 622 b 182 693 178 668 180 683 b 307 825 200 770 245 823 l 321 825 b 458 761 389 825 434 804 l 457 761 b 491 623 481 722 491 673 l 491 615 b 468 455 490 556 483 504 l 466 455 "},"ì":{"x_min":28,"x_max":616.40625,"ha":644,"o":"m 591 934 b 443 908 514 930 465 922 b 402 868 428 898 414 886 b 400 872 402 868 401 868 l 400 870 b 291 934 385 905 349 926 b 118 790 206 934 146 886 l 78 605 b 62 581 77 598 71 588 l 63 583 b 33 558 54 579 42 566 b 43 493 24 531 25 509 l 86 493 b 86 441 85 469 86 462 l 86 406 b 127 -240 86 218 100 2 l 195 -240 b 238 380 225 -16 238 190 b 236 493 238 419 238 455 l 330 493 l 330 443 l 330 134 b 303 99 326 123 316 109 b 307 45 296 83 299 65 b 351 23 318 38 337 30 b 382 8 360 18 371 12 b 427 -37 387 -18 405 -33 l 616 111 l 560 166 b 487 122 540 147 510 129 b 463 140 474 123 468 130 b 462 461 463 222 462 340 l 462 783 b 495 829 468 798 480 819 b 587 857 518 848 547 857 l 591 934 m 194 752 b 195 757 194 754 194 754 b 197 770 195 762 195 768 b 242 800 204 788 217 800 b 311 780 272 800 295 793 b 331 758 323 768 331 761 l 331 618 l 227 618 b 194 752 205 691 194 734 "},"±":{"x_min":-126.578125,"x_max":515.859375,"ha":410,"o":"m 251 900 l 514 900 l 514 1012 l 253 1012 l 253 1338 l 140 1338 l 140 1012 l -126 1012 l -126 900 l 140 900 l 140 570 l 251 570 l 251 900 m -126 394 l 515 394 l 515 520 l -126 520 l -126 394 "},"Ú":{"x_min":-8.578125,"x_max":877.828125,"ha":922,"o":"m 378 669 l 355 669 b 228 545 315 629 269 586 l 228 567 b 194 611 217 583 206 595 b 195 624 192 616 191 622 b 152 688 191 641 177 663 l -3 522 l 49 466 b 82 492 58 473 70 483 b 88 481 85 488 88 484 l 88 137 b 45 102 83 124 69 109 l 45 42 b 120 -18 88 26 111 6 b 195 -22 139 -34 164 -37 b 263 41 201 1 224 22 b 270 104 269 62 270 83 b 231 144 243 116 231 129 b 229 426 229 223 229 317 b 318 512 254 455 283 483 b 364 466 341 508 364 486 l 366 144 b 328 97 366 127 352 113 l 328 40 b 384 23 356 31 375 24 b 405 -29 392 15 400 -7 l 479 -29 b 547 40 479 0 501 23 l 547 97 b 511 134 524 112 511 124 l 511 429 b 603 517 548 463 585 499 b 643 484 616 516 630 506 l 643 86 b 695 2 643 49 660 22 b 702 -16 698 -1 699 -7 b 745 -39 718 -27 729 -34 l 877 117 l 822 165 b 786 133 802 144 792 133 b 788 140 788 133 788 137 b 786 284 786 191 786 240 b 793 505 786 376 789 447 b 811 522 800 513 805 520 b 820 587 817 534 820 556 b 699 655 767 598 728 622 b 646 670 688 666 673 670 b 502 533 601 627 548 576 b 483 583 498 552 490 572 b 427 629 472 598 453 615 b 411 651 423 631 418 637 l 411 649 b 375 672 403 667 390 673 l 378 669 m -8 712 l 827 712 l 827 822 l -8 822 l -8 712 "},"|":{"x_min":318.5,"x_max":477.75,"ha":844,"o":"m 318 -15 l 477 -15 l 477 879 l 318 879 l 318 -15 "},"§":{"x_min":110.125,"x_max":562.65625,"ha":717,"o":"m 535 56 b 562 203 554 103 562 153 b 519 366 562 261 547 316 b 418 495 504 389 469 434 b 367 548 400 511 385 531 b 320 602 351 566 335 582 l 320 600 b 272 728 288 641 272 684 b 344 813 272 770 305 813 b 382 788 351 813 362 805 b 455 756 407 766 430 756 b 525 832 493 756 525 795 b 425 930 525 885 491 918 b 422 928 423 930 422 930 b 416 930 419 930 418 930 b 137 657 291 930 198 839 b 110 520 119 605 110 559 b 183 321 110 457 140 368 b 224 280 197 307 211 295 b 310 195 251 253 283 223 b 403 23 362 134 403 64 b 380 -31 403 7 395 -10 b 340 -60 365 -50 352 -60 b 326 -58 337 -60 329 -60 b 221 6 280 -17 245 6 b 138 -71 178 6 138 -24 b 187 -149 138 -104 157 -132 b 273 -167 209 -160 239 -167 b 438 -90 330 -167 389 -139 b 535 56 478 -51 514 2 m 288 453 b 412 309 355 377 397 328 b 470 161 445 260 467 207 b 457 188 463 175 457 186 b 264 405 374 285 310 355 b 200 568 221 453 200 509 l 200 571 b 288 453 220 535 249 496 m 470 155 b 465 116 470 142 468 130 l 491 118 l 483 134 b 470 161 478 145 474 153 l 470 155 m 182 610 b 200 571 186 598 191 584 b 206 613 200 581 202 596 l 182 610 "},"Ý":{"x_min":-16.359375,"x_max":907.796875,"ha":999,"o":"m 473 1275 l 481 1287 b 371 1154 449 1273 413 1230 b 337 1080 359 1130 348 1105 l 303 1013 l 386 1013 b 549 1170 439 1065 496 1120 l 549 1169 b 570 1220 563 1181 570 1200 b 566 1245 570 1229 567 1240 b 487 1293 559 1276 532 1293 l 473 1275 m 680 973 b 503 802 624 923 568 870 b 416 920 484 847 453 888 b 261 983 367 962 315 983 b 66 895 187 983 122 954 b -16 697 10 837 -16 772 b 10 550 -16 638 -4 584 b 243 411 55 468 136 418 l 258 484 b 72 675 141 500 72 575 b 219 831 72 766 130 831 b 276 812 234 831 253 825 b 406 508 363 762 406 661 b 402 437 406 481 405 458 l 402 438 b 308 284 394 377 359 323 b 122 219 264 254 201 229 l 130 143 b 216 144 153 143 191 144 b 367 36 288 100 337 65 l 349 8 l 401 -38 l 638 104 l 587 169 b 521 136 551 147 529 136 b 494 143 509 136 499 137 b 389 229 460 172 423 201 b 500 383 438 266 470 315 b 543 584 530 450 543 518 b 532 712 543 629 540 673 b 609 805 551 741 581 776 b 695 651 662 709 696 647 b 740 513 717 590 732 545 b 753 384 749 484 753 443 b 734 229 753 336 747 284 l 734 230 b 713 154 726 205 719 179 b 691 76 706 129 698 101 b 675 38 690 69 684 55 b 563 -93 647 -8 612 -52 b 419 -163 509 -140 460 -163 b 351 -125 377 -163 352 -148 b 357 -81 352 -115 355 -100 b 285 -31 342 -48 317 -31 b 201 -120 235 -31 201 -70 b 277 -230 201 -170 228 -206 b 398 -258 311 -247 357 -258 b 715 -58 499 -258 605 -190 b 737 -30 724 -47 732 -38 b 758 -6 748 -19 754 -12 b 847 145 807 72 835 120 b 891 294 866 180 880 229 b 907 447 902 352 907 404 b 887 611 907 518 900 572 b 745 925 853 716 807 820 l 753 958 l 680 1018 l 680 973 "},"b":{"x_min":27.671875,"x_max":514.953125,"ha":561,"o":"m 321 944 b 122 865 223 937 158 913 b 94 895 116 879 107 886 b 71 902 87 900 82 902 b 49 875 54 902 49 887 l 34 844 b 61 758 52 825 61 795 b 53 133 61 423 58 215 b 27 62 42 118 33 90 b 169 6 72 45 124 23 b 238 -29 189 -18 214 -29 l 256 -29 b 312 19 272 -15 293 4 b 365 66 328 36 347 51 b 459 180 399 98 430 136 b 514 344 495 240 514 297 b 491 455 514 373 506 411 b 397 612 461 508 429 559 l 415 629 l 373 686 b 200 573 318 651 257 609 l 200 772 b 331 869 219 831 250 862 l 323 933 l 313 931 l 321 944 m 362 366 l 362 368 b 387 265 377 331 387 297 b 357 176 387 238 376 208 b 295 106 340 148 320 125 l 294 105 b 203 148 263 120 234 133 b 199 155 201 151 200 154 l 199 469 b 267 520 225 486 244 504 l 362 366 "},"q":{"x_min":16.1875,"x_max":510.28125,"ha":588,"o":"m 489 476 b 510 526 503 490 510 508 b 500 556 510 536 507 544 b 304 662 421 583 356 619 l 262 662 b 86 473 184 590 122 522 b 16 272 42 405 16 336 b 122 16 16 191 52 104 b 121 0 121 11 121 5 b 167 -44 121 -22 137 -36 b 341 90 221 -2 285 48 b 364 -255 345 -6 355 -115 l 439 -255 l 489 476 m 340 463 l 340 190 b 250 116 306 158 276 133 l 248 116 b 150 331 184 197 150 269 b 232 522 150 390 175 451 l 340 463 "},"Ö":{"x_min":-10.890625,"x_max":985.453125,"ha":1078,"o":"m 518 1238 l 462 1037 l 534 1040 b 635 1152 583 1080 617 1120 b 661 1199 649 1169 658 1184 l 660 1198 b 661 1212 661 1206 661 1209 l 661 1226 b 661 1234 661 1229 661 1233 l 649 1255 b 577 1293 627 1269 604 1283 l 577 1281 b 518 1238 553 1277 534 1263 m 343 1215 l 322 1041 l 393 1041 l 481 1170 l 487 1181 l 487 1180 b 495 1218 492 1188 495 1199 l 495 1224 b 488 1247 495 1231 492 1240 b 449 1284 480 1263 466 1274 l 447 1284 b 434 1287 442 1288 439 1287 l 421 1287 b 411 1286 417 1287 415 1287 l 386 1286 l 386 1274 b 343 1215 368 1266 353 1245 m 981 437 b 985 490 984 454 985 472 l 985 497 b 984 508 985 501 985 501 l 984 516 b 966 620 980 552 974 587 b 905 763 951 679 931 729 b 788 870 873 805 830 845 b 597 920 729 904 661 912 b 570 924 588 922 579 923 b 479 940 548 927 517 933 b 424 963 461 944 439 954 b 402 997 421 966 412 983 b 330 995 381 1012 357 1012 b 311 951 328 979 321 963 b 172 854 249 904 205 873 b 42 652 85 784 42 718 l 42 644 b 68 559 42 615 53 583 b 201 387 107 498 152 438 b 212 363 205 380 210 369 l 212 359 b 209 347 212 354 210 349 b 201 337 208 344 205 340 b 145 330 181 333 164 330 l 133 330 b 123 331 129 330 126 330 b 57 352 115 331 92 338 l 83 256 b 170 249 145 251 170 249 l -10 120 l 42 59 b 123 105 74 83 102 99 b 428 -26 225 54 325 11 l 438 -26 b 442 -27 439 -26 441 -27 l 439 -27 b 458 -29 445 -29 447 -29 l 481 -29 b 596 0 518 -25 558 -15 b 905 230 737 55 843 136 b 981 438 944 295 971 368 l 981 437 m 291 276 b 368 388 344 315 368 352 l 368 394 b 356 445 368 406 364 423 b 202 649 308 509 250 584 b 186 705 193 668 187 687 l 186 715 b 201 761 186 730 190 745 b 307 848 219 788 255 819 b 406 784 333 811 366 790 b 604 761 469 776 540 769 b 722 722 643 747 683 734 l 720 722 b 865 458 811 670 865 566 l 865 445 b 864 436 865 443 865 440 l 864 427 b 862 413 862 423 862 416 l 862 415 b 800 245 856 352 834 297 b 717 159 778 213 751 184 b 588 99 668 119 624 99 b 577 98 583 98 579 98 l 552 98 b 470 123 529 98 503 106 l 470 122 b 204 251 397 170 306 213 b 291 276 238 254 268 263 "},"z":{"x_min":0,"x_max":350.015625,"ha":410,"o":"m 350 228 l 330 301 b 269 280 313 296 283 286 b 245 269 258 278 251 272 b 212 301 234 282 223 292 b 280 390 239 328 262 360 b 317 511 306 433 317 472 b 217 643 317 572 286 617 b 163 692 213 662 197 679 l 4 497 l 61 455 b 130 500 93 487 115 501 b 176 428 160 496 179 460 b 38 278 171 369 123 321 l 43 230 b 106 178 62 214 85 194 b 0 -34 32 108 0 42 b 44 -198 0 -102 16 -158 b 153 -255 72 -234 110 -255 b 340 -60 235 -255 313 -181 b 345 3 344 -41 345 -19 b 295 203 345 69 328 136 b 350 228 317 214 339 222 m 222 -55 b 170 -176 222 -128 204 -169 b 83 -34 114 -181 83 -133 b 160 117 83 26 108 76 b 222 -55 202 61 222 4 m 152 126 b 160 117 155 122 157 121 b 171 123 164 119 167 122 l 152 126 "},"æ":{"x_min":19.625,"x_max":748.03125,"ha":794,"o":"m 528 -37 b 743 148 599 18 671 79 l 678 194 b 628 144 658 165 641 150 b 591 129 621 137 607 133 l 588 129 l 572 128 b 568 129 572 128 571 128 b 545 133 556 130 547 132 b 483 204 515 144 483 179 l 483 207 b 488 212 485 210 486 211 b 748 422 558 285 647 354 l 601 660 l 550 660 b 449 579 517 633 482 605 l 302 662 l 270 662 b 213 615 251 648 231 630 b 161 572 197 601 177 586 b 67 461 117 535 83 493 b 19 289 37 403 19 341 l 19 276 b 61 111 19 228 34 173 b 136 11 84 79 110 43 l 131 -15 l 177 -40 b 356 103 236 5 298 57 b 467 4 381 55 419 22 b 482 -1 471 3 477 1 b 528 -37 492 -19 508 -30 m 581 389 b 580 386 580 387 580 386 b 477 298 546 357 511 328 l 477 323 b 478 382 477 347 477 368 b 492 503 481 428 486 469 b 505 522 493 508 498 514 b 581 389 528 478 557 432 m 456 282 l 478 271 l 477 283 l 477 298 l 456 282 m 515 526 l 500 533 b 505 523 501 529 503 526 l 501 522 b 505 523 503 522 504 522 l 505 522 l 507 523 l 505 523 b 512 526 508 525 511 525 l 515 526 m 185 205 l 185 204 b 158 305 176 229 165 262 b 157 323 158 310 158 318 l 157 346 b 240 528 157 423 184 482 b 341 472 276 508 307 490 b 340 190 341 373 340 287 l 246 122 b 185 205 218 151 198 180 m 241 118 l 248 121 b 246 122 247 121 247 122 l 241 118 m 250 119 b 248 121 248 119 248 119 b 250 119 248 121 248 119 "},"É":{"x_min":48,"x_max":1341.140625,"ha":1449,"o":"m 278 -1 b 544 -15 355 -1 493 -5 b 557 -16 548 -18 554 -16 b 572 -20 563 -19 569 -20 b 610 16 588 -20 604 -4 b 672 236 618 55 661 206 b 660 273 672 252 670 263 l 646 281 b 626 290 637 287 633 290 b 602 270 617 290 608 283 l 602 272 b 489 98 589 250 520 130 l 230 98 b 634 884 248 136 603 823 b 645 919 638 894 645 911 b 606 955 645 940 630 955 b 510 951 573 955 538 954 l 476 950 b 418 947 457 948 437 947 b 182 955 347 947 227 947 b 159 958 177 956 165 958 b 124 920 146 958 131 944 l 68 694 l 69 695 b 67 681 67 687 67 684 b 80 656 67 672 69 668 b 90 650 83 655 87 652 b 110 641 95 645 102 641 b 137 662 120 641 132 647 b 244 841 156 701 226 820 b 257 852 249 850 254 852 l 455 852 b 56 73 397 737 98 143 l 57 75 b 48 36 49 65 48 45 b 91 -1 48 -1 75 -1 l 278 -1 m 844 611 b 845 736 844 654 842 693 l 953 736 b 988 769 976 736 985 751 b 999 805 991 779 996 794 b 1000 816 1000 808 1000 813 b 965 847 1000 831 989 847 l 849 847 l 855 927 b 817 970 855 951 851 970 b 780 944 804 970 788 962 b 672 819 766 909 695 834 b 642 775 657 809 642 800 b 683 736 642 752 659 736 l 719 736 l 719 601 b 717 555 717 595 717 568 b 716 443 716 520 716 472 b 841 323 716 387 777 323 b 975 376 911 323 962 365 b 983 402 979 384 983 393 b 980 416 983 406 983 411 l 980 415 l 973 431 b 945 445 964 440 958 445 b 923 438 938 445 932 443 b 871 430 913 431 891 430 b 844 500 863 430 844 440 l 844 611 m 1041 551 b 1040 423 1041 495 1041 458 l 1006 423 b 968 384 976 423 968 412 l 968 366 b 1000 327 968 336 981 327 l 1010 327 b 1109 331 1026 329 1062 331 b 1202 327 1150 331 1184 329 l 1217 327 b 1248 366 1241 327 1248 343 l 1248 384 b 1214 423 1248 408 1244 423 l 1168 423 b 1165 440 1165 423 1165 426 l 1165 675 b 1173 700 1165 676 1169 690 b 1209 731 1185 723 1200 731 b 1229 726 1217 731 1224 730 l 1237 723 b 1241 722 1239 723 1240 722 l 1234 722 b 1271 713 1245 716 1256 713 b 1341 795 1300 713 1341 747 b 1262 870 1341 833 1315 870 b 1160 816 1228 870 1191 847 l 1160 827 b 1126 865 1157 845 1150 865 b 1101 858 1119 865 1108 861 b 1097 856 1100 858 1098 856 b 1062 836 1086 850 1073 843 l 1062 837 b 999 800 1041 825 1021 812 l 1000 800 b 979 766 983 791 979 780 l 979 761 b 1000 727 979 741 987 733 l 1018 716 b 1041 656 1036 705 1041 698 l 1041 551 m 670 165 l 1330 165 l 1330 298 l 670 298 l 670 165 "},"~":{"x_min":-27.21875,"x_max":405.609375,"ha":383,"o":"m 285 855 l 137 906 l 145 913 l 114 915 l 87 925 l 87 912 b 61 898 77 909 69 904 b -27 781 25 869 -2 827 b 23 752 -12 761 5 752 b 50 766 40 752 46 755 l 78 794 l 81 794 b 202 747 136 770 176 754 b 238 736 216 743 232 738 b 250 733 242 734 249 733 l 262 733 b 308 758 283 733 298 743 b 405 877 340 788 372 825 l 326 901 b 296 856 313 879 302 862 b 285 855 292 855 289 855 "},"¡":{"x_min":51.71875,"x_max":284.46875,"ha":360,"o":"m 283 608 l 283 630 b 205 706 236 630 210 655 l 132 706 l 132 683 b 111 650 123 666 118 655 b 55 620 104 645 87 634 b 51 600 53 613 51 611 b 61 556 51 580 55 569 b 138 479 100 543 126 516 l 204 476 b 280 563 212 515 239 543 b 281 579 280 565 280 573 b 284 580 281 579 283 579 l 284 601 l 283 608 m 171 -258 b 261 -177 232 -258 261 -230 b 258 -152 261 -165 259 -158 l 258 -154 l 204 395 l 134 395 b 76 -156 115 216 95 22 l 76 -155 b 74 -168 74 -161 74 -165 b 171 -258 74 -227 106 -258 "},"[":{"x_min":59.890625,"x_max":357.96875,"ha":360,"o":"m 176 838 l 357 841 l 357 925 l 59 925 l 59 -162 l 355 -162 l 355 -77 l 176 -77 l 176 838 "},"L":{"x_min":-21.625,"x_max":683.4375,"ha":717,"o":"m 435 -30 b 454 -32 439 -32 446 -32 b 683 179 518 -32 594 38 l 620 213 b 547 138 586 174 563 151 b 491 118 529 124 510 118 b 423 134 475 118 449 124 b 266 205 371 158 318 181 b 329 252 290 220 310 234 b 384 377 364 293 384 334 b 352 473 384 412 373 443 b 314 526 339 490 328 509 b 276 579 298 547 283 569 b 208 691 246 620 224 656 b 192 762 197 715 192 738 b 241 862 192 802 208 836 b 374 904 277 890 321 904 b 506 868 423 904 468 891 b 574 766 548 841 570 809 b 511 677 578 706 556 677 l 479 677 b 443 656 469 676 457 670 b 408 561 420 631 408 601 b 416 497 408 538 411 518 b 543 398 434 430 477 398 b 653 436 575 398 612 411 l 611 499 b 544 481 586 488 565 481 b 509 494 528 481 514 488 b 506 512 507 499 506 508 b 570 549 506 536 528 549 b 604 544 582 549 593 548 b 650 577 627 552 642 565 b 664 708 660 622 664 665 b 661 765 664 726 664 748 b 562 934 653 837 619 894 b 373 987 510 970 446 987 b 148 904 291 987 212 958 b 41 688 80 845 43 772 b 60 602 39 661 46 631 b 220 369 104 534 159 455 b 237 319 230 354 237 334 b 178 244 237 277 216 255 l 98 262 l -21 44 l 45 11 b 103 90 61 33 87 66 b 109 91 104 90 106 90 l 113 93 b 153 74 113 93 130 86 b 177 66 159 73 171 68 b 434 -29 245 38 332 6 l 435 -30 "}," ":{"x_min":0,"x_max":0,"ha":460},"%":{"x_min":93.859375,"x_max":1139.25,"ha":1383,"o":"m 901 -50 b 1078 26 973 -52 1031 -26 b 1139 201 1120 76 1139 134 b 1082 356 1139 263 1120 315 b 901 425 1039 402 980 425 b 732 351 835 425 778 401 b 665 183 684 300 664 245 b 901 -50 669 33 747 -44 m 411 -47 l 933 966 l 827 966 l 302 -47 l 411 -47 m 330 459 b 506 536 401 456 461 481 b 568 711 548 584 568 643 b 510 863 568 772 547 823 b 330 933 468 909 406 933 b 160 859 264 933 208 909 b 93 691 114 809 92 754 b 330 459 98 543 176 465 m 901 338 b 974 295 931 340 955 325 b 1001 187 992 265 1001 229 b 974 77 1001 143 992 106 b 901 30 955 45 931 30 b 824 76 869 30 842 47 b 804 181 812 104 801 144 b 824 297 807 234 813 272 l 824 295 b 901 338 839 325 864 337 m 330 848 b 402 804 360 850 385 833 b 431 694 421 775 431 738 b 402 584 431 652 421 615 b 330 540 385 554 360 540 b 254 584 298 540 270 555 b 232 690 240 613 230 652 b 254 804 235 744 243 781 l 254 802 b 330 848 268 831 294 847 "},"P":{"x_min":-22.859375,"x_max":841.4375,"ha":922,"o":"m 637 972 b 510 900 603 958 561 931 b 407 797 475 865 441 831 b 341 927 392 855 371 898 b 181 987 303 968 250 987 b 37 902 128 987 77 958 b -20 750 1 854 -18 800 b -22 713 -21 736 -22 725 b 31 572 -22 659 -5 613 b 186 501 69 529 121 506 l 194 577 b 90 636 148 581 114 602 b 57 741 68 669 57 704 b 87 813 57 769 68 793 b 156 837 106 831 132 840 b 268 686 220 825 268 759 l 268 233 b 252 245 260 238 254 243 l 228 254 l 199 248 l 94 51 l 159 25 b 204 73 178 48 192 66 l 201 70 b 265 63 226 75 246 73 b 305 -255 265 -59 279 -165 l 375 -254 b 418 1 397 -172 411 -81 b 551 -34 482 -18 516 -25 b 567 -36 554 -34 565 -36 l 752 175 b 841 423 812 273 841 355 b 815 550 841 463 833 505 l 687 862 l 689 861 b 682 888 684 875 682 884 b 716 931 682 900 694 915 l 637 1038 l 637 972 m 600 595 b 689 387 649 480 679 412 l 689 300 b 591 109 683 222 652 158 l 584 109 b 429 168 532 127 480 148 l 429 680 b 525 790 454 715 486 752 b 600 595 542 738 567 673 m 520 812 b 525 790 521 805 524 798 l 542 806 l 520 812 "},"À":{"x_min":23.734375,"x_max":1082.78125,"ha":1176,"o":"m 957 630 l 956 641 b 908 686 952 662 937 676 b 771 572 859 651 811 613 l 771 791 b 889 884 784 842 824 876 l 889 909 b 878 956 889 931 885 948 b 855 961 866 961 859 961 b 685 870 777 961 722 931 b 645 920 670 901 659 904 l 592 867 b 622 816 606 848 617 829 l 622 652 b 583 618 600 631 589 620 l 512 676 l 471 676 l 287 508 b 278 438 282 476 279 451 l 278 198 b 306 80 287 143 297 102 b 393 0 324 44 353 16 l 393 -12 b 437 -42 402 -26 418 -35 l 525 18 b 606 48 557 39 585 48 b 694 -27 636 48 664 23 l 721 -27 b 768 -8 741 -27 754 -22 b 822 57 772 0 791 22 b 870 125 854 91 870 115 b 830 189 870 137 856 158 b 772 134 803 157 784 139 b 765 132 768 132 767 132 b 767 143 767 132 767 136 l 767 454 b 836 522 792 477 810 498 b 840 519 840 522 840 519 b 941 240 904 427 941 329 b 728 -216 941 115 871 -37 l 791 -265 b 987 23 841 -212 958 -27 b 1082 325 1050 132 1082 234 b 957 626 1082 432 1039 531 l 957 630 m 621 541 l 621 137 b 545 115 614 126 581 115 b 430 177 490 115 451 136 b 413 336 418 195 413 248 b 426 527 413 407 418 473 b 442 541 430 530 438 538 l 506 491 b 538 484 515 486 525 484 b 568 493 547 484 555 486 l 621 541 m 437 765 l 501 898 b 451 930 483 920 466 930 b 429 923 442 930 437 929 b 302 955 403 931 325 954 l 290 955 b 116 793 210 955 153 901 l 79 619 b 37 577 75 600 61 586 b 23 541 27 569 23 555 l 23 534 b 35 515 26 525 29 518 l 35 505 b 87 502 49 505 70 504 b 87 420 86 472 87 452 b 129 -252 87 223 101 -2 l 202 -252 b 245 438 230 -24 245 205 b 242 605 245 494 244 550 b 226 656 237 622 230 644 b 219 676 223 662 221 672 b 202 768 208 716 202 747 b 245 817 202 799 215 817 b 417 759 282 817 377 786 l 437 765 "},"_":{"x_min":-17.6875,"x_max":831.640625,"ha":844,"o":"m 828 -100 l 831 -12 l -17 -12 l -17 -100 l 828 -100 "},"ñ":{"x_min":-0.984375,"x_max":591.09375,"ha":617,"o":"m 167 873 l 167 875 b 71 736 140 843 109 796 b 133 715 105 722 126 715 l 143 715 b 192 762 163 732 178 748 l 195 762 b 367 693 294 715 350 693 b 444 753 385 693 411 712 l 444 751 b 516 854 469 780 493 814 l 438 880 b 401 828 419 846 408 828 b 227 899 400 828 342 853 l 224 896 b 167 873 199 894 178 889 m 528 576 l 513 590 b 437 632 482 597 456 611 b 416 654 429 640 425 646 b 370 669 405 664 389 669 l 356 671 b 220 541 312 629 265 583 b 185 621 216 571 205 596 l 193 640 l 140 682 l 0 526 b 35 477 9 502 22 489 b 79 496 53 482 67 487 b 86 471 84 487 86 480 l 86 156 b 73 118 86 147 80 131 l 39 87 l 39 73 b 56 38 39 59 43 51 b 76 26 62 34 69 30 b 98 16 82 23 91 17 b 126 -26 106 8 117 -8 b 159 -32 141 -27 154 -29 l 181 -25 b 203 5 188 -16 199 -2 b 214 19 208 12 211 16 b 254 37 222 23 237 30 b 265 68 261 51 265 59 b 259 94 265 76 263 84 b 224 126 235 108 224 119 l 224 432 b 324 515 257 461 291 487 b 361 482 336 512 346 502 l 361 45 b 410 -8 391 30 408 13 b 460 -39 420 -22 440 -33 l 591 118 l 535 169 b 503 129 528 161 512 141 b 499 141 499 130 499 133 l 499 482 b 498 486 498 484 498 486 b 520 522 498 498 506 509 b 532 543 532 534 529 539 b 533 546 532 543 533 546 l 533 561 l 528 576 m 212 19 l 211 17 b 212 19 211 17 212 17 "},"+":{"x_min":76.21875,"x_max":717.3125,"ha":844,"o":"m 455 347 l 717 347 l 717 459 l 458 459 l 458 780 l 343 780 l 343 459 l 76 459 l 76 347 l 343 347 l 343 22 l 455 22 l 455 347 "},"‚":{"x_min":10,"x_max":206,"ha":282,"o":"m 98 214 b 10 125 37 214 10 186 b 98 35 10 64 37 35 b 101 36 98 35 99 35 b 97 26 99 33 98 30 l 91 11 l 91 14 b 79 -9 87 7 83 -1 l 79 -8 b 34 -93 60 -47 41 -80 l 82 -135 b 154 -61 109 -112 135 -87 b 200 16 177 -34 193 -6 l 199 15 b 206 61 204 26 206 44 b 197 129 206 82 203 105 b 98 214 185 182 151 214 "},"½":{"x_min":8.03125,"x_max":967.703125,"ha":1057,"o":"m 699 794 l 590 812 l 289 176 l 397 156 l 699 794 m 967 179 l 879 191 b 830 126 853 147 838 126 l 725 126 b 756 151 752 147 737 136 b 822 198 775 163 794 179 b 936 375 898 259 936 319 b 852 512 936 438 909 483 b 732 537 819 529 778 537 b 578 488 672 537 617 519 b 498 315 533 452 506 395 l 583 315 b 685 408 605 377 641 408 b 789 348 754 408 789 388 b 732 258 789 323 771 293 b 725 254 732 258 729 256 b 718 248 724 252 721 250 b 653 195 706 238 683 220 b 601 154 638 183 620 169 b 472 1 551 112 502 58 l 899 1 l 967 179 m 401 387 l 401 473 b 314 475 366 473 334 473 l 314 920 l 217 920 l 8 770 l 85 713 b 101 722 91 716 93 716 b 167 766 122 734 146 752 l 167 476 b 126 473 157 473 145 473 l 78 486 l 78 387 l 401 387 "},"Æ":{"x_min":-3.171875,"x_max":1310.3125,"ha":1383,"o":"m 1070 -24 l 1310 141 l 1274 208 b 1019 135 1172 160 1087 135 b 771 301 904 135 823 190 b 749 355 757 326 750 344 b 714 623 726 482 714 572 b 731 799 714 701 719 760 b 836 899 749 866 784 899 b 921 852 870 899 897 885 l 820 722 b 921 548 854 665 891 601 b 944 511 933 530 941 519 b 974 465 955 491 965 476 l 972 466 b 1028 324 1009 403 1028 354 b 941 247 1028 274 998 247 b 867 367 904 247 873 303 l 793 364 b 839 225 797 305 813 258 b 949 167 867 185 904 167 b 1068 217 999 167 1038 182 l 1066 217 b 1122 328 1088 242 1107 279 b 1152 447 1133 367 1142 408 b 1118 547 1145 483 1136 516 b 1174 496 1134 533 1152 516 b 1291 626 1227 526 1268 570 l 1178 715 l 1142 715 b 1058 633 1117 690 1087 659 b 976 772 1023 687 995 731 b 1014 831 985 790 997 810 l 1202 790 l 1296 960 l 1232 992 b 1193 955 1221 982 1205 966 b 1034 977 1141 960 1088 969 b 978 916 1016 959 995 935 b 836 983 940 958 889 983 b 643 869 759 983 696 947 l 628 919 l 553 899 b 573 770 567 822 573 778 b 580 423 573 658 576 541 b 597 335 582 400 587 369 b 617 262 602 311 610 286 b 426 135 520 193 454 148 b 386 128 417 130 403 128 b 256 225 380 128 337 161 b 550 663 452 324 550 472 b 515 813 550 709 538 763 b 413 930 495 860 459 901 b 267 974 367 960 319 974 b 68 866 186 974 117 938 b 7 648 28 802 7 730 b 78 464 7 575 30 515 b 275 373 126 414 191 383 l 292 443 b 98 640 173 471 98 543 b 251 815 98 735 158 815 b 362 742 300 815 337 791 b 401 593 387 701 401 651 b 338 394 401 514 377 446 b 158 271 303 353 237 310 b -3 213 117 251 63 232 l 32 135 b 73 144 49 140 63 144 b 112 128 85 144 98 139 b 232 33 153 97 192 65 b 209 7 229 26 220 19 l 258 -28 b 650 178 403 26 534 94 b 818 15 696 105 756 47 b 1062 -26 884 -16 965 -30 l 1070 -24 "},"'":{"x_min":20.421875,"x_max":277.671875,"ha":360,"o":"m 171 955 l 182 968 b 111 911 153 963 130 945 l 20 534 l 95 534 l 277 884 l 277 902 b 273 920 277 909 276 913 b 249 955 269 933 259 948 b 186 972 217 965 197 970 l 171 955 "},"Š":{"x_min":43.9375,"x_max":1002.171875,"ha":1100,"o":"m 574 1019 l 724 1288 l 640 1288 b 521 1169 603 1251 559 1208 l 403 1288 l 320 1288 l 471 1019 l 574 1019 m 697 690 l 690 691 b 452 577 614 656 529 613 b 420 572 445 575 434 572 b 337 650 378 572 337 608 b 441 747 337 705 385 747 b 566 659 487 747 529 718 l 630 683 b 554 794 615 730 588 769 b 446 833 518 820 483 833 b 310 775 396 833 351 815 b 252 643 272 737 252 694 b 320 505 252 595 275 551 l 359 473 b 434 409 384 452 411 429 b 565 456 464 413 508 429 l 687 518 b 716 530 705 525 717 530 l 728 531 b 763 540 734 537 746 540 b 853 500 793 540 825 526 b 909 405 882 473 901 440 b 915 331 913 390 915 366 b 861 206 915 287 897 245 b 738 125 827 170 787 141 b 691 115 717 119 701 115 l 555 115 b 465 138 501 127 469 137 l 467 138 b 165 527 265 222 165 351 b 246 759 165 618 192 693 b 460 862 305 827 376 862 b 614 806 499 862 550 843 l 614 808 b 743 723 656 780 700 751 l 774 720 b 915 786 818 740 871 766 b 991 918 965 811 991 855 b 961 975 991 938 980 959 b 936 979 953 976 943 979 b 901 968 925 979 913 975 b 887 927 891 954 887 940 l 887 919 b 908 887 894 908 901 895 l 908 886 b 868 859 901 869 889 859 b 838 863 853 859 844 861 b 705 940 793 888 749 915 b 561 993 644 975 596 993 b 543 991 559 993 550 993 l 514 991 b 276 894 414 965 336 931 b 43 466 121 791 43 648 b 54 375 43 438 46 408 b 65 330 57 359 61 343 b 76 288 69 316 72 302 b 92 248 77 279 84 265 b 582 -27 185 65 348 -27 b 780 12 660 -27 727 -15 b 938 151 844 44 897 91 b 1002 350 977 213 1002 281 b 860 622 1002 458 950 554 b 698 690 800 665 743 690 l 697 690 "},"ª":{"x_min":29.15625,"x_max":602.234375,"ha":617,"o":"m 487 152 l 487 463 b 489 476 487 466 487 473 b 516 491 491 476 509 486 b 526 520 521 504 526 512 b 516 551 526 529 521 538 b 422 598 487 562 456 577 b 368 631 404 609 385 620 l 368 630 b 330 652 357 637 340 647 b 287 659 321 656 309 659 l 270 659 b 154 552 233 625 192 586 b 65 438 116 513 83 473 b 29 283 41 395 29 338 b 41 190 29 258 33 226 b 75 97 50 147 61 116 b 143 5 97 66 120 37 l 116 -22 l 192 -43 b 353 86 244 -1 301 43 b 372 33 357 61 362 54 b 411 0 387 19 402 6 b 417 -4 413 -1 415 -2 l 418 -6 b 468 -48 423 -25 429 -41 l 602 106 l 540 154 b 509 116 528 134 520 122 b 487 152 494 118 487 129 m 30 -276 l 587 -276 l 587 -181 l 30 -181 l 30 -276 m 246 122 b 163 336 191 188 163 259 b 246 526 163 413 191 476 b 350 466 283 505 316 487 l 350 183 l 257 113 b 246 122 253 113 251 118 m 260 113 l 257 113 l 253 111 l 260 113 "},"ð":{"x_min":25.875,"x_max":534.625,"ha":588,"o":"m 232 931 b 197 941 205 941 201 941 b 29 779 93 941 29 881 b 38 723 29 761 32 741 b 58 697 43 716 51 706 l 25 679 l 25 566 b 130 627 54 581 99 611 b 161 601 143 615 149 609 l 76 538 l 76 173 b 73 158 76 168 75 161 b 38 140 58 151 46 144 b 27 106 29 126 27 116 b 40 75 27 101 28 90 b 147 41 77 62 116 51 l 146 43 b 223 -29 196 22 223 0 l 281 -29 l 383 68 b 484 215 420 102 452 152 l 484 213 b 534 388 518 280 534 337 b 454 600 534 472 506 543 b 409 641 437 619 418 634 b 288 719 369 665 327 694 l 344 754 l 344 866 b 195 779 300 841 240 805 l 189 784 b 145 831 159 802 145 819 b 162 858 145 844 151 854 b 232 868 170 859 194 863 l 232 929 l 228 929 l 232 931 m 410 322 b 318 113 410 248 372 165 l 315 112 b 214 168 281 130 248 150 l 214 520 b 242 551 214 531 224 541 b 410 322 354 493 410 415 m 236 555 b 242 551 237 554 240 552 l 250 555 l 236 555 "},"T":{"x_min":-17.90625,"x_max":845,"ha":821,"o":"m 693 649 l 845 778 l 789 828 b 734 797 766 808 747 797 b 718 804 729 797 722 800 l 378 979 l 357 989 b 157 940 284 989 217 972 b 31 781 88 904 43 845 b 27 743 28 770 27 756 b 127 552 27 681 59 620 l 178 597 b 111 738 133 660 111 707 b 114 765 111 746 112 756 l 114 764 b 233 860 122 818 175 860 b 333 827 258 860 291 849 l 331 828 b 383 797 353 815 368 806 b 416 778 394 790 405 785 b 255 602 326 718 270 657 b 252 571 254 593 252 583 b 288 482 252 535 265 506 b 444 350 331 442 384 395 b 443 322 447 345 446 332 b 353 296 427 304 397 296 b 248 306 340 296 307 299 b 153 340 212 328 179 340 b 80 296 127 340 101 325 l -17 165 l 50 125 b 108 178 82 172 86 178 b 470 -18 228 103 349 38 b 526 -31 489 -27 508 -31 b 644 20 563 -31 602 -14 b 745 99 685 53 719 78 b 804 143 766 114 793 135 l 753 202 b 586 127 684 152 628 127 b 515 147 563 127 538 133 b 390 218 474 171 431 195 b 485 246 424 222 461 232 b 589 382 551 282 589 329 b 560 465 589 407 578 433 b 421 577 514 502 467 540 b 404 627 413 586 404 606 b 489 735 404 653 433 689 b 495 736 489 735 492 735 l 663 649 l 693 649 "},"š":{"x_min":14.875,"x_max":508.96875,"ha":561,"o":"m 315 847 l 462 1113 l 381 1113 b 262 995 344 1076 300 1034 l 148 1113 l 63 1113 l 213 847 l 315 847 m 366 823 l 363 822 l 353 822 b 224 719 300 822 257 787 l 334 655 b 368 736 338 709 349 736 b 430 669 402 736 430 705 b 390 613 430 631 417 613 b 283 662 349 613 311 630 b 246 673 269 670 255 673 b 219 666 235 673 224 670 b 133 588 209 662 178 633 b 92 550 116 575 104 561 b 47 506 67 527 51 511 b 25 450 42 497 32 476 b 43 398 29 426 35 408 b 125 265 73 355 99 312 l 125 262 b 14 134 125 230 88 188 l 29 88 b 73 68 42 83 59 75 l 72 68 b 111 50 81 62 95 55 b 171 5 137 36 157 20 l 178 -1 b 243 -27 193 -18 214 -27 b 280 -1 258 -22 272 -15 b 428 87 359 43 409 70 l 427 87 b 508 250 483 131 508 187 b 387 440 508 323 466 387 l 484 577 b 508 668 499 601 508 631 b 366 823 508 751 459 802 m 229 372 b 155 500 185 440 160 483 b 189 529 163 508 174 518 b 319 476 236 508 278 490 l 229 372 m 217 550 l 160 584 l 160 543 b 189 529 170 538 180 534 b 217 550 197 536 206 543 m 340 272 b 383 220 361 251 378 233 b 387 193 386 213 387 205 b 359 126 387 170 378 148 b 299 94 341 105 321 94 b 288 95 293 94 289 94 b 172 168 243 123 199 151 b 228 241 205 212 219 229 b 287 311 254 273 273 297 b 340 272 302 302 321 291 m 278 315 l 287 311 l 292 318 l 278 315 "},"Þ":{"x_min":14.96875,"x_max":525.390625,"ha":554,"o":"m 209 508 b 201 809 208 525 205 606 b 239 870 204 830 216 852 b 315 900 265 890 291 900 b 333 909 319 900 323 900 l 333 954 b 196 925 265 950 219 940 b 137 847 175 913 155 883 b 84 906 127 865 111 881 l 59 877 b 88 783 76 834 85 805 l 92 155 l 14 40 l 53 8 b 88 40 63 30 76 40 l 93 40 b 99 37 96 37 98 37 l 99 36 l 125 -251 l 175 -252 b 198 9 182 -168 191 -76 b 258 -16 220 -1 239 -8 l 259 -23 l 270 -31 b 302 -26 285 -31 296 -29 b 401 93 322 -8 356 31 b 488 226 446 155 473 200 b 525 370 513 275 525 323 b 511 409 525 379 519 394 l 408 608 l 420 622 l 398 666 l 209 508 m 378 395 b 421 275 405 345 421 305 b 385 175 421 247 408 213 b 319 90 363 147 341 120 l 306 90 b 208 138 272 106 240 123 b 210 430 209 237 209 331 b 304 506 245 456 270 480 b 378 395 344 451 366 416 m 304 508 l 304 506 l 306 508 l 304 508 "},"j":{"x_min":-13.1875,"x_max":286.25,"ha":333,"o":"m 167 716 b 283 861 219 777 260 827 b 286 883 284 866 286 872 b 260 937 286 904 278 922 b 211 956 248 950 231 956 b 154 929 188 956 167 947 b 106 719 125 865 110 795 l 167 716 m 257 506 b 261 569 274 523 275 544 b 196 612 239 580 216 595 l 196 615 b 199 627 197 619 197 625 b 154 679 195 647 180 665 l 5 508 l 56 448 b 80 483 69 469 78 480 b 84 477 87 476 84 481 b 92 291 88 420 92 358 b 83 59 92 222 88 140 b -13 -254 72 -47 41 -158 l 79 -254 b 137 -136 114 -187 133 -150 b 173 -30 151 -97 162 -61 l 173 -38 l 253 -38 b 225 102 245 1 231 61 l 225 479 b 252 502 226 488 237 498 l 257 506 "},"1":{"x_min":84.390625,"x_max":574.390625,"ha":717,"o":"m 161 0 l 574 0 l 574 69 b 479 76 526 69 494 72 b 447 112 458 81 447 93 l 447 920 l 341 920 l 84 679 l 144 625 b 291 752 190 663 243 712 b 295 111 292 537 294 326 b 161 70 295 84 251 70 l 161 0 "},"›":{"x_min":24.5,"x_max":251.8125,"ha":283,"o":"m 24 -4 l 251 272 l 251 315 l 25 646 l 25 487 b 148 298 63 427 108 359 l 24 132 l 24 -4 "},"ä":{"x_min":28.703125,"x_max":601.375,"ha":617,"o":"m 373 926 l 374 926 b 336 894 362 921 349 911 l 276 692 l 349 694 b 450 803 396 730 431 771 b 474 851 463 821 472 835 b 476 861 476 854 476 860 l 476 869 b 473 882 476 872 476 876 l 474 879 b 462 905 473 889 469 896 b 392 942 440 921 417 932 l 392 930 b 373 926 383 930 378 929 m 160 864 l 141 696 l 211 696 b 298 823 236 735 270 785 b 306 842 299 826 305 839 b 311 867 310 853 311 860 l 311 876 b 305 898 311 885 309 893 b 266 932 296 912 283 925 l 250 936 l 239 936 b 227 935 234 936 231 936 l 204 935 l 204 925 b 160 864 185 915 171 894 m 472 -35 l 601 115 l 538 160 b 519 129 529 147 522 135 b 511 122 515 126 514 125 b 507 123 511 122 510 122 b 500 125 504 123 503 125 b 492 135 496 129 495 130 l 492 132 b 487 158 488 144 487 154 l 487 472 b 489 485 487 473 488 480 b 515 500 489 485 506 494 b 516 560 525 522 526 543 b 336 658 449 586 387 618 b 294 668 318 664 306 668 l 269 668 b 236 637 261 660 246 646 b 69 460 177 579 114 519 b 34 337 49 415 40 376 b 30 321 32 333 31 326 b 28 307 30 317 30 312 l 28 290 b 73 105 28 228 43 165 b 141 11 95 75 118 42 l 115 -16 l 192 -35 b 352 92 243 5 300 50 b 371 40 356 68 362 61 b 394 19 379 33 387 25 b 416 -3 409 11 415 3 b 459 -39 425 -23 442 -34 l 472 -35 m 228 151 b 189 221 209 180 193 203 b 164 321 177 243 168 275 l 164 326 b 163 337 164 329 164 333 l 163 343 b 166 383 163 357 164 369 l 166 382 b 246 535 178 443 202 496 b 349 475 280 514 315 496 l 349 192 l 254 121 b 228 151 243 133 235 143 m 250 117 l 260 121 l 256 121 l 254 121 l 250 117 "},"<":{"x_min":12.25,"x_max":236.828125,"ha":283,"o":"m 12 308 l 236 -12 l 236 136 b 111 332 196 198 151 266 l 235 493 l 235 632 l 12 355 l 12 308 "},"£":{"x_min":-13.34375,"x_max":660.5,"ha":833,"o":"m 24 438 l 27 369 l 209 369 b 215 363 212 366 214 366 b 231 296 226 344 234 319 l 231 298 b 177 238 227 271 201 246 l 99 255 l -13 45 l 51 9 b 107 88 66 28 92 67 b 111 89 109 88 110 89 l 113 91 l 113 89 b 143 80 113 91 129 84 b 156 74 147 78 152 76 l 155 74 b 433 -30 223 45 327 7 l 444 -30 b 660 173 503 -30 577 35 l 597 212 b 525 134 562 169 538 142 b 476 114 509 121 493 114 b 411 133 457 114 435 121 b 263 201 362 155 312 178 b 335 262 284 216 310 235 b 373 367 359 292 371 327 l 427 369 l 427 432 b 527 387 450 402 483 387 b 629 427 557 387 589 399 l 591 491 b 528 471 566 478 544 471 b 493 478 508 471 494 473 b 490 502 491 488 490 495 b 503 524 490 510 493 519 b 551 538 518 532 533 538 b 581 532 561 538 573 537 b 627 573 601 541 619 553 b 640 692 636 613 640 652 b 637 749 640 713 640 732 l 637 748 b 543 914 627 819 596 876 b 362 964 495 948 435 964 b 147 884 280 964 209 937 b 45 676 81 827 47 756 b 68 584 45 646 50 614 b 95 542 76 571 83 559 b 106 526 98 538 100 535 b 115 510 109 521 113 516 l 117 507 l 24 507 l 24 438 m 207 676 b 190 746 197 698 190 721 b 238 846 190 788 208 821 b 363 891 275 874 317 891 b 489 853 411 891 452 878 b 554 749 529 824 550 791 b 542 684 555 720 551 699 b 430 642 489 671 442 653 b 396 546 407 617 396 587 b 399 507 396 534 396 520 l 313 507 b 207 676 256 591 222 642 m 114 89 l 113 89 l 114 89 "},"t":{"x_min":18.953125,"x_max":352.421875,"ha":360,"o":"m 171 787 b 114 665 159 747 138 703 b 18 561 87 622 54 587 l 18 498 l 82 498 l 82 119 b 50 93 77 112 65 101 l 47 40 b 144 4 95 28 129 16 l 141 -16 l 189 -40 l 352 110 l 287 161 b 242 122 268 135 253 122 b 223 133 235 122 227 128 l 223 498 l 344 498 l 344 623 l 221 623 b 262 808 223 660 236 719 l 171 808 l 171 787 "},"ù":{"x_min":19.625,"x_max":583.84375,"ha":556,"o":"m 455 500 l 577 500 l 577 625 l 455 625 b 451 719 454 658 452 688 l 506 870 b 480 901 496 895 498 895 l 481 901 b 320 940 422 929 371 940 b 114 794 212 940 144 891 l 75 612 b 33 572 71 593 59 579 b 19 536 23 561 19 547 b 35 500 19 522 25 511 b 83 497 49 500 67 498 b 83 469 82 481 83 481 b 84 426 83 456 83 438 b 125 -250 87 193 101 -43 l 196 -250 b 237 305 221 -56 234 126 b 238 475 237 369 238 426 b 237 598 238 523 237 565 b 197 759 210 679 197 731 b 199 779 197 766 197 772 l 199 777 b 260 818 204 804 226 818 b 295 809 272 818 285 815 b 323 798 301 806 309 802 l 321 798 b 347 788 334 793 342 790 l 346 788 b 384 770 363 783 374 777 l 362 712 b 344 662 357 694 351 680 b 274 563 328 618 304 583 l 274 501 b 314 500 282 501 302 500 l 314 116 b 282 90 308 109 297 98 b 280 69 282 84 282 76 l 280 37 b 376 2 332 26 363 15 b 377 -4 376 0 376 -1 l 383 -25 l 421 -44 l 583 109 l 519 159 b 494 127 506 141 496 130 b 474 120 487 122 480 120 b 455 130 468 120 459 125 l 455 500 "},"W":{"x_min":22.859375,"x_max":1352,"ha":1460,"o":"m 1308 641 l 1315 698 b 1293 705 1311 700 1300 702 b 1230 901 1285 788 1262 855 b 1024 993 1187 961 1114 993 b 802 901 944 993 869 962 b 643 1001 771 962 716 997 b 495 921 575 997 523 970 b 288 977 435 968 368 984 b 90 861 207 970 142 933 b 22 644 46 797 22 725 b 101 447 22 566 48 498 b 320 362 154 395 225 366 l 327 429 b 304 436 323 430 308 434 b 292 440 301 437 299 437 b 160 507 239 447 195 468 l 161 507 b 109 643 127 547 109 591 b 160 769 109 691 127 734 b 285 822 194 804 236 822 b 433 734 349 822 398 791 b 482 554 467 684 482 623 b 389 273 482 415 448 319 l 350 273 l 163 168 l 205 98 b 296 130 247 120 277 130 b 329 122 307 130 319 126 l 327 123 l 525 -32 b 584 -7 563 -18 579 -9 b 751 94 640 26 695 61 l 749 95 b 957 -20 834 40 903 1 b 1000 -27 970 -25 983 -27 b 1144 13 1038 -27 1088 -13 b 1240 69 1186 33 1219 52 b 1352 270 1313 129 1352 198 b 1301 383 1352 313 1335 351 b 1172 511 1259 425 1214 469 l 1173 508 b 1156 558 1161 526 1156 543 b 1297 629 1156 598 1202 622 l 1308 641 m 1077 372 b 1206 237 1124 333 1169 286 b 1219 194 1213 222 1219 205 b 1177 130 1219 177 1204 156 b 1090 93 1150 105 1119 93 b 1058 95 1082 93 1068 94 b 864 198 1000 123 929 161 b 923 290 894 243 916 275 b 957 411 946 331 957 373 b 934 502 957 438 949 469 b 826 739 862 622 826 700 b 888 855 826 779 847 819 b 1008 902 929 893 968 909 b 1104 812 1050 896 1082 862 b 1134 675 1109 793 1120 747 b 1008 522 1052 645 1008 595 b 1076 373 1008 470 1031 422 l 1077 372 m 693 683 b 739 511 693 629 708 572 b 820 357 765 459 792 408 l 820 358 b 824 333 822 351 824 344 b 765 209 824 293 805 251 b 662 130 738 179 700 155 l 629 111 l 629 112 b 616 108 624 109 620 108 b 544 148 602 108 578 122 b 462 222 511 176 480 204 b 637 586 579 323 637 447 b 559 854 637 684 609 777 b 629 902 567 887 591 902 b 722 822 675 902 720 869 b 693 683 701 777 693 733 m 722 821 l 723 825 b 722 822 722 823 722 822 l 722 822 l 722 821 "},">":{"x_min":24.5,"x_max":251.8125,"ha":283,"o":"m 24 -4 l 251 272 l 251 315 l 25 646 l 25 487 b 148 298 63 427 108 359 l 24 132 l 24 -4 "},"v":{"x_min":9.703125,"x_max":528.28125,"ha":588,"o":"m 88 676 b 9 538 54 633 30 590 b 39 466 9 522 17 497 l 39 468 b 70 404 55 438 68 419 b 83 300 79 373 83 338 b 79 212 83 280 81 252 b 75 126 76 176 75 147 b 49 86 64 109 54 94 b 50 61 49 76 50 66 l 50 43 b 200 -18 114 26 163 6 b 234 -29 207 -22 219 -26 b 273 -27 251 -33 265 -33 b 419 97 344 26 393 69 b 517 259 468 148 502 202 b 528 347 524 287 528 316 b 428 587 528 429 495 509 l 430 584 b 412 663 424 598 416 623 l 355 663 b 186 526 299 618 241 573 b 153 611 162 555 153 580 b 175 675 153 626 162 648 l 88 704 l 88 676 m 394 277 b 306 97 394 212 358 140 l 302 97 b 212 143 271 112 243 126 l 212 434 b 288 504 230 462 257 483 b 394 277 356 425 392 348 m 281 511 b 288 504 284 508 286 506 b 296 508 291 505 292 506 l 281 511 "},"û":{"x_min":-3.109375,"x_max":585.71875,"ha":617,"o":"m 405 695 l 490 695 l 340 963 l 242 963 l 90 695 l 175 695 b 291 812 212 733 254 774 l 405 695 m 442 -39 l 585 113 l 534 179 b 499 126 516 149 505 131 l 499 491 b 506 515 499 499 501 505 b 516 520 506 515 512 519 b 533 531 519 522 521 523 b 544 559 542 541 544 549 b 538 587 544 567 543 579 b 494 613 516 597 502 606 b 475 641 491 616 483 629 b 467 652 475 644 469 648 b 431 665 454 661 442 665 b 401 658 424 665 414 662 l 373 630 b 363 620 370 626 366 623 b 319 581 344 604 330 591 b 314 565 314 572 314 567 b 325 530 314 556 318 544 b 358 511 347 516 358 511 l 358 201 b 257 122 306 149 270 122 b 218 145 242 122 228 130 l 218 586 b 193 601 212 590 198 598 l 176 609 b 169 640 175 616 172 629 b 120 679 165 651 149 665 l -3 537 b 62 486 11 511 33 495 b 78 501 67 492 73 497 b 84 483 84 494 84 488 l 84 129 b 56 94 84 122 74 109 b 48 62 51 86 48 74 l 48 36 b 156 -19 114 23 150 4 b 190 -34 167 -29 179 -34 l 202 -34 b 360 97 258 16 314 61 l 360 17 b 394 -20 390 12 394 5 l 442 -39 "},"Ò":{"x_min":-38.109375,"x_max":684.484375,"ha":751,"o":"m 612 510 l 610 510 b 684 585 659 526 684 551 b 609 645 684 609 636 645 b 561 592 582 645 567 626 b 545 583 559 587 553 583 b 480 605 541 583 519 590 b 460 613 471 608 468 610 l 461 613 b 448 619 459 615 451 617 b 407 630 432 623 421 627 b 243 649 353 642 297 649 b 24 588 159 649 83 627 b -38 466 -12 559 -38 519 b 96 323 -38 402 6 351 b 93 310 96 317 96 313 b 88 290 92 306 89 295 b 78 260 89 292 83 273 b 74 249 77 256 76 253 b 72 237 70 244 72 240 b 70 233 72 234 70 234 l 70 235 b 49 117 57 190 49 149 b 81 34 49 81 58 56 b 171 0 104 10 132 0 b 294 53 198 0 240 19 b 425 -7 329 10 374 -7 b 600 95 486 -7 543 27 b 640 215 627 131 640 170 b 495 363 640 296 593 345 l 534 490 l 530 490 b 612 510 557 492 586 499 m 371 435 l 373 437 b 362 405 362 409 363 410 l 363 406 b 356 385 366 412 359 392 b 352 376 355 381 353 380 b 260 384 300 380 285 381 b 300 517 279 444 291 490 b 345 509 315 515 330 512 b 390 501 362 506 377 503 b 371 435 386 484 377 456 m 160 505 b 125 415 147 471 134 440 b 89 426 100 423 100 423 b 70 433 84 427 74 431 b 66 434 69 433 68 434 l 73 433 b 50 470 57 442 50 455 b 183 527 50 510 95 527 b 298 517 208 527 247 523 l 168 521 b 160 505 167 520 162 508 m 525 231 b 492 158 525 209 514 184 b 412 94 467 115 439 94 b 402 101 405 94 402 95 b 465 281 402 109 420 162 b 525 231 506 273 525 259 m 205 101 b 178 91 193 95 185 91 b 174 92 175 91 174 91 b 231 299 174 109 193 178 b 325 290 262 295 295 291 b 205 101 287 185 247 121 m 351 366 b 321 290 337 324 329 308 l 396 290 l 351 366 "},"&":{"x_min":11.75,"x_max":846.21875,"ha":894,"o":"m 706 -18 b 846 162 768 6 816 68 l 806 162 b 752 152 790 162 771 158 b 678 86 735 108 710 86 b 637 102 662 86 650 91 b 574 179 616 127 594 154 l 636 337 b 693 388 642 361 673 388 b 716 373 697 388 708 381 b 767 343 726 368 744 356 l 829 455 b 716 512 791 494 753 512 b 569 404 654 512 591 465 l 569 405 b 525 283 549 352 535 311 b 515 259 520 273 518 266 b 367 480 459 340 421 399 b 500 668 447 537 488 597 b 503 699 501 677 503 687 b 436 819 503 752 480 790 l 436 818 b 305 854 399 841 356 854 b 169 786 251 854 205 830 b 126 656 141 747 126 704 b 195 469 126 599 149 537 b 73 365 149 441 104 404 b 11 199 34 315 11 258 b 98 27 11 127 40 70 b 282 -29 150 -9 211 -29 b 486 49 354 -29 424 -1 b 640 -30 531 -5 583 -30 b 704 -18 659 -30 681 -26 l 706 -18 m 384 698 b 315 545 384 643 365 594 b 250 693 271 602 250 652 b 311 762 250 731 269 755 b 328 763 318 763 323 763 b 384 698 367 763 386 741 m 437 108 b 335 68 406 79 373 68 b 320 69 330 68 326 68 b 168 215 232 91 181 140 l 168 213 b 166 251 166 227 166 240 b 241 393 166 305 192 352 b 437 108 305 298 372 201 m 235 402 b 241 393 237 399 239 395 l 254 401 l 235 402 "},"I":{"x_min":3.953125,"x_max":723.78125,"ha":794,"o":"m 269 991 b 103 922 208 977 146 950 b 8 762 40 879 8 823 b 247 542 8 637 104 552 l 255 617 b 137 661 208 622 165 638 b 91 762 108 688 91 723 b 129 834 91 793 103 816 l 129 833 b 221 858 156 848 187 858 b 268 851 235 858 254 855 l 472 743 b 586 766 511 743 551 750 b 674 816 591 769 619 784 b 723 909 706 839 723 870 b 661 964 723 944 688 964 b 604 909 623 964 604 945 b 609 887 605 901 606 894 b 559 879 593 876 576 875 l 560 877 b 434 951 545 884 502 909 b 323 1000 371 990 345 997 l 269 991 m 609 641 b 657 627 628 633 646 627 b 712 684 695 627 712 647 b 632 761 712 729 687 757 b 500 697 589 761 541 736 b 419 583 468 666 440 624 l 419 584 b 408 537 410 572 408 556 b 427 470 408 517 415 491 b 571 205 474 380 523 294 b 575 178 574 195 575 185 b 537 105 575 152 561 127 b 451 71 511 81 483 71 b 342 136 404 71 356 98 b 273 205 327 181 306 205 b 247 200 265 205 257 205 b 191 203 232 203 213 203 b 150 202 180 203 163 203 b 3 60 63 196 13 148 b 70 46 23 52 44 46 b 81 66 76 55 77 60 b 99 89 89 77 96 86 b 129 106 108 100 118 106 b 195 71 153 106 175 93 b 236 -8 214 48 229 21 b 281 -35 248 -26 262 -35 b 307 -25 289 -35 302 -31 b 390 -22 334 -25 364 -25 b 541 6 455 -17 507 -6 b 666 107 591 24 632 59 b 719 243 700 157 719 202 b 707 295 719 263 715 280 b 572 551 640 416 595 501 b 562 599 566 566 562 580 b 606 665 562 643 578 665 b 609 661 608 665 609 663 l 609 641 "},"Ð":{"x_min":5.21875,"x_max":1023.328125,"ha":1128,"o":"m 101 890 b 5 661 37 827 5 752 b 43 522 5 611 18 567 b 180 427 73 473 118 443 l 205 486 l 205 411 b 356 414 250 411 310 414 b 416 326 383 376 406 344 b 387 293 414 318 402 305 b 338 264 379 286 364 277 b 44 125 231 262 131 216 l 96 75 b 214 122 138 105 179 122 b 281 97 233 122 254 114 b 496 -28 350 55 427 12 b 601 -56 525 -45 563 -56 b 899 73 718 -56 817 -13 b 1023 375 982 161 1023 261 b 952 636 1023 462 1000 550 b 778 845 909 718 849 788 b 363 990 659 941 521 990 l 330 990 l 327 987 b 101 890 236 980 163 948 m 110 561 b 82 645 90 582 82 611 b 145 788 82 703 105 752 b 304 840 187 823 240 840 b 514 799 379 840 446 827 b 269 660 376 773 295 724 b 259 625 262 643 259 632 b 300 518 259 599 273 563 l 205 521 l 205 494 b 110 561 156 521 124 543 m 638 411 l 638 521 b 496 518 595 521 540 518 b 419 646 469 563 446 602 l 420 645 b 500 713 420 673 451 696 b 627 731 541 723 583 730 b 824 543 708 681 774 620 b 913 284 883 458 913 372 b 849 127 913 223 891 172 b 695 64 806 84 755 64 b 399 209 624 64 527 111 b 526 271 447 232 480 247 b 576 361 556 284 576 316 b 564 411 576 379 572 396 l 638 411 m 634 731 l 680 732 l 609 785 l 609 742 b 627 731 616 738 621 735 l 634 731 m 540 412 l 564 411 b 551 433 560 419 556 426 l 540 412 "},"G":{"x_min":53.421875,"x_max":978.984375,"ha":1078,"o":"m 969 237 b 978 316 976 262 978 287 b 818 597 978 433 920 543 b 972 786 871 654 921 718 b 934 837 959 813 946 829 b 915 836 927 838 920 837 l 822 930 b 825 954 823 939 825 944 b 773 987 814 970 795 981 b 678 887 738 958 708 923 b 690 836 678 861 682 843 l 781 751 b 796 720 791 741 796 730 b 727 625 796 690 773 659 l 728 626 b 588 554 680 598 634 575 b 604 630 599 581 604 612 b 599 658 604 641 603 651 l 599 656 b 528 826 577 720 554 775 l 528 823 b 529 851 525 831 525 841 b 533 869 529 856 532 863 b 603 820 555 859 574 844 l 646 870 b 580 934 627 897 606 919 l 600 962 l 555 1015 b 501 968 540 1002 517 980 b 415 977 472 973 442 977 b 139 822 298 977 207 925 l 139 823 b 53 508 83 736 53 630 b 154 161 53 370 88 254 b 558 -30 245 31 381 -30 b 969 237 785 -30 923 58 m 369 780 l 446 586 b 454 544 452 573 454 559 b 407 472 454 506 438 481 b 380 468 399 469 389 468 b 288 500 350 468 320 477 b 218 570 263 518 239 540 b 268 777 220 643 237 713 l 268 776 b 418 893 307 855 356 893 b 435 891 425 893 430 893 b 369 780 415 863 393 825 m 449 911 b 435 891 444 905 439 898 b 457 888 442 891 450 890 l 449 911 m 856 262 b 626 19 856 125 761 37 b 580 16 611 18 592 16 b 295 177 463 16 367 70 b 192 505 237 268 201 373 b 197 506 193 505 196 506 b 386 408 257 438 320 408 b 459 423 411 408 434 413 b 614 498 536 469 588 494 b 641 501 623 500 633 501 b 792 423 698 501 747 475 b 856 262 834 373 856 320 "},"`":{"x_min":0,"x_max":0,"ha":0},"·":{"x_min":55.8125,"x_max":279.03125,"ha":360,"o":"m 132 627 b 129 616 130 623 129 620 l 129 618 b 55 572 121 597 98 572 l 68 501 b 112 479 84 495 102 487 b 147 427 127 461 138 443 l 164 427 l 175 426 b 190 430 178 426 182 426 l 209 445 b 217 470 210 454 213 462 b 279 512 243 486 266 504 l 279 569 b 239 586 253 579 245 583 l 240 586 b 205 648 225 597 213 618 l 132 648 l 132 627 "},"r":{"x_min":-7.1875,"x_max":392.984375,"ha":410,"o":"m 162 -16 b 211 -37 171 -23 188 -31 l 390 121 l 343 183 b 256 114 319 162 284 134 b 220 148 233 122 220 134 b 225 431 220 262 221 362 b 251 478 233 445 240 460 l 286 419 l 339 416 b 380 478 361 447 375 469 b 392 549 388 497 392 521 b 361 605 387 570 376 584 b 330 662 346 626 335 646 l 280 662 b 210 559 258 630 232 592 b 184 606 203 576 196 589 b 184 631 183 610 184 616 b 161 656 179 644 171 652 l 134 669 l -7 519 b 5 501 3 503 3 502 b 10 491 7 497 9 491 b 37 477 15 483 26 477 b 75 491 49 477 62 481 b 82 463 79 483 82 473 l 82 168 b 79 141 81 151 81 143 b 48 122 77 136 67 130 b 37 86 41 100 37 87 l 37 67 l 149 6 b 162 -16 149 -2 152 -10 "},"¿":{"x_min":11.28125,"x_max":430.5,"ha":433,"o":"m 363 577 l 366 584 b 359 619 366 597 363 609 l 322 638 l 324 638 b 291 706 301 650 291 673 l 205 706 b 136 627 211 666 177 633 l 136 552 b 210 486 171 552 210 516 b 256 477 233 479 248 477 l 276 484 b 299 516 283 495 294 508 b 309 536 302 523 305 530 b 351 554 321 543 340 550 b 357 561 352 555 355 559 b 363 577 361 568 363 572 m 410 -177 b 430 -101 423 -161 430 -136 b 355 -30 430 -59 395 -30 b 276 -106 322 -30 297 -55 b 222 -168 261 -148 242 -168 b 112 -75 162 -168 112 -129 b 156 36 112 -38 125 -1 b 245 143 186 70 216 106 b 297 288 279 188 297 237 b 279 430 297 336 290 384 l 220 430 l 220 416 b 215 413 219 416 216 413 b 208 397 210 408 207 404 l 210 384 b 211 368 211 375 211 369 b 155 258 211 336 193 298 b 57 144 101 198 68 159 b 11 -6 27 98 11 47 b 76 -184 11 -77 33 -136 b 249 -256 120 -231 177 -256 b 336 -230 271 -256 303 -247 b 410 -177 369 -215 395 -195 "},"ý":{"x_min":19.28125,"x_max":528.171875,"ha":617,"o":"m 300 982 l 309 994 b 200 861 277 980 242 937 b 171 801 190 841 181 822 b 133 723 162 782 143 743 l 215 723 l 377 879 b 397 928 392 894 397 908 b 314 1000 397 975 370 1000 l 300 982 m 201 539 l 194 566 b 166 626 175 597 166 615 b 181 676 166 637 171 654 l 99 715 l 99 683 b 19 532 62 646 35 591 b 77 444 42 501 61 473 l 77 146 b 36 103 77 122 64 108 l 36 79 b 47 33 36 64 41 48 b 80 18 58 26 72 21 b 85 15 81 16 83 16 b 90 7 87 14 87 10 b 151 -33 109 -19 129 -33 b 207 -2 171 -33 190 -23 b 324 101 230 26 269 61 l 279 179 b 223 121 254 146 234 123 l 221 121 b 215 279 216 135 215 187 b 220 444 215 336 216 389 b 283 505 235 462 260 486 b 397 232 355 433 397 336 b 383 161 397 215 393 191 l 385 161 b 360 87 377 137 367 114 b 284 -59 352 57 326 10 b 171 -227 249 -119 209 -174 l 236 -265 b 528 312 431 -24 528 166 b 488 486 528 376 514 436 b 398 625 483 497 453 543 l 398 669 l 337 669 l 201 539 "},"x":{"x_min":17.6875,"x_max":524.03125,"ha":561,"o":"m 386 -43 l 524 116 l 466 162 b 430 133 447 143 435 133 b 430 140 430 133 430 136 b 326 367 396 213 360 294 b 372 459 344 399 357 427 l 402 404 b 506 517 470 455 504 494 b 481 594 509 544 499 570 b 449 662 464 613 453 638 l 387 662 b 288 469 356 599 321 533 b 209 606 265 523 240 567 b 210 619 212 612 210 613 b 161 679 210 640 194 658 l 17 516 l 59 470 b 107 498 72 477 92 488 b 129 473 119 487 127 474 b 210 298 160 406 187 349 b 156 173 190 254 176 216 l 129 215 l 78 215 l 17 101 l 83 -16 b 99 -24 85 -18 95 -22 b 155 -11 117 -34 138 -27 b 255 193 175 15 213 90 l 347 -11 l 386 -43 "},"è":{"x_min":-0.90625,"x_max":603.421875,"ha":561,"o":"m 547 783 l 603 915 b 557 951 588 937 573 951 b 536 946 548 951 543 951 b 479 955 517 953 498 955 b 377 912 440 955 404 940 b 274 951 342 939 309 951 b 152 900 234 951 193 935 b 82 796 110 865 88 830 l 49 614 b 12 575 45 594 33 580 b 0 539 1 561 0 550 b 15 504 0 529 3 515 b 54 501 27 503 41 503 b 54 410 53 468 54 444 b 93 -258 54 215 67 -8 l 161 -258 b 199 385 186 -10 199 203 b 197 501 199 425 199 462 l 293 501 b 293 410 291 468 293 446 b 331 -255 293 214 305 -8 l 399 -255 b 434 501 422 -44 434 201 l 544 501 l 544 628 l 427 628 b 397 762 408 690 397 733 b 437 818 397 798 411 818 b 527 778 463 818 493 804 l 547 783 m 284 803 b 320 785 302 794 310 789 b 290 626 308 728 301 683 l 189 626 b 159 753 170 691 159 736 b 201 814 159 791 173 814 b 284 803 240 814 268 810 "},"º":{"x_min":32.75,"x_max":511.859375,"ha":561,"o":"m 268 -37 b 511 338 438 46 511 156 b 393 602 511 400 468 491 l 397 610 b 360 669 392 637 379 656 l 51 542 b 66 262 61 432 66 337 b 36 102 66 180 55 124 b 32 71 34 92 32 84 l 32 46 b 223 -25 125 24 190 0 b 220 -29 221 -26 221 -28 b 268 -37 243 -37 255 -39 m 32 -268 l 505 -265 l 505 -171 l 32 -174 l 32 -268 m 373 278 b 360 164 373 238 368 200 b 315 96 348 120 333 96 b 201 148 309 96 270 114 l 201 513 b 245 531 216 519 232 525 b 366 327 328 392 366 331 b 373 278 371 306 373 291 m 386 348 l 363 337 b 366 327 363 332 366 330 l 412 298 l 386 348 "},"Ø":{"x_min":-8.96875,"x_max":983.25,"ha":1078,"o":"m 960 351 b 983 488 975 380 983 427 b 934 705 983 565 965 640 b 792 862 898 773 852 829 b 844 968 822 919 834 948 l 856 984 l 777 1025 b 705 898 757 987 727 937 b 584 923 660 909 626 916 b 470 940 539 930 500 936 b 449 943 461 941 456 941 b 421 961 438 944 429 949 b 393 1001 417 966 407 979 l 376 1004 b 374 1005 376 1004 377 1004 l 366 1005 b 325 988 354 1005 339 1001 b 250 899 324 966 298 936 b 140 824 215 873 177 849 b 75 749 118 809 95 781 b 38 652 52 713 38 679 b 86 522 38 612 54 569 l 86 522 b 169 419 101 499 127 466 b 211 352 197 385 211 364 b 150 323 211 333 189 323 b 69 349 131 323 105 331 l 69 256 b 163 249 113 253 154 249 l 174 249 l -8 120 l 37 59 b 112 103 75 88 99 103 b 234 49 127 103 170 84 l 167 -68 l 245 -110 b 319 9 268 -72 294 -28 b 459 -30 395 -18 442 -30 b 625 12 510 -30 566 -17 b 896 221 757 78 864 159 l 960 351 m 290 274 b 368 385 342 301 368 337 b 271 551 368 421 335 474 l 271 549 b 181 704 211 622 181 673 b 223 786 181 734 196 762 l 222 784 b 293 831 246 799 270 817 b 306 840 298 834 301 837 b 397 783 329 806 361 790 b 619 748 472 772 544 760 b 317 195 515 558 421 384 l 196 251 b 290 274 230 253 261 262 m 709 717 b 815 620 753 698 788 666 b 862 474 848 571 862 523 b 681 130 862 314 803 199 b 566 94 638 106 602 94 b 474 114 538 94 508 100 b 436 132 464 120 449 124 b 397 152 425 138 410 145 l 709 717 "},"μ":{"x_min":88.171875,"x_max":748.359375,"ha":833,"o":"m 597 -19 b 748 158 699 -19 748 39 b 742 214 748 172 745 192 l 668 211 b 665 168 665 192 663 176 l 665 169 b 658 111 666 153 663 132 l 659 111 b 632 78 653 89 643 78 b 614 100 624 78 614 89 l 614 635 l 447 635 l 447 367 b 446 354 447 364 447 360 b 444 347 446 353 444 348 b 410 192 425 254 413 193 b 314 78 386 117 353 78 b 258 122 285 78 258 97 l 248 635 l 88 635 l 88 -207 b 168 -291 88 -248 126 -291 b 247 -214 221 -291 247 -264 b 229 -131 247 -192 242 -163 b 216 -92 225 -120 221 -106 b 202 -55 212 -85 207 -73 b 184 17 195 -28 190 -7 b 213 -6 201 -2 195 5 b 282 -17 255 -14 276 -17 l 293 -19 b 467 107 371 -19 427 19 b 470 92 467 101 469 96 b 597 -19 480 30 534 -19 "},"÷":{"x_min":57.171875,"x_max":558.0625,"ha":638,"o":"m 57 527 l 558 527 l 558 636 l 57 636 l 57 527 m 266 886 b 264 875 265 881 264 877 b 190 825 255 855 231 838 l 202 758 b 247 737 219 754 236 745 b 281 684 262 719 274 701 l 311 683 b 325 687 313 683 317 683 l 345 704 b 353 731 345 711 351 725 b 413 766 374 752 396 761 l 413 826 b 375 844 387 837 379 841 l 377 844 b 347 887 362 854 356 866 l 347 886 b 337 906 345 891 344 895 l 266 906 l 266 886 m 266 425 b 264 413 265 420 264 416 b 190 365 255 394 231 377 l 202 298 b 247 276 219 293 236 284 b 281 225 262 258 274 240 l 311 223 b 325 227 313 223 317 223 l 345 243 b 352 266 345 251 348 259 b 413 309 379 283 401 300 l 413 366 b 375 383 387 376 379 380 l 377 383 b 341 445 360 394 348 415 l 266 445 l 266 425 "},"h":{"x_min":47.21875,"x_max":545.390625,"ha":664,"o":"m 350 883 b 352 896 352 889 350 891 b 356 911 353 901 356 907 b 337 946 356 921 349 932 b 303 950 322 947 307 950 b 203 915 270 950 236 939 b 150 857 184 898 165 878 b 111 910 141 871 126 891 l 59 857 b 88 805 74 837 83 819 l 88 133 b 78 116 86 128 81 119 b 70 111 77 115 75 114 b 47 97 66 108 54 101 b 64 41 52 72 59 53 b 158 -28 107 29 138 5 l 186 -28 b 233 -8 203 -28 220 -20 b 348 121 255 30 292 73 l 294 185 b 233 130 270 155 251 139 l 230 133 l 230 446 b 305 511 256 468 279 490 b 372 387 327 480 348 440 b 413 257 399 328 413 283 b 192 -215 413 126 339 -30 l 255 -265 b 425 -17 346 -134 405 -51 b 541 247 473 60 511 150 b 545 318 545 269 545 294 b 417 621 545 423 503 525 l 417 635 b 372 678 413 651 398 666 b 235 560 318 633 269 590 l 235 782 b 339 872 247 833 282 865 l 350 883 "},".":{"x_min":55.8125,"x_max":279.03125,"ha":360,"o":"m 132 159 b 129 150 130 156 129 152 b 55 100 121 129 96 113 l 68 33 b 112 12 84 27 102 19 b 147 -40 127 -6 138 -23 l 164 -40 l 175 -41 b 190 -37 178 -41 182 -41 l 209 -20 b 217 2 210 -13 213 -5 b 279 45 243 18 266 36 l 279 101 b 239 119 253 112 245 116 l 240 119 b 205 181 225 129 213 151 l 132 181 l 132 159 "},";":{"x_min":14.96875,"x_max":288.5625,"ha":383,"o":"m 132 613 b 117 591 129 606 125 598 l 118 591 b 63 558 102 579 84 568 b 57 534 59 548 57 543 l 57 527 b 66 494 57 518 59 508 b 123 459 84 484 106 473 b 134 416 129 452 133 438 l 210 413 l 210 438 b 270 488 219 463 238 479 b 279 501 272 491 276 497 l 280 501 b 288 520 283 504 288 511 b 274 562 288 537 284 548 b 223 590 249 576 231 584 b 205 640 215 608 210 620 l 132 640 l 132 613 m 262 519 l 270 509 l 259 513 b 262 519 259 515 259 516 m 93 115 l 14 -245 b 58 -259 35 -255 50 -259 l 62 -259 b 81 -252 68 -259 77 -254 b 102 -226 91 -245 98 -237 l 99 -227 b 258 84 163 -127 215 -25 b 268 122 265 95 268 109 b 251 162 268 137 262 151 b 215 191 240 173 225 184 b 197 193 209 193 204 193 l 145 193 l 145 183 b 93 115 119 168 100 145 "},"f":{"x_min":18.6875,"x_max":431.3125,"ha":360,"o":"m 367 774 l 431 906 b 379 939 413 928 397 939 b 360 934 371 939 367 939 b 289 944 336 941 312 944 b 114 794 202 944 145 894 b 74 612 101 737 86 669 b 51 582 73 603 65 594 b 21 553 32 569 24 560 b 33 495 14 532 20 512 l 82 495 b 82 413 81 464 82 445 b 125 -250 82 219 96 -3 l 195 -250 b 238 380 224 -24 238 187 b 236 495 238 419 238 456 l 361 495 l 361 621 l 227 621 b 206 691 214 655 212 673 b 198 778 197 728 194 756 l 198 777 b 240 807 204 796 217 807 b 346 769 273 807 308 795 l 367 774 "},"“":{"x_min":18,"x_max":392,"ha":486,"o":"m 303 579 b 392 668 362 579 392 607 b 303 757 392 727 362 757 b 300 754 302 757 300 755 b 310 780 300 759 305 769 l 310 779 b 322 801 314 786 318 793 l 322 800 b 367 886 341 839 360 872 l 319 928 b 245 854 288 902 268 882 b 201 776 224 826 208 800 b 196 726 197 762 196 745 b 203 662 196 705 197 683 b 303 579 216 612 250 579 m 125 579 b 213 668 186 579 213 607 b 125 757 213 727 186 757 b 122 755 124 757 122 757 b 133 780 124 761 128 769 l 133 779 b 190 886 155 823 179 868 l 141 928 b 68 854 113 904 88 880 b 23 776 46 827 30 800 b 18 726 19 762 18 745 b 24 662 18 705 19 683 b 125 579 38 609 73 579 "},"A":{"x_min":9.390625,"x_max":895.25,"ha":922,"o":"m 650 -20 l 719 -34 l 895 156 b 840 211 883 179 863 197 b 786 175 802 187 783 175 b 783 183 786 175 785 177 l 785 179 l 785 772 b 808 858 785 808 791 835 b 853 899 814 867 834 883 b 884 946 872 914 885 931 l 884 980 b 683 881 791 981 725 948 l 664 924 l 602 887 b 621 781 608 858 616 813 l 621 251 b 615 237 620 248 616 241 b 436 133 557 191 499 158 l 439 134 l 406 130 b 280 227 357 159 319 188 l 374 279 b 578 629 510 390 578 506 b 508 865 578 722 553 801 b 287 976 454 940 380 976 l 281 976 b 84 877 204 976 135 942 b 13 666 39 820 13 748 b 82 463 13 587 39 519 b 302 373 134 399 210 369 l 310 444 b 103 640 183 467 103 538 b 106 672 103 648 104 662 b 167 780 111 720 133 758 b 284 810 199 803 238 813 b 425 630 360 806 406 747 b 429 587 428 616 429 602 b 370 399 429 511 409 448 l 370 401 b 210 283 331 356 273 315 b 144 258 216 284 180 272 b 9 209 112 247 59 227 l 32 132 b 93 148 59 143 80 148 b 122 140 103 148 111 145 l 121 141 b 257 32 167 104 210 70 l 239 7 l 288 -36 b 621 143 395 20 513 84 b 668 19 627 104 642 63 b 650 -20 665 11 658 -1 "},"6":{"x_min":47.640625,"x_max":641.078125,"ha":717,"o":"m 349 -15 b 566 93 436 -15 509 21 b 641 319 615 158 641 233 b 577 508 641 394 619 457 b 401 591 532 564 472 591 b 202 507 322 591 257 565 b 378 840 210 721 269 836 b 434 807 404 841 423 830 b 439 740 438 787 439 761 b 529 668 449 691 477 668 b 605 750 577 668 605 709 b 383 916 605 859 532 914 b 117 722 266 919 176 853 b 47 359 70 623 47 500 b 54 244 47 318 50 279 b 157 65 78 169 114 109 b 349 -15 213 12 276 -15 m 366 473 b 454 390 401 465 431 436 l 454 391 b 487 241 475 347 487 298 b 454 109 487 190 475 143 b 349 53 430 73 396 53 b 254 119 313 54 281 76 b 210 244 228 157 215 198 b 209 275 209 255 209 264 b 240 414 209 330 220 375 b 333 478 262 457 295 478 b 367 473 344 478 355 476 l 366 473 "},"‘":{"x_min":15,"x_max":211,"ha":360,"o":"m 122 579 b 211 668 182 579 211 607 b 122 757 211 727 182 757 b 119 754 121 757 119 755 b 129 780 119 759 123 769 l 129 779 b 141 801 133 786 137 793 l 141 800 b 186 886 160 839 178 872 l 138 928 b 65 854 110 904 87 882 b 20 776 42 827 27 800 b 15 726 16 762 15 745 b 21 662 15 705 16 683 b 122 579 35 612 69 579 "},"O":{"x_min":-11.046875,"x_max":985.5625,"ha":1078,"o":"m 706 49 b 905 230 786 92 857 161 b 985 493 956 310 985 400 b 920 732 985 580 963 661 b 728 890 873 810 809 862 l 729 890 b 634 911 707 900 673 907 b 502 929 560 921 510 926 b 402 990 451 940 417 962 b 330 992 382 1005 360 1005 b 251 899 325 962 299 929 b 116 803 176 849 131 818 b 42 643 67 755 42 703 b 88 517 42 600 58 558 b 172 422 95 505 125 474 b 212 357 198 393 212 372 b 201 336 212 350 207 342 b 149 329 181 332 166 329 b 57 353 125 329 95 336 l 82 257 b 166 246 115 250 142 246 l -11 119 l 42 58 b 123 104 76 83 100 98 b 272 42 163 90 216 71 b 428 -26 340 10 390 -13 b 706 49 521 -26 612 -2 m 294 276 b 368 389 344 312 368 350 b 356 443 368 404 364 422 b 265 560 326 479 294 522 b 192 672 223 611 197 651 b 187 704 189 682 187 692 b 307 843 187 748 227 797 b 407 780 333 805 366 787 b 717 712 560 761 664 737 b 865 457 816 665 865 579 b 775 215 865 371 837 289 b 567 99 714 137 646 99 b 472 121 533 99 505 105 b 212 247 400 167 313 211 b 294 276 241 251 269 261 "},"n":{"x_min":-0.125,"x_max":590.1875,"ha":617,"o":"m 219 537 b 186 615 215 565 203 591 l 192 633 l 139 675 l 0 520 b 55 461 5 501 25 480 b 78 488 63 472 73 481 b 85 456 82 480 85 469 b 87 293 85 423 85 352 l 87 129 b 40 90 87 129 70 116 b 57 31 40 62 46 42 b 127 -29 86 22 110 2 b 181 -23 154 -29 173 -26 b 199 0 186 -18 194 -7 b 210 16 209 16 206 11 b 255 38 218 22 233 30 b 253 95 270 65 270 83 b 224 129 239 104 229 116 l 224 427 b 274 474 241 444 256 458 b 322 509 300 498 315 509 b 360 476 331 509 345 497 l 360 45 b 409 -8 390 30 407 13 b 459 -39 420 -22 439 -33 l 590 116 l 534 166 b 500 123 526 156 509 137 b 499 140 499 126 499 131 l 499 306 b 497 474 497 381 497 438 b 512 511 497 487 503 501 l 515 512 b 531 579 526 523 531 545 b 455 609 496 587 470 598 b 409 652 445 613 432 629 b 347 662 399 658 379 662 b 349 656 347 661 349 658 b 219 537 308 618 262 577 "},"3":{"x_min":19.796875,"x_max":627.46875,"ha":717,"o":"m 310 -18 b 526 58 392 -18 465 8 b 627 269 594 115 627 186 b 551 441 627 337 598 397 b 420 511 514 473 470 497 b 568 683 514 561 562 619 b 495 861 574 754 547 818 b 315 922 449 900 387 922 b 35 723 196 922 87 848 l 96 680 b 285 801 130 748 212 801 b 421 683 356 801 411 754 l 421 683 b 341 568 428 644 401 605 b 156 494 289 534 228 509 l 156 418 b 227 425 182 418 205 420 b 280 431 250 429 270 431 b 405 379 328 431 370 413 b 465 254 442 343 461 300 b 432 111 468 193 457 147 b 310 54 405 73 364 54 b 187 108 240 54 200 73 b 187 131 186 112 186 120 l 187 130 b 191 162 190 148 191 158 b 102 265 191 216 161 265 b 20 159 44 265 14 209 b 136 18 28 100 66 51 b 310 -18 187 -6 247 -18 "},"9":{"x_min":37.5625,"x_max":638.03125,"ha":717,"o":"m 74 148 b 152 19 74 95 104 50 b 293 -18 191 -4 241 -18 b 563 178 408 -18 497 48 b 638 521 613 284 638 399 b 635 566 638 537 636 553 b 545 803 629 655 595 741 b 312 914 485 877 405 914 b 105 812 225 914 156 881 b 37 570 56 748 35 660 b 111 385 41 499 65 437 l 109 385 b 286 303 156 331 214 303 b 330 307 300 303 318 305 b 478 392 390 319 440 345 l 478 389 b 446 189 478 317 467 252 b 311 55 416 100 369 55 b 254 74 282 55 262 62 b 236 144 246 85 240 107 b 164 228 229 194 206 223 l 163 227 l 160 228 b 74 148 112 228 74 194 m 316 832 b 429 750 361 832 399 806 b 470 589 457 699 470 646 b 436 466 470 542 459 499 b 333 412 412 432 378 412 b 235 471 295 412 262 432 b 192 592 210 507 197 546 b 190 642 191 613 190 628 b 307 832 190 755 228 819 l 316 832 "},"l":{"x_min":39.578125,"x_max":371.859375,"ha":333,"o":"m 313 864 b 337 893 329 864 337 875 b 324 941 337 903 333 918 b 194 919 258 937 218 930 l 196 919 b 133 852 173 908 151 886 b 80 904 122 868 106 884 l 42 858 b 75 765 62 814 75 784 l 75 129 b 42 97 71 120 60 111 b 43 55 38 80 38 65 l 43 56 l 50 44 b 129 11 87 26 114 15 b 175 -39 139 -18 155 -32 l 371 112 l 311 166 b 238 122 287 145 260 127 b 213 140 224 123 218 129 b 212 789 213 355 212 573 b 313 864 216 826 267 864 "},"¤":{"x_min":6.46875,"x_max":763.0625,"ha":833,"o":"m 685 88 l 761 161 b 628 287 724 197 667 250 b 680 452 662 336 680 394 b 628 620 680 512 660 570 l 763 749 l 685 821 b 556 694 644 780 597 734 b 383 742 504 724 444 742 b 213 692 323 742 263 723 l 79 821 l 6 748 b 137 617 45 708 94 658 b 86 452 103 567 86 515 b 137 288 86 390 103 336 l 6 161 l 79 88 b 211 213 120 126 169 173 b 383 161 263 183 324 161 b 556 213 448 161 505 180 l 685 88 m 369 644 b 518 590 429 647 480 628 b 577 452 557 552 577 506 b 519 316 577 402 557 355 b 383 259 481 277 435 259 b 247 316 330 259 284 277 b 190 452 209 355 190 401 b 241 584 190 505 207 548 b 369 644 275 622 318 642 "},"4":{"x_min":-4.078125,"x_max":626.109375,"ha":717,"o":"m 475 241 l 626 241 l 626 368 l 473 368 l 473 920 l 359 920 l 10 373 l -4 331 l -4 241 l 325 241 l 325 106 b 264 70 325 83 304 70 b 193 105 240 70 215 83 l 193 0 l 601 0 l 601 69 b 515 70 549 69 519 69 b 475 87 488 73 475 79 l 475 241 m 107 363 b 326 705 185 483 251 588 l 326 363 l 107 363 "},"p":{"x_min":-1.796875,"x_max":533.234375,"ha":561,"o":"m 97 673 b 5 538 60 609 29 563 b 79 458 47 512 73 486 l 79 161 l -1 43 l 52 -6 b 85 31 67 16 78 29 l 115 -251 l 186 -250 b 209 -4 192 -169 202 -86 b 248 -20 221 -11 235 -16 b 284 -40 256 -33 269 -40 b 309 -27 293 -40 301 -36 b 533 361 459 134 533 263 b 530 402 533 375 531 390 b 481 512 522 430 504 469 b 423 608 470 530 451 562 l 435 622 l 401 683 b 209 550 344 643 269 591 b 165 626 198 577 186 602 b 168 655 168 634 168 644 b 97 705 161 672 139 688 l 97 673 m 401 306 l 399 306 b 403 281 402 298 403 290 b 312 106 403 247 375 191 l 305 106 b 220 148 278 120 247 134 l 220 452 l 296 511 b 401 306 342 443 378 375 m 297 519 l 288 525 b 296 511 289 520 293 515 l 344 548 l 295 545 l 297 519 "},"‡":{"x_min":-21.78125,"x_max":506.328125,"ha":581,"o":"m 345 378 b 310 508 333 385 321 428 b 285 649 302 570 294 617 b 383 563 323 633 364 606 b 504 699 411 620 449 666 b 385 831 449 730 411 774 b 287 746 366 794 325 764 b 367 849 303 785 325 826 b 243 983 313 876 273 920 b 117 849 209 920 167 874 b 191 753 156 827 174 788 l 194 748 b 99 833 155 763 115 792 b -20 701 72 774 32 731 b 99 563 31 667 70 621 b 198 649 118 606 156 630 b 171 508 189 617 179 573 b 119 366 159 428 141 380 b 171 227 142 352 159 306 b 198 85 178 165 189 117 b 99 176 157 102 115 131 b -21 40 72 115 31 67 b 99 -94 32 5 72 -39 b 194 -12 118 -52 153 -30 b 191 -18 189 -23 197 -5 b 117 -116 174 -54 155 -94 b 243 -246 167 -141 209 -184 b 368 -116 273 -187 314 -143 b 287 -11 325 -94 304 -52 b 383 -94 325 -29 363 -52 b 506 40 409 -40 449 3 b 385 173 449 69 411 113 b 285 87 366 130 326 105 b 310 227 294 119 300 163 b 344 355 321 305 332 348 l 345 378 "},"à":{"x_min":42.890625,"x_max":837.78125,"ha":913,"o":"m 715 621 l 713 632 b 666 676 709 651 693 666 b 530 564 618 641 571 604 l 530 780 b 647 872 543 830 583 864 b 636 943 648 908 644 932 b 614 947 624 947 618 947 b 445 858 536 947 481 919 b 406 908 430 889 419 891 l 353 855 b 383 804 368 836 379 818 l 383 643 b 343 608 362 622 350 611 l 275 666 l 234 666 l 52 500 b 42 432 46 469 44 443 l 42 193 b 71 78 52 139 61 98 b 157 -2 89 41 117 14 l 157 -15 b 200 -45 166 -28 181 -38 b 287 15 228 -26 260 -3 l 286 14 b 368 46 321 35 349 46 b 453 -30 396 46 425 19 l 481 -30 b 527 -10 500 -30 515 -23 b 581 53 531 -2 550 18 b 628 121 613 87 628 111 b 588 185 628 133 615 154 b 527 128 562 153 541 132 b 526 139 526 128 526 132 l 526 446 b 594 514 550 471 569 490 b 598 510 598 512 598 510 b 698 235 662 421 698 323 b 487 -216 698 111 629 -40 l 550 -265 b 745 19 654 -119 720 -23 b 837 319 806 128 837 229 b 715 616 837 425 795 523 l 715 621 m 381 533 b 383 135 381 390 383 276 b 306 111 377 122 343 111 b 193 173 252 111 213 132 b 176 330 181 190 176 243 b 189 519 176 400 181 466 b 206 533 193 522 202 530 l 270 485 b 328 485 289 475 309 475 l 381 533 "},"Ü":{"x_min":-12.515625,"x_max":811.203125,"ha":821,"o":"m 435 1232 l 421 1219 l 364 1013 l 438 1016 b 515 1095 459 1033 485 1060 b 564 1184 547 1134 564 1164 b 479 1268 564 1219 534 1247 l 479 1256 b 435 1232 462 1253 447 1245 m 289 1242 l 297 1255 b 244 1182 266 1238 248 1216 l 225 1017 l 295 1017 l 390 1155 b 394 1170 390 1152 393 1164 l 393 1169 b 398 1195 397 1180 398 1189 b 322 1262 398 1239 361 1265 l 303 1260 l 289 1242 m 100 793 l 97 197 b 62 126 97 180 85 156 b 70 76 59 109 63 93 b 205 8 112 54 163 30 l 205 6 b 254 -27 216 -13 232 -27 b 311 -18 277 -27 297 -25 b 521 105 402 33 470 75 b 574 1 526 50 541 20 l 567 -29 l 641 -29 l 811 126 l 754 173 b 688 141 725 152 705 141 b 685 150 687 141 685 144 l 685 776 b 745 823 685 798 706 815 l 745 893 b 632 990 694 908 657 941 l 573 987 b 530 923 555 955 540 933 b 462 895 519 912 494 904 l 462 816 b 523 787 492 820 523 802 l 523 201 b 356 111 438 141 380 113 b 262 173 319 127 286 151 b 257 188 259 179 259 183 l 257 890 b 124 990 225 951 182 983 l -12 845 l 31 787 b 92 805 56 798 78 805 b 100 793 97 801 100 795 "},"ó":{"x_min":-2.3125,"x_max":596.578125,"ha":532,"o":"m 227 542 b 288 500 227 542 241 507 b 324 -256 295 171 306 -82 l 392 -256 b 429 603 416 -43 429 242 b 391 761 404 677 391 730 b 431 818 391 799 406 818 b 535 768 456 818 490 800 l 596 914 b 551 950 581 936 566 950 b 531 943 544 950 539 949 b 474 955 512 950 491 955 b 370 911 433 955 399 939 b 267 950 336 938 303 950 b 148 898 227 950 188 932 b 82 795 112 864 88 830 l 49 613 b 12 574 45 593 31 580 b -2 538 1 560 -2 549 b 15 503 -2 528 3 514 b 54 500 27 502 41 502 b 54 409 53 467 54 443 b 92 -258 54 214 65 -8 l 161 -258 b 199 384 186 -11 199 202 b 197 493 199 425 197 463 b 196 607 197 548 197 589 b 159 752 170 689 159 736 b 201 813 159 791 173 813 b 314 785 237 813 274 803 b 279 606 303 721 291 668 l 280 607 b 242 589 275 593 264 588 b 227 545 234 568 227 555 l 227 542 "}}}
